<svg xmlns="http://www.w3.org/2000/svg" viewBox="0 0 100 73.63"><defs><style>.cls-1{fill:#d92027;}</style></defs><g id="Layer_2" data-name="Layer 2"><g id="Layer_1-2" data-name="Layer 1"><path class="cls-1" d="M45.91,73.53c-6-.43-13.5.76-20.89-.65C12.38,70.48,2.69,60.2.38,46.72c-2-11.91,4.37-25.28,15.07-31.32,5.92-3.34,12.22-5.08,19.06-4.16A3.72,3.72,0,0,0,37.88,10,32.16,32.16,0,0,1,54.7,1.08C60,.2,65.58-.73,70.88.87A47.17,47.17,0,0,1,86,8.37c6.38,4.82,10.14,11.11,12.42,18.36a33.75,33.75,0,0,1-.8,22.47C92.52,62.72,81.23,72.66,64.58,73.49,58.83,73.78,53.06,73.53,45.91,73.53ZM44.26,13.85a16.93,16.93,0,0,0,2.53,1.82c1.69,1.27,3.37,2.52,5.87,1,10.35-6.45,25-.93,30.59,9.26,4.68,8.51,3.7,17-1.76,24.63-5.58,7.86-13.59,10.55-23,8.95a20.82,20.82,0,0,1-11.56-6.24c-4.52-4.61-9.1-9.16-13.68-13.7-1.43-1.42-3.08-1.87-4.79-.51s-1.72,2.89-.76,4.76a9,9,0,0,0,2.07,2.48c4.64,4.44,9.56,8.64,13.89,13.36A20.74,20.74,0,0,0,54,65.8c5.66,1.31,11.67,1.74,17.61-.21a30.29,30.29,0,0,0,20.3-36.47C86.74,8.46,60.25-.14,44.26,13.85ZM41.6,66.59c-1.89-1.79-3.44-3-4.73-4.52a6.71,6.71,0,0,0-5.68-2.42A17.35,17.35,0,0,1,21.07,28.22c3-2.28,6.43-2.47,10-2.81,4.43-.42,8,.63,11.12,3.78q5.22,5.31,10.55,10.48a4.07,4.07,0,0,0,5.6-.07c1.53-1.81,1-3.43-.56-5-3.39-3.35-6.64-6.84-10.15-10.06-8.4-7.73-19.7-8.79-29.29-2.65C8.93,28,5.22,38.08,8.13,49c2.46,9.24,8.74,15.3,17.9,17.4C30.77,67.48,36,66.59,41.6,66.59Z"/></g></g></svg>