<?xml version="1.0" encoding="UTF-8"?><svg id="Layer_2" xmlns="http://www.w3.org/2000/svg" viewBox="0 0 709.42 845.45"><defs><style>.cls-1{fill:#fff;}</style></defs><g id="Layer_1-2"><g><path class="cls-1" d="M704.15,507.65c-4.53,5.38-8.69,11.15-13.73,16.01-3.12,3.01-3.26,5.74-1.31,8.61,3.1,4.55,6.79,8.7,10.25,13.01,.2,.25,.64,.34,.78,.61,3.56,6.62,6.5,13.54,4.8,21.17-1.17,5.23-5.37,7.78-10.85,7.54-3.26-.14-5.74,.65-8.49,2.79-2.53,1.97-6.44,2.18-10.25,3.32-2.64,12.88-5.8,15.8-14.3,12.38-4.83,9.12-13.47,9.76-20.31,2.19-4.9-5.43-10.79-9.97-16.86-15.48,1.53,3.75,2.8,6.97,4.15,10.15,6.81,16.08,4.71,31.51-3.22,46.58-.56,1.07-.52,2.47-.62,2.97-4.2,4.26-8.2,8.25-12.13,12.31-15.92,16.46-34.76,27.11-57.92,29.23-.83,.08-1.8,.49-2.46,.2-7.04-3.14-11.25,2.15-16.28,5.21-5.91,3.59-11.95,6.96-17.97,10.37-1,.57-2.49,.57-3.17,1.35-6.06,6.92-14.68,6.06-22.51,7.7-7.31,1.54-14.56,3.37-21.77,5.32-1.12,.3-1.88,1.92-2.8,2.94-1.94,.06-4.07-.39-5.77,.28-7.1,2.82-14.12,5.85-21.07,9.02-10.39,4.74-18.55,12.04-22.06,23.08-2.2,6.92-6.32,10.59-13.01,12.09-1.35-.09-3.4-.79-3.94-.17-3.03,3.49-5.82,7.21-8.41,11.05-.61,.9-.09,2.57-.09,4.1,3.11-2.83,5.29-4.81,7.47-6.79-1.66,3.33-3.32,6.66-4.98,9.99-1.2-.43-2.4-.86-2.23-.79-5.13,5.77-9.96,11.23-14.83,16.67-1.08,1.2-2.51,2.16-3.35,3.5-5.35,8.62-10.77,17.2-15.79,26.01-6.5,11.41-14.98,19.02-29.2,17.26-1.36-.17-3.06,.22-4.2,.96-20,13-50.37-.33-56.58-24.93-3.7-14.65-3.36-28.97,.73-43.36,.22-.77,.22-1.6,.39-2.86-6.27-1.12-12.37-2.22-18.47-3.31,.05-.37,.11-.74,.16-1.11,6.32,.96,12.63,1.91,18.99,2.88,3.09-6.47,5.58-13.05,9.23-18.92,3.65-5.87,8.45-11.03,12.97-16.78-17.84-9.87-36.02-19.42-56.27-24.13-6.3-1.47-12.76-2.31-19.17-3.26-4.34-.64-8.07-1.91-11.68-4.84-3.78-3.06-8.75-4.64-13.16-6.94-2.62-1.37-5.57-2.44-7.68-4.4-6.49-6.04-14.93-5.73-22.7-7.59-6.77-1.62-13.65-2.85-20.31-4.81-3.23-.95-6.09-3.19-9.11-4.85,.18-.38,.36-.77,.54-1.15,1.4,.57,2.85,1.04,4.21,1.71,8.31,4.13,17.22,5.85,26.34,6.88,3.26,.37,5.51-.73,6.98-3.57,1.98-3.83,3.94-7.66,5.89-11.46-6.99-9.99-7.05-13.2,.64-20.3-.18,1.49,.07,3.24-.63,4.42-2.14,3.64-3.34,6.77,1.6,9.15,1.13,.55,1.82,1.97,2.92,2.66,3.44,2.17,2.69,4.31,.37,6.84-2.69,2.92-5.15,6.04-8.19,9.65,9.85,5.47,19.2,.38,28.3,.99,10.82,.72,15.86-7.95,22.62-13.91,.29,.37,.58,.73,.88,1.1-2.66,3.29-5.62,6.39-7.92,9.92-2.94,4.51-7.38,5.18-12.02,5.66-7.93,.83-15.87,1.58-23.84,2.91,15.17,3.1,30.57,3.41,46.05,4.21-7.35,.84-14.71,1.67-22.06,2.51l-.15-1.22,6.97-.71v-.46c-8.98-.51-17.95-1.02-27.56-1.57,5.58,5.96,12.38,6.44,19.34,6.21,6.8-.23,13.59-.66,20.48,.06-7.76,.87-15.52,1.75-22.97,2.58,6.8,6.95,16.12,8.1,25.4,9.27,18.82,2.38,36,9.31,52.29,18.73,4.32,2.5,8.63,5.06,13.15,7.16,1.29,.6,3.58,.16,4.91-.64,4.36-2.62,8.32-5.94,12.76-8.39,5.28-2.92,6.91-7.44,7.85-12.97,.78-4.6,1.65-9.75,4.27-13.37,5.2-7.17,11.63-13.46,17.67-20.24-28.65-7.33-46.74-29.59-65.96-50.16-9.77-10.45-19.92-20.22-32.49-27.22-13.59-7.56-27.19-4.4-41.17-.7,3.46,6.34,7.2,11.73,9.42,17.69,2.36,6.34,3.28,13.22,4.83,19.87-.38,.18-.77,.36-1.15,.54-1.24-1.96-2.47-3.92-4.04-6.4-3.54,3.32-7,6.56-10.46,9.8-.29-.11-.58-.23-.87-.34,.79-1.84,1.31-3.87,2.44-5.47,1.22-1.74,2.87-3.28,4.58-4.57,4.57-3.44,4.28-7.52,2.55-12.38-5.25-14.77-16.04-24.7-28.75-32.71-8.68-5.47-17.95-10-27.01-14.85-.89-.48-2.33,.08-3.23-.39-1.19-.64-2.1-1.82-3.12-2.76,.42-.67,.83-1.33,1.25-2,9.77,4.56,19.58,9.04,29.3,13.71,3.08,1.48,5.91,3.48,8.86,5.24,4.35,4.37,8.69,8.75,13.01,13.11,9.58-5.44,19.49-6.37,29.8-5.87-6.8-1.11-13.59-1.29-20.38-1.5-1.36-.04-3.38,.39-3.98-.32-5.51-6.67-8.27-7.8-15.7-5.83-.95,.25-1.94,.38-2.91,.56,7.21-5.93,15.85-6.39,24.49-5.79,8.95,.61,17.07,3.84,24.52,9.05,2.08,1.45,5.35,1.19,8.07,1.71,.23-.62,.47-1.24,.7-1.87-10.58-6.34-21.17-12.68-31.75-19.02l.09-.43c1.62,.55,3.37,.85,4.83,1.68,9.68,5.47,19.39,10.89,28.88,16.69,2.58,1.58,4.14,1.84,7.06,.55,4.53-2.01,9.62-2.74,14.78-4.1-13.94-15.31-27.2-32.4-51.38-33.08-3.44-.1-7.02-1.29-9.32,2.66-.24,.41-1.6,.17-3.92,.34,6.54-5.19,5.93-10.44,2.85-15.76-4.18-7.22-8.54-14.33-13.2-22.11,1.95,1.28,4.15,2,5.17,3.51,4.9,7.25,9.48,14.71,14.43,22.49,.32,0,1.71,0,1.65,0,2.41-1.34,3.79-2.6,5.34-2.87,4.86-.85,5.16-4.17,4.3-8.56,1.6,.57,2.53,.91,4.03,1.44-.23-2.79,.28-5.57-.75-7.56-3.74-7.19-7.9-14.17-12.09-21.12-10.52-17.46-29.95-25.97-48.79-21.58,9.03,3.14,18.17,6.31,28.33,9.85-4.16-2.55-7.54-4.63-10.66-6.54,12.68,1,36.64,25.24,38.91,38.41-7.36-7.27-15.43-15.6-23.93-23.47-3.12-2.89-7.24-4.69-10.92-6.95-.5-.31-1.11-.43-1.96-.27,14.96,10.32,28.03,22.26,35.46,39.34-3.7-4.83-7.4-9.66-11.11-14.49-.19,.11-.38,.22-.57,.33,1.71,3.78,3.41,7.55,5.12,11.33-.25,.11-.5,.21-.76,.32-5.17-7.09-10.35-14.18-15.52-21.27-.24,.16-.49,.31-.73,.47,5.43,8.61,10.85,17.22,16.28,25.83-.46,.35-.92,.7-1.39,1.05-13.63-21.45-29.22-40.93-52.33-53.25-1.22,1.77-2.21,3.2-3.17,4.58,4.82,2.04,9.9,3.66,14.41,6.26,4.42,2.54,8.68,5.68,12.24,9.31,3.29,3.35,7.63,6.42,8.02,12.22-4.37-4.75-8.05-1.03-11.83,.42-.31-.42-.62-.83-.94-1.25,1.8-1.38,3.61-2.77,5.87-4.51-3.92-3.26-7.36,2.29-12.1,.52,3.2-1.56,5.57-2.72,8.14-3.98-7.9-8.87-18.15-12.82-29.06-15.45-.8-.19-1.98,.6-2.81,1.19-2.92,2.1-5.59,4.58-8.65,6.43-5.41,3.26-10.92,6.41-16.62,9.12-6.26,2.98-12.78,5.39-19.17,8.09-.97,.41-1.85,1.06-3.1,1.78-1.05-.69-2.52-1.65-5.16-3.39,5.16,7.94,9.56,14.72,13.96,21.49-.09,2.98-.12,6.38,4.28,4.89,7.08-2.4,14-5.28,20.93-8.11,.81-.33,1.23-1.6,1.57-2.06-9.17,1.84-18.05,3.63-26.94,5.42,5.26-1.33,10.54-2.59,15.77-4.03,2.82-.77,5.56-1.85,8.63-2.88-.42-1.14-.64-1.7-.84-2.27q-2.43-6.68,3.75-9.81c3.33-1.69,6.63-3.42,9.94-5.14,.21,.39,.43,.79,.64,1.18-3.35,1.83-6.58,3.94-10.08,5.41-4.14,1.74-4.66,4.09-2.82,6.88,1.64-1.31,3.05-2.93,4.82-3.74,4.93-2.26,10.03-4.16,15.02-6.29,.59-.25,1-1,1.39-1.59,1.85-2.84,4.55-2.22,5.67-.15,2.17,3.98,5.51,3.72,9,3.84,.79,.03,1.58,.23,2.66,.39-6.28,4.24-8.53,3.68-12.87-2.58-6.49,2.95-13,5.72-19.26,8.94-1.13,.58-2.12,3.25-1.77,4.57,1.07,4.03-.34,5.59-4.12,6.78-6.6,2.07-13,4.77-20.19,7.47,5.08,7.79,3.78,15.7,3.35,23.53l.1-.05c-.51-2.38-1.18-4.74-1.5-7.15-.68-5.06-1.17-10.15-1.74-15.23-.65,.1-1.3,.19-1.95,.29,.35,1.84,.65,3.7,1.06,5.52,1.35,5.99,1.46,11.87-1.39,17.53-1.53,3.04-1.25,5.13,1.56,4.92-11.76,8.39-22.23,18.86-24.57,34.88-2.29,15.66,2.34,29.78,12.45,42.61-6.59-1.84-13.94-17.55-15.3-30.29-1.28-11.98,2.31-22.61,7.13-33.48-1.16,1.56-2.33,3.1-3.46,4.67-1.93,2.68-3.52,5.68-5.79,8.02-5.97,6.18-12.37,5.13-16.49-2.42-8.81,1.47-13.77-2.42-15.02-11.67-2.91-.44-5.8-.89-9.22-1.41-1.07,1.26-2.45,3.11-4.06,4.75-4,4.08-10.49,5.45-15.04,3.3-4-1.89-7.48-8.96-6.79-14.07,1.45-10.68,3.68-20.82,10.46-29.97,3.51-4.74,3.91-11.79,5.68-17.69,5.55-.22,11.88-2.16,16.47-6.96,5.58-5.83,11.93-9.21,19.84-8.72,7.38,.45,14.7,1.77,22.07,2.7-.24-2.94,1.65-4.13,5.46-3.44,1.99,.36,4.09,.44,4.87-2.64,.34-1.37,2.48-2.47,4.01-3.32,3.59-2,7.3-3.78,11.48-5.91-1.72-1.85-2.99-3.21-4.26-4.58,4.81,5.61,9.31,2.03,14.05-.11,2.25-1.02,4.95-1.02,8.08-1.6,1.48-4.35,2.92-5.06,7.3-3.53,4.61-2.56,8.56-4.76,12.49-6.94-3.02-5.83-.74-11.72,.15-17.42,1.69-10.82,4.12-21.53,6.19-32.29,.21-1.11,.41-2.47-.01-3.43-4.3-9.72-.59-18.79,2.07-27.96,.31-1.08,.1-2.31,.34-3.43,.71-3.32,1.62-6.6,2.26-9.94,.72-3.74,3.59-7.57-2.23-10.53-4.29-2.18-2.6-11.96,1.99-14.7,1.21-.72,2.76-1.55,3.24-2.71,3.98-9.65,7.75-19.38,11.59-29.1-9.01-3.66-14.89,.09-17.61,11.8-4.64-8.8-1.43-23.03,6.53-29.1,2.38-1.81,4.79-3.61,6.98-5.64,3.68-3.4,4.49-10.35,1.71-13.04-3.45-3.34-8.02-2.67-12.5,1.78-.31,.31-.85,.4-2.74,1.24,1.72-3.65,3.23-6.09,4.01-8.74,.67-2.26,1.6-5.71,.5-6.97-2.4-2.75-6.31-2.55-8.98-.02-2.25,2.13-3.66,5.16-6.04,8.69,.27-2.33,.43-3.83,.63-5.33,.44-3.29,1.39-6.61,1.23-9.87-.27-5.4,1.74-8.8,6.15-12.03,3.08-2.25,5.31-6.32,6.66-10.03,.64-1.78-1.65-4.62-3-7.94-1.73,2.12-2.66,2.87-3.09,3.84-2.15,4.92-6.17,6.3-11.14,7.08-4.1,.64-8,2.59-12.54,4.16,1.53-2.53,3.28-5.42,5.05-8.31,1.34-2.2,3.68-4.31,3.86-6.6,.58-7.42,4.22-12.79,9.71-17.27,1.29-1.05,2.66-2.01,3.98-3.02,5.51-4.23,5.26-4.56-.2-8.25-4.34-2.93-8.25-6.61-11.95-10.35-1.24-1.25-1.23-3.74-1.91-6.08,4.52,1.21,8.03,2.15,11.54,3.1l.87-1.89c-2.37-1.51-4.63-3.22-7.12-4.48-4.81-2.43-7.66-6.29-8.99-11.37-2.33-8.87-5.18-10.48-13.72-7.63,2.5-8.26,12.09-11.08,18.08-4.98,4.67,4.75,10.08,7.27,16.48,8.03-1.4-4.72-2.78-9.33-4.15-13.95,.42-.11,.85-.21,1.27-.32,2.26,1.46,4.41,3.2,6.85,4.26,1.07,.47,3.07-.05,4.01-.86,.61-.52,.19-2.41,0-3.65-.56-3.55-1.87-7.11-1.74-10.62,.32-8.09-5.44-12.29-13.01-9-.56,.24-1.09,.53-2.18,.21,2.17-3.11,4.09-6.44,6.56-9.29,6.26-7.21,13.83-8.64,22.49-4.75,2.77,1.24,5.68,2.19,9.33,3.57-.8-4.02-1.37-6.92-2.15-10.84,2.66,.92,4.15,1.44,5.43,1.88,7.05-3.93,3.99-10.66,4.16-16.18,.16-5.3-8.62-8.73-13.95-5.58-2.96,1.75-5.3,4.56-7.76,6.74,6.01-20.58,22.58-26.97,37.59-16.43,1.77,1.24,4.57,1.01,6.89,1.46,.29-2.08,.63-4.16,.84-6.26,.08-.81-.24-1.64-.22-2.46,.14-7.67-3.31-10.66-10.93-9.42l-.4-1.15c4.54-1.62,9.08-3.24,13.85-4.94-5.03-5.68-1.93-12.37,.83-19.44,3.69-9.45-.25-14.71-12.41-16.84,6.25-3.1,12.09-5.31,18.53-4.58,9.3,1.05,14.87,7.55,14.69,17-.06,3.48-.91,6.94-.99,10.42-.05,2.24,.09,4.82,1.17,6.65,.77,1.3,3.24,1.59,4.95,2.33,.49-1.56,1.26-3.1,1.39-4.7,.1-1.25-.45-2.62-.93-3.85-4.23-10.84,2.36-20.38,11.78-25.25-4.94,9.07-3.92,15.89,3.1,20.77,5.01,3.49,7.8,2.4,9.27-3.52,.45-1.81,1.16-3.55,1.97-6.02,1.88,1.64,3.06,2.67,4.57,3.98,.85-1.51,1.65-2.94,2.69-4.79,1.88,1.08,3.54,2.02,5.41,3.09,3.25-2.39,5.28-5.16,4.59-9.59-1.1-7.04,3.7-11.3,7.76-15.96,1.17-1.34,1.56-3.35,2.73-6.03,.38,.06,2.21,.36,4.7,.77-2.81,6.87-1.59,11.96,3.99,16.35,1.93,1.52,2.14,5.23,3.6,9.21,2.76-.89,9.11-1.61,9.37-3.27,.57-3.71-1.9-7.88-3.04-11.57,4.34,1.26,9.94,2.88,15.61,4.53,.44-2.81,.84-5.33,1.41-8.92,1.91,2.03,3.07,3.25,4.47,4.73,4.69-15.93,17.45-21.04,31.04-24.54-2.8,4.42-6.4,8.61-8.27,13.46-2.18,5.65,.29,10.73,5.55,14.74,1.82-1.15,3.85-2.43,6.26-3.96,.57,1.6,1.03,2.9,1.58,4.44,7.76-1.54,13.43-5.33,15.37-13.45,.73-3.07,1.31-6.18,1.99-9.26,1.48-6.68,4.59-8.67,10.75-7.82,.77,5.09,1.68,9.8,2.15,14.54,.45,4.66,.71,9.38,.54,14.05-.1,2.86,1.96,5,5.05,3.66,2.66-1.15,5.04-3.16,7.23-5.13,9.85-8.87,20.15-8.87,30.05,.15,1.91,1.74,3.83,3.48,5.43,5.96-2.58-.62-5.15-1.24-7.74-1.84-2.81-.66-4.43,.33-6.02,2.94-2.11,3.44-5.14,6.32-7.77,9.44,2.82,3.83,4.16,3.88,6.88,.25,3.51-4.69,7.37-5.53,12.63-3-1.68,4.13-3.35,8.2-5.17,12.66,3.18,2.17,6.78,3.28,10.06,.23,9.45-8.79,18.84-7.46,28.35-.36,2.84,2.12,5.45,2,8.09-.21,5.04-4.23,4.31-4.24,13.51-1.03-2.72,.98-4.31,1.83-6,2.1-3.32,.54-5.58,2.04-6.24,5.48-.9,4.69-3.8,6.1-8.37,5.67-2.16-.2-4.79,.13-6.52,1.27-1.21,.8-1.87,3.49-1.57,5.1,.16,.88,2.83,1.69,4.41,1.8,1.58,.11,3.25-.59,4.83-1.1,8.53-2.73,15.71-.66,21.64,5.99,1.44,1.61,2.8,3.31,4.34,4.81,3.75,3.67,8.54,4.23,13.31,1.68,5.3-2.83,7.42-6.67,6.63-12.04-1.42-9.69,5.33-15.02,16.91-13.31,1.1,.16,2.15,.64,3.1,1.46-1.27,0-2.55-.04-3.82,0-6.69,.24-9.12,4.17-6.56,10.37,1.51,3.66,3.29,7.31,4.09,11.14,1.56,7.46-3.02,12.99-10.71,13.6-3.64,.29-7.31,.37-10.93,.86-1.57,.21-3.36,.87-4.46,1.94-1.07,1.04-2.09,3-1.82,4.28,.23,1.12,2.21,2.45,3.56,2.65,4.76,.7,9.59,.88,14.37,1.39,9.69,1.02,15.7,6.56,18.75,15.57,1.28,3.78,2.41,7.6,3.64,11.39,1.37,4.19,3.59,7.59,8.44,8.09,4.86,.5,8.28-1.8,10.71-5.85,.5-.83,1.05-1.63,2.31-3.59-.8,6.83-3.39,10.99-8.25,13.56-4.43,2.34-8.33,.77-11.99-2.08-4.33-3.38-8.65-6.79-13.14-9.95-4.16-2.93-8.65-4.55-13.73-1.68,6.55,1.02,10.55,5.07,13.58,10.22-3.41-.18-6.69-.36-9.36-.5,1.87,4.92,3.46,9,4.97,13.12,1.59,4.34,8.46,7.92,13.84,6.5,4.57-1.21,8.92-3.28,13.34-4.96,2.17,10.4-4.36,17.54-14.99,16.17-.83-.11-1.79-.47-2.46-.18-1.73,.75-3.33,1.81-4.99,2.74,1.19,1.83,2.44,5.27,3.57,5.22,10.5-.39,11.65,7.55,13.71,14.69,2.56,8.84,4.34,9.62,11.74,4.15,3.24-2.4,6.02-5.43,9.15-8.3,2.41,7.94-8.84,21.45-18.31,17.82-2.46-.94-4.86-2.19-7.08-3.62-4.35-2.81-8.01-1.61-8.4,3.39-.26,3.37,.05,7.12,1.32,10.19,1.59,3.81,5.26,5.53,9.52,4.44,2.56-.65,5-1.8,7.45-2.83,8.87-3.7,14.31-.29,15.19,9.95-1.28-1.05-2.34-1.93-4.09-3.37-.67,1.67-1.46,2.87-1.6,4.13-.76,7-.7,7.01-8.72,7.65,1.27,1.34,2.3,3.18,3.85,3.92,2.51,1.2,5.47,1.44,8.05,2.53,8.21,3.47,10.5,9.85,6.37,17.78-1.28,2.45-3.11,4.61-5.28,7.76,0-2.43,.07-3.81-.01-5.18-.28-4.39-2.45-6.38-6.83-5.9-2.12,.23-4.27,.82-6.24,1.65-7.59,3.21-13.92,1.21-19.59-4.27-1.08-1.04-2.5-1.72-3.5-2.39,.59,5,1.3,9.61,1.64,14.24,.68,9.32,4.06,12.82,16.54,16.42-8.26,1.82-14.82-.79-20.31-6.77-3.31,9.2,.05,16.57,8.16,18.6,12.71,3.19,13.89,7.77,4.53,17.57-.97-2.43-1.29-5.82-3.08-7.03-2.02-1.36-5.37-.78-8.14-1.02-2.16-.19-4.35-.16-6.46-.57-2.06-.4-4.04-1.23-6.19-1.92q.77,5.21,14.05,11.92c-6.17,2.94-11.82,1.06-17.47-.37-.37,.4-.75,.79-1.12,1.19,2.96,3.11,5.93,6.22,8.93,9.37-.64,.43-1.48,1-2.66,1.79,4.22,5.68,13.02-.29,15.72,6.04-5.63,1.93-11.32,3.88-17.22,5.9,1.99,6.01,3.58,11.04,5.38,15.99,.34,.93,1.44,1.71,2.37,2.27,6.25,3.76,6.48,10.46,1.65,16.18-1.71,2.03-1.2,6.31-.96,9.51,.28,3.77,1.27,7.5,2.13,11.2,.73,3.15,1.88,6.21,2.51,9.38,.75,3.75,1.45,7.55,1.61,11.36,.11,2.68-.73,5.39-1.12,8.09-.21,1.43-.73,2.94-.48,4.29,2.58,13.82,5.45,27.58,7.83,41.43,.44,2.59-.97,5.49-1.71,9.14,1.87,.62,4.24,1.34,6.56,2.19,.75,.27,1.68,.72,2.01,1.35,2.89,5.55,8.54,7.07,13.55,9.59,4.3,2.17,8.49,4.58,12.69,6.95,7.83,4.42,15.68,8.62,25.19,7.89,1.22-.09,2.6,1.85,4.58,3.36,5.59-3.14,12.49-2.4,19.94-1.01,6.56,1.23,13.61,.47,20.38-.16,8.76-.82,8.61-1.08,13.13,6.3,1.79,2.92,4.23,5.43,6.8,8.66,5.68-5.81,11.29-11.53,16.89-17.26l-.1-.1Zm-270.46,79.59c-.83-.15-2.16-.7-2.42-.38-3.23,3.96-6.31,8.05-9.6,12.34,2.46-2.06,4.57-3.83,6.67-5.6-6.37,11.9-12.74,23.81-19.13,35.7-.12,.21-.44,.32-.79,.56-.1-.55-.18-1.01-.27-1.46-.09-.45-.18-.89-.08-.41-2.24,.12-4.21,.23-6.19,.34l-1.16-1.84c9.31-13.92,17.43-28.88,28.27-41.48,10.64-12.36,24.08-22.32,36.26-33.37,1.56-1.41,2.89-3.08,4.32-4.63-.27-.32-.54-.64-.8-.97l-3.71,.52c.12-2.64,.23-4.99,.36-7.88-7.5,5.51-14,10.32-20.55,15.06-3.75,2.72-8.84,3.81-10.43,9.15-.28,.94-2.08,1.49-3.24,2.08-2.6,1.32-5.67,2.05-7.81,3.89-12.22,10.55-24.28,21.29-36.23,32.13-1.75,1.59-2.66,4.1-3.41,5.29-2.22,1.11-3.78,1.89-5.34,2.67l-.95-.76c8.65-9.04,16.79-18.65,26.11-26.94,9.08-8.08,19.36-14.8,29.44-22.36-1.55,.33-2.83,.61-4.1,.88-.42-1.01-.82-1.94-1.13-2.69-8.62,2.22-16.81,4.33-25.14,6.47-.65,6.97-2.68,8.77-10.67,8.97-3.33,.09-5.69-1.02-5.78-6.17,2.58,6.03,6.03,2.37,8.79,2.13,1.68-.15,3.2-2.17,4.79-3.35-3.55-.38-7.95,1.23-8.8,.12-3.46-4.5-6.52-.72-9.77-.65-12.14,.25-24.29,.31-36.43,.1-4.67-.08-9.33-1.09-13.87-1.66-1.38,.68-3.16,2.18-5.06,2.34-2.23,.2-4.56-.76-6.85-1.21-.19,.37-.38,.75-.58,1.12,1.48,1.09,2.84,2.46,4.48,3.2,1.59,.72,3.46,.82,6.38,1.43-8.72,2.67-10.11,1.88-13.75-6.26-10.41-2.85-20.41-5.59-30.41-8.33l-.34,.68c.78,.64,1.57,1.29,2.33,1.91-1.08,.45-2.05,.85-3.88,1.61,3.63,2.17,5.38,3.2,8.24,4.91-4.79,.32-7.68-.17-9.13-3.96-.32-.84-.8-1.8-1.5-2.28-9.07-6.25-18.19-12.43-28.08-19.15,.2,2.6,.4,5.09,.58,7.48-1.27-.07-2.79-.15-4.31-.23-.15,.43-.3,.86-.45,1.3,5.5,4.86,10.99,9.73,16.49,14.59-.44,.61-.88,1.22-1.32,1.82-6.19-2.45-10.11-10.11-14.04-9.45,7,8.14,15.49,18.01,24.8,28.84-1.56,.33-3,1.12-4.11,.79-6.96-2.03-13.61-2.23-20.01,2.17,3.67,6.72,8.77,.07,12.54,1.7-2.49,1.37-5.11,2.8-8.32,4.57-3.09,.44-7.16,1.02-11.18,1.58,2.67-1.04,5.35-2.08,8.02-3.12l.37-1.33-12.99-3.19c-.35,.63-.71,1.25-1.06,1.88,1.91,1.92,3.81,3.83,5.72,5.75,1.67,.71,3.41,1.28,4.99,2.15,11.95,6.52,20.39,16.96,29.46,26.66,6.57,7.03,12.57,14.65,19.58,21.19,7.07,6.59,15.08,12.18,22.68,18.21,.41-.53,.81-1.06,1.22-1.58-.71-.51-1.56-.91-2.12-1.55-1.4-1.62-4.17-4.08-3.76-4.91,2.75-5.62-.78-9.92-2.36-14.61-1.14-3.36-2.53-6.63-3.81-9.94l1.13-.42c2.27,5.17,4.54,10.34,6.81,15.51l1.53-.7c-2.21-5.4-4.41-10.8-6.69-16.37,6.84,1.02,9.69,12.33,7.26,27.34,7.12,4.06,9.25,3.44,11-4.24,.69-3,0-6.5-.74-9.61-2.34-9.73-5-19.39-7.54-29.07,6.78,11.01,9.09,23.38,11.95,35.59l.1-.11c-1.74,2.66,1.49,6.45-2.08,8.82-.79,.53-.67,2.27-1.4,3.07-2.88,3.17-.92,4.54,1.88,5.84,3.58,1.67,7.1,3.45,10.65,5.18-.13,.24-.26,.49-.38,.73-1.06-.15-2.12-.31-3.82-.55,4.69,3.48,8.88,4.71,13.76,1.88,7.06-4.09,14.76-1.74,22.2-1.64,.7,0,1.38,1.11,2.77,2.3-2.63,.93-4.66,1.45-6.51,2.34-2.29,1.11-4.43,2.52-6.63,3.81-.71,.03-1.43,.07-2.14,.1-1.78,.71-4.34,.92-5.21,2.23-3.16,4.77-6.6,9.63-8.4,14.97-3.73,11.12,2.48,17.9,14.25,17.37,13.47-.6,26.62,.5,37.63,9.94,6.11,5.24,8.28,11.81,7.92,19.57-1.28-1.81-1.94-3.86-2.56-5.92-.56-1.88-.66-4.05-1.7-5.6-4.39-6.54-10.24-11.86-18-13.28-8.43-1.55-17.15-1.65-25.75-2.14-1.08-.06-2.45,1.16-3.32,2.13-3.37,3.73-6.58,7.6-9.88,11.44,2.93-4.54,5.87-9.08,8.67-13.42-2.38-1.4-4.19-1.97-5.27-3.18-9.36-10.52-3.32-31.65,10.27-36.15,4.45-1.48,8.95-2.82,14.2-4.47-11.18-2.2-20.15-.09-27.33,7.94-1.88,2.11-4.07,3.95-5.96,6.04-7.56,8.38-10.94,18.52-13.21,29.73h6.7c-5.13,1.93-9.42,4.76-13.76,7.51-14.67,9.28-24.58,22.56-31.79,38.02-7.26,15.56-10.6,31.87-7.74,48.99,1.7,10.2,5.49,19.23,16.2,23.4,8.71,3.39,17.72,3.17,27.94,2.86-14.12-7.18-17.42-19.27-18.05-32.49-.61-12.81,5.33-31.36,10.58-35.06-2.26,6.4-4.92,12.82-6.79,19.46-3.62,12.86-2.54,25.32,4.17,37.14,5.14,9.04,16.67,11.42,24.32,9.59,6.85-1.64,11.42-7.15,15.07-13.08,3.22-5.23,6.29-10.56,9.44-15.84,2.22-3.72,4.45-7.43,7.17-11.98-10.63,4.09-20.88-.65-24.5-11.11,2.87,2.6,5.22,4.53,7.33,6.68,6.2,6.32,9.76,6.86,17.38,2.37,3.12-1.84,4.34-4.13,2.71-7.86-3.83-8.76-9.79-15.78-16.92-21.95-2.52-2.19-5.02-4.4-7.53-6.6,.26-.35,.53-.71,.79-1.06,1.72,1.13,3.62,2.06,5.14,3.41,5.34,4.75,10.51,9.69,15.85,14.43,.72,.64,2.11,.53,3.19,.77-1.2,5.21,7.52,8.86,2.31,14.71,.25,.19,.51,.38,.77,.56,12.44-13.04,13.56-12.52,5.33-25.8-6.44-13.71-16.97-23.05-31.06-28.22-2.38-.87-5.46,.18-8.22,.33-.28,.01-.56-.11-.99-.2,.36-.89,.71-1.74,1.09-2.67-1.06-.34-1.98-.64-2.73-.89,1.83-.71,3.6-1.39,5.36-2.08,.61,.83,1.08,2.21,1.85,2.41,13.71,3.45,24.31,11.26,32.2,22.83,2.92,4.29,5.49,8.83,8.34,13.46,6.14-7.78,12.12-15.35,18.1-22.92l1.23,.89c-1.75,2.81-3.51,5.62-5.57,8.92,5.94,.35,7.99-3.36,8.94-7.4,.9-3.81,.72-7.87,1.02-11.83,.36-.02,.71-.04,1.07-.05,.29,3.12,.57,6.24,.92,10.09,1.07-1.7,1.99-2.69,2.38-3.85,2.49-7.36,7.99-12.53,14.04-16.41,16.18-10.39,33.52-18.3,52.67-21.78,11.35-2.06,23.51-1.79,32.22-10.53-3.38-.23-7.34-.38-11.27-.81-3.92-.43-7.81-1.13-11.72-1.71,13.11-1.7,27.21,4.46,39.89-6.16-10.29,.61-19.47,1.15-28.65,1.69v.41l7.11,.73c-.05,.4-.09,.8-.14,1.2-7.02-.8-14.05-1.6-21.07-2.4,15.13-.86,30.1-1.35,44.85-4.18-9.46-1.66-18.87-2.76-28.26-4.02-3.9-.52-14.79-11.39-15.37-15.15-.12-.79-.02-1.68,.21-2.45,2.02-6.5,3.84-13.08,6.23-19.45,2.32-6.19,7.11-12.06,7.43-18.24,.39-7.54,3.57-13.26,6.72-19.34,1.35-2.61,3.21-4.96,5.31-8.16-14.55-4.14-28.27-6.94-42.02,.56-11.88,6.49-21.1,16.06-30.49,25.54-12.04,12.17-24.4,24.02-36.67,35.96-.93,.9-2.23,1.42-3.36,2.12-.29-.36-.57-.73-.86-1.09,1.75-1.87,3.45-3.79,5.27-5.59,9.29-9.21,18.73-18.27,27.87-27.62,5.93-6.06,10.94-13.11,17.32-18.61,5.91-5.1,13.09-8.74,19.67-13.04,1.85-1.97,3.7-3.94,5.55-5.9-.34-.56-.68-1.11-1.03-1.67-4.32,1.07-8.65,2.15-12.97,3.22,.15,.42,.3,.83,.45,1.25,2.72,1.04,5.43,2.08,8.15,3.13-4.89-.35-9.79-.69-14.22-1.01,0,0,.57-1.06,1.42-2.63-6.74-.97-13.06-4.08-19.11-.29-2.09,1.31-2.84,4.77-4.57,7.94,.23,.05-.97-.22-2.37-.54,1.26-2.34,2.38-4.44,3.92-7.31-4.6,1.31-8.35,2.37-12.1,3.44,1.88-2.22,3.75-4.44,5.63-6.67-.17,.76-.34,1.52-.69,3.11,3.89-1.37,7.15-2.52,10.42-3.67l-.46-1.41c-1.58,.22-3.17,.33-4.72,.67-1.56,.34-3.07,.9-4.63,1.4ZM258.51,226.83c2.23,1.59,4.46,3.17,7.19,5.11v-9.52c-2.37-.31-4.59-.6-7.14-.94,0,2.15,0,3.76,.04,5.43,.21,2.93,.42,5.86,.63,8.79-.33,2.04-1.47,4.4-.83,6.06,2,5.13,4.68,10,7.1,14.97,.56-6.15,1.97-12.28-3.89-16.54-1.3-.94-1.73-3.08-2.56-4.67,2,2.22,3.99,4.44,6.44,7.16,.99-5.27,.44-8.69-3.57-11.16-1.52-.94-2.28-3.09-3.39-4.69Zm201.53,0c-1.42,1.79-2.65,3.77-4.28,5.34-3.82,3.66-3.9,3.58-2.71,9.37,2.1-1.99,4.19-3.99,6.29-5.98-1.28,2.08-2.49,4.2-3.85,6.22-.95,1.41-2.79,2.55-3.05,4.02-.6,3.46-.49,7.04-.67,10.57,3.25-4.17,5.98-8.5,7.8-13.19,.81-2.11-.22-4.93-.42-7.42,.3-2.98,.59-5.95,.89-8.93-.12-1.72-.24-3.43-.38-5.44-2.77,.36-4.86,.64-6.92,.91v9.52c2.7-1.84,5-3.41,7.29-4.97Zm14.45-17.75v5.66c4.07-4.41,8.08-8.74,12.15-13.16-3-3.73-5.33,1.08-8.17,1.45l2.73-5.51c5.59,.11,8.92,4.58,13.35,6.93,11.13,5.9,17.47,16.3,21.04,27.25,3.73,11.45,3.2,24.48-5.14,34.2-5.71,6.65-9.19,12.7-8.94,21.6,.09,3.32,.54,4.71,2.98,6.55,6.34,4.8,12.4,9.95,18.56,14.99,.83,.67,1.55,1.47,2.41,2.28,36.17-67.51,25.93-168.68-52.62-229.09-73.17-56.27-181.95-46.93-244.79,21.06-61.92,66.99-56.94,156.86-31.19,202.86,5.32-3.84,10.52-7.98,16.11-11.47,2.83-1.77,3.42-3.57,3.56-6.75,.4-9.08,.9-18.23,2.44-27.17,1.41-8.15,7.33-12.37,15.55-13.05,7.09-.59,14.2-1.01,20.51-1.45,0-4.78,.09-9.4-.05-14-.05-1.77-.02-4.09-1.06-5.18-3.87-4.07-4.28-8.85-3.68-13.92,.34-2.81-.5-4.63-3.23-5.47,1.08-.19,3-.18,3.1-.6,1-4.29,1.7-8.65,2.48-13-5.45,3.57-5.71,8.58-5.41,13.76-.34-2.87-1.15-5.77-.93-8.59,.37-4.71,1.62-9.35,2.1-14.06,.47-4.63,.39-9.32,.67-13.97,.64-10.86,1.11-21.73,2.25-32.54,.2-1.85,3.11-4.21,5.21-4.8,1.53-.43,3.78,1.64,5.7,2.59-1.07,2.01-2.07,4.07-3.23,6.03-1.01,1.69-3.06,3.22-3.18,4.92-.83,11.71-1.27,23.45-1.83,35,2.75-4.47,5.41-8.89,8.16-13.24,1.28-2.03,3.14-3.76,4.1-5.92,16.97-38.23,49.84-62,90.67-63.16,32-.91,59.38,11.81,79.09,37.46,10.88,14.15,19.42,30.1,28.36,44.2-.46-10.04-.96-21.66-1.55-33.27-.15-2.88-1.03-5.07-4.18-6.52-3.46-1.59-3.61-6.26-.46-7.52,1.88-.75,4.88-.75,6.44,.31,1.5,1.02,2.03,3.76,2.52,5.86,.31,1.3-.48,2.83-.37,4.22,.91,10.94,2.53,21.87,2.72,32.82,.16,9.39,.28,17.87,11.92,20.02-3.29-.51-6.58-1.03-10.12-1.58,.19,.53,.55,1.1,.58,1.68,.23,4.06,4.47,9.26-3.14,11.24-.38,.1-.57,2.17-.28,3.16,.2,.71,1.31,1.53,2.07,1.59,.71,.06,1.69-.67,2.2-1.33,.77-1,1.23-2.23,1.82-3.36ZM48.11,525.69c6.33,2.69,4.85,9.02,6.53,14.04,3.93-.64,5.57-3.19,5.47-6.9-.06-2.11-.63-4.2-.97-6.29,.97,2.61,1.95,5.22,2.83,7.57,2.94-3.64,3.32-8.48,.69-12.04-2.49-3.38-5.79-3.29-9.29-2.19-.18,.06,0,1.24,0,1.9-1.8,.06-3.72-.23-5.35,.34-.72,.25-.85,2.22-1.25,3.4-1.89-.41-3.77-.82-6.74-1.46,1.74,2.06,2.51,2.97,3.28,3.88-8.3-2.76-9.46-1.9-9.98,7.57,7.17-.21,10.3,5.12,13.43,10.4,6.2-6.46,2.64-10.33-.8-14.85-.87-1.15-1.88-2.19-2.83-3.29,3.35,3.47,6.7,6.95,10.05,10.42,.25-.04,.5-.08,.75-.11-1.95-4.12-3.89-8.25-5.84-12.37ZM505.31,254.89c-2.41-1.38-4.78-2.86-7.25-4.13-2.23-1.15-4.57-2.07-6.86-3.1-.27,.46-.53,.92-.8,1.37,8.97,4.74,9.76,13.8,11.66,22.43,.89-.61,1.33-.85,1.68-1.17,7.81-7.08,7.88-7.9,1.38-15.58,1.48,1.06,3.09,1.97,4.42,3.2,1.89,1.76,2.72,1.36,2.94-1.08,.8-4.96,1.6-9.92,2.41-14.88-.12,.02-.24,.04-.35,.06-.24,1.29-.48,2.58-.72,3.87l-.65-.1c.2-3.26,.4-6.51,.61-9.95-5.74-2.93-11.74-2.01-17.88-1.55-5.71,.42-2.41,4.58-3.33,6.86-.28,.7,1.72,3.02,3.09,3.56,6.1,2.43,11.7,5.43,15.54,11-2.16-1.43-4.36-2.8-6.48-4.3-3.96-2.8-7.85-5.7-12.92-5.94,4.61,3.22,9.05,6.32,13.49,9.42ZM72.22,587.74c-3.02,1.72-2.86,4.1-.37,5.7,2.21,1.42,5.15,4.08,7.58-.11l2.96-.79c-2.47-1.17-4.76-2.25-7.06-3.34,2.08-.22,3.78,1.02,5.35,.88,2.01-.18,4.56-.96,5.72-2.41,1.7-2.12,4.84-4.57,1.8-8.01,1.3-1.75,3.75-3.57,3.63-5.22-.17-2.4-1.82-5.03-3.58-6.83-.69-.71-4.16-.04-5.02,1.05-1.76,2.24-2.76,5.17-1.3,8.2-1.4,.79-3.01,1.34-4.14,2.41-1.79,1.7-3.25,3.74-4.85,5.64,2.26-4.18,5.08-8.18,6.59-12.61,1.08-3.19,1.06-7.12,.34-10.47-.7-3.24-6.21-4.14-7.5-1.24-3,6.74-9.46,9.78-13.98,14.82-.74,.83-.63,2.42-.92,3.65-.64-.56-1.27-1.12-2.18-1.92,1.29,8.2,4.06,11.29,8.55,11.03-1.98-2.82-4.24-6.04-6.51-9.27,1.03,1.22,2.1,2.41,3.09,3.66,3.57,4.57,8.03,3.93,12.69,2.19-.29,.99-.58,1.98-.87,2.97ZM484.26,219.6c-.09,1.41-.65,3.27,1.97,2,.28,4.64,.7,9.16,7.05,9.08-.9,.75-1.81,1.49-3.29,2.71,8.23-.4,15.61-.75,22.86-1.1-3.57-3.13-8.28-3.73-17.07-2.07,5.12-1.01,10.23-2.02,15.72-3.11-1.8-2.97-3.94-6.87-6.5-10.46-.64-.9-2.9-1.48-4-1.08-5.06,1.85-9.98,4.11-14.95,6.22,5.03-3.08,10.06-6.15,15.27-9.34-.56-.2-1.61-.59-2.67-.98-2.45-5.52-8.6-8.87-12.46-6.8-5.94,3.19-8.34,7.28-6.76,9.83-.86,.9-1.55,1.61-2.23,2.33,2.09,1.58,3.31,5.4,7.05,2.77ZM37.44,542.97c-6.21-1.04-12.61,3.27-14.05,9.56-.21,.93-.31,2.11,.07,2.92,2.08,4.5,6.15,3.83,9.93,3.43,4.17-.44,8.64-1.26,9.92-5.88,.48-1.71-1.41-4.24-2.55-6.19-.88-1.5-2.3-2.68-3.49-4.01,2.68,2.15,5.37,4.3,7.76,6.22,.43-3.96-4.4-11.45-8.77-11.91-1.57-.17-3.33,1.5-5.23,2.45,2.88,1.53,4.64,2.47,6.41,3.41Zm287.1,163.8c1.3,1.05,2.6,2.1,3.67,2.97,2.06-4.87,4.29-10.02,6.36-15.23,.22-.55-.68-1.47-.76-2.25-.06-.63,.24-1.36,.59-1.92,.17-.28,.8-.33,1.23-.39,.65-.09,1.59,.16,1.93-.19,4-4.14,7.9-8.36,12.71-13.49-4.33,.93-8.42,.62-10.6,2.52-5.39,4.69-10.11,10.22-14.69,15.75-2.65,3.2-5.4,6.97-1.02,11.09-.96-.64-1.92-1.28-2.38-1.58-1.67,5.68-3.2,10.91-4.89,16.67,2.39-.68,5.16-.87,7.22-2.18,5.38-3.42,2.44-7.72,.65-11.77ZM26.78,580.09c3.94,.42,7.34-.39,10.6-4.1-3.96,.78-6.81,1.35-9.66,1.91,9.95-2.06,13.05-6.37,9.69-14.85-.46-1.16-2.33-2.23-3.7-2.47-3.65-.64-7.38-.81-11.85-1.24-.17,5.78-3.57,12.07,.42,18.51-.22,.67-.8,1.47-.6,1.98,1.82,4.6,6.43,6.17,11.68,4.09,6.09-2.41,10.02-8.88,8.13-13.38-3.06,8.66-8.44,12.16-14.7,9.56Zm246.4,191.57c-1.02,2.8-2.04,5.59-3.28,8.98,7.34-2.63,8.18-3.8,6.34-7.88,3.81,1.32,3.5,3.57,1.05,5.83-1.41,1.3-3.25,2.2-5.02,3.04-3.48,1.65-4.35,3.27-.25,5.22-5.53,1.04-2.51,5.11-3.42,8.19,6.95-2.28,8.11-3.91,5.89-7.63,3.05,.51,3.63,2.25,1.89,4.54-1.07,1.4-2.73,2.35-4.08,3.55-1.23,1.1-2.4,2.27-3.59,3.4,1.4,.89,2.8,1.78,4.03,2.56-.91,.12-2.13,.27-3.62,.46,.45,2.99,.57,5.81,1.39,8.4,.34,1.07,2.08,1.85,3.34,2.45,1.83,.88,3.8,1.47,5.71,2.18-1.36,1.66-2.68,3.36-4.11,4.97-.5,.56-1.25,.89-2.66,1.85,4.27,4.82,7.67,10.16,12.44,13.64,4.63,3.38,10.49,5.41,16.1,7,3.75,1.06,8.02,.55,12.03,.28,2.34-.16,4.62-1.22,6.93-1.88-4.77-1.21-9.26-1.4-13.67-2.14-9.94-1.67-18.84-5.54-22.61-15.66-2.34-6.29-4.18-13.13-4.39-19.78-.83-25.61,8.29-47.82,25.31-66.7,5.14-5.7,11.37-10.42,17.78-16.2-5.36,1.09-10.02,2.03-14.82,3.01,1.77,4.61,1.78,4.65-1.8,5.85-1.73,.57-3.67,.67-5.23,1.5-1.1,.58-1.72,2.05-2.55,3.13l-8.46,4.99c.31,.57,.62,1.15,.94,1.72,2.13-.69,4.28-1.31,6.38-2.08,2.78-1.02,3.05-2.67,1-4.75,4,1.3,3.85,3.61,.68,5.33-2.67,1.45-5.89,2.01-8.94,2.59-2.57,.49-3.44,1.2-1.39,3.35-5.42-.4-5.34,4.49-7.92,7.58,8.23-.94,9.85-2.69,7.78-7.7,3.33,3.14,3.37,5.04-.3,7.1-1.79,1.01-4,1.46-6.07,1.73-2.8,.36-3.46,1.51-2.13,3.95-1.72,2.32-3.44,4.64-5.15,6.96,.48,.41,.96,.83,1.45,1.24,2.17-1.58,4.34-3.17,6.51-4.75-1-1.19-1.99-2.38-2.99-3.57,1.52,1,3.05,2,4.57,3-1.08,1.5-1.97,3.19-3.29,4.44-.9,.85-2.38,1.49-3.61,1.5-3.76,.03-4.33,2.26-4.14,5.24Zm334.71-241.5c.88-.54,2.02-.89,2.6-1.66,3.47-4.62,6.83-9.33,10.18-14.04,.8-1.12,1.4-2.39,2.09-3.58-.38-.35-.75-.69-1.13-1.04-2.34,2.19-4.69,4.38-8.07,7.55,1.44-2.8,2.23-4.33,2.7-5.25-6.38-2.8-12.64-5.27-18.64-8.27-6.82-3.41-13.42-7.28-20.1-10.98-1.59-.88-3.77-1.54-4.53-2.93-2.93-5.35-6.76-3.79-11.19-2.48-8.95,2.63-16.6,7.16-23.53,13.89,3.15,1.47,5.96,2.53,8.51,4.04,2.7,1.6,4.94,1.34,7.13-.73-1.14,3.64-3.26,4.5-6.74,2.76-2.66-1.33-5.5-2.38-8.34-3.25-1.29-.4-2.81-.07-4.22-.07-.07,.45-.14,.9-.21,1.36,3.46,1.45,7.13,2.55,10.34,4.42,4.66,2.72,8.45,2.43,12.39-1.35,1.03-.99,3.73-1.29,5.12-.68,6.05,2.65,11.95,5.68,17.79,8.77,1.58,.83,2.79,2.37,4.06,3.48,1.85-4.29,1.81-4.22-2.49-6.58-5.94-3.25-11.81-6.62-17.71-9.94,5.82,2.65,11.68,5.22,17.45,7.97,7,3.33,6.97,3.39,3.93,10.64-.17,.4-.11,.88-.18,1.54,3.53,1.54,6.96,3.03,10.4,4.53-4.34-1.18-8.68-2.36-13.02-3.54-.2,.51-.4,1.02-.59,1.53,7.62,3.13,15.19,6.37,22.89,9.27,1.34,.5,3.23-.48,5.6-.9-1.14-2.02-1.82-3.24-2.51-4.46Zm-509.72,17.67c-.25-5.35-.05-10.77-.9-16.02-.62-3.83-2.63-7.43-4.03-11.13,2.25,3.26,4.49,6.52,6.68,9.69-1.04-8.59-7.06-16.73-12.87-18.18,1.86,2.55,4.09,5.59,6.32,8.63-10.24-12.35-32.21-14.12-39.55-3.19,9.86,.08,14.95,6.75,10.89,15.09-1.71,3.52-2.57,6.24,.27,9.12-4.51,.42-8.71,.81-13.65,1.27,1.45,1.96,2.17,2.93,3.37,4.56-1.89-.73-2.99-1.16-3.68-1.43-3.55,5.31-6.91,10.32-10.59,15.82,.42,.48,1.73,1.97,3.17,3.62,1.22-2.45,1.93-4.79,3.35-6.55,3.68-4.59,7.1-9.69,11.69-13.18,5.95-4.52,12.36-1.63,14.91,5.37,.55,1.5,1.95,3.14,3.39,3.79,5.61,2.55,11.2,2.59,16.34-1.4-2.01,6.73-8.33,3.48-12.47,5.4,.69,2.29,1.38,4.59,2.06,6.84,8.21-1.3,11.63,2.04,10.88,10.24,9.36-6.17,12.46-21.04,6.01-29.1-.08-.1-1.04,.5-1.59,.77Zm435.07,32.81c2.94-1.77,5.76-3.77,8.83-5.27,9.97-4.85,20.02-9.5,28.98-13.73-6.89-.72-15.24-1.58-23.66-2.46,.65-.27,1.22-.51,2.95-1.25-8.55-1.2-16.02-2.26-23.5-3.29-6-.82-11.9-1.76-15.84-7.19-.5-.69-1.6-1.41-2.38-1.37-9.58,.5-19.66-.06-27.7,6.14-8.13,6.27-15.58,13.45-23.16,20.42-2.3,2.12-4.03,4.86-5.77,7.01,4.64,.92,9.46,.87,13.17,2.88,4.08,2.21,6.46,1.83,9.96-.83,10.33-7.87,21.57-14.17,34.19-17.69-5.66,3.39-11.54,6.37-17.2,9.74-5.55,3.3-10.86,7.01-16.27,10.53,.36,.71,.71,1.42,1.07,2.14,3.17-1.2,6.61-1.96,9.45-3.7,7.56-4.61,15.66-7.72,24.42-7.87,7.9-.13,15.96,.48,22.57,5.9-7.6-3.71-13.63-.93-19.15,4.75,1.54,.55,2.98,1.06,5.72,2.03-6.16-.64-10.92-1.55-15.66-1.51-4.66,.04-9.31,1.05-13.97,1.64,10.53-.12,20.66,.58,28.97,5.56,4.97-4.48,9.47-8.55,13.96-12.61Zm82.96-42.11c2.02-6.86,4.05-13.71,6.38-21.62-10.83,9.18-19.6,37.65-10.05,51.08-1.56-10.87-1.44-20.64,3.76-29.62-1.1,8.38-2.52,16.73-3.11,25.15-.18,2.58,1.11,6.4,3.06,7.79,6.83,4.9,13.68,9.66,18.87,16.42,.26,.34,.83,.45,1.32,.69-1.42-13.14-.67-15.21,4.51-15.31,2.4-3.92,4.52-7.38,6.64-10.84,1.29-6.31,3.33-9.59,9.25-9.1,7.15,.59,14.37,2.26,21.15,4.64,3.13,1.1,5.27,4.99,8.44,8.21-.63-5.45-1.15-9.96-1.7-14.71-1.24-.37-2.82-.84-4.44-1.32-.59,1.62-1.06,2.9-1.53,4.18,1.86-4.72-1.27-6.98-4.35-9.3-.51-.38-.74-1.39-1.23-1.5-1.81-.38-4.68-1.35-5.35-.56-2.09,2.46-3.36,5.62-5.17,8.91,.11-1.83-.46-4.19,.47-5.34,2.41-3,5.47-5.47,8.54-8.41-1.8-3.15-4.8-5.21-8.81-2.1-2.69,2.09-4.71,5.04-7.09,7.68,.72-2.23,1.41-4.37,1.96-6.09-3.7-2.04-7.55-3.49-10.49-6-2.79-2.37-5.75-5.57-6.57-8.92-.82-3.37,.9-7.36,1.58-11.51-1.65,0-4.11-.14-6.54,.03-8.15,.55-12.62,5.04-13.67,12.55-1.01,7.17-2.71,14.24-4.22,21.95-.63-2.78-1.12-4.91-1.61-7.03ZM317.35,132.59c3.16-7.53,6.32-15.07,9.45-22.52-7.17,.98-20.91,39.25-17.78,50.87,33.49-14.46,67.14-14.47,101.47,.54-.34-4.48,.06-7.96-.94-10.97-4.2-12.58-8.74-25.06-13.4-37.48-.58-1.55-2.64-2.55-4.01-3.81-.31,.32-.63,.65-.94,.97,5.45,12.65,13.24,24.43,15.1,39.43-15.55-6.19-31.22-9.44-47.15-9.49-15.91-.05-31.49,3.5-46.56,9.1-.41-.39-.82-.79-1.22-1.18,2.05-5.21,4.1-10.42,6.14-15.63-1.25,4.52-2.49,9.04-3.96,14.38,30.86-11.99,60.63-11.88,90.98-.14-.47-2.23-.52-3.77-1.1-5.06-4.7-10.42-9.4-20.84-14.38-31.12-.65-1.34-2.71-2.32-4.32-2.8-17-5.12-34.06-5.16-51.04,.02-1.93,.59-4.01,2.25-5.03,4-3.98,6.83-7.56,13.89-11.31,20.88Zm285.08,406.43l.07,.02c-.44-.73-.71-1.87-1.35-2.13-4.92-2.02-9.89-3.91-14.87-5.76-7.2-2.68-7.21-2.65-6.14-10.35,.04-.29-.19-.62-.27-.88-5.33-2.4-10.89-4.35-15.83-7.32-3.35-2.01-5.49-1.92-8.15,.63-2.31,2.21-4.78,2.82-8.04,1.09-5.07-2.69-10.48-4.71-15.62-6.97-9.45,8.36-15.53,18.59-20.28,29.8-1.95,4.6-.49,7.95,3.05,10.37,2.37,1.61,5.4,2.56,8.26,3.09,5.37,.98,10.85,1.38,16.27,2.13,6.95,.95,13.88,2.01,21.31,3.09-1.08-2.39-1.85-4.09-2.62-5.79,3.18,7.56,10.19,7.06,16.41,8.09,1.64,.27,3.41,.19,4.91,.79,8.58,3.49,19.82-1.35,26.4,8.39,.06,.09,.59-.14,1.45-.36-.18-1.66,.15-3.7-.65-5.08-4.04-6.95-2.79-14.09-1.3-21.31,.09-.45-.03-.94-.06-1.54h-2.94ZM201.58,331.1l-.11-.12c-2.75,3.05-5.18,6.49-8.32,9.07-5.29,4.36-7.64,3.72-11.71-3.09-3.15,8.26-6.04,15.85-9.07,23.78,14.08,3.27,26.96,6.96,37.39,16.28-1.74-.06-3.29-.63-4.81-1.25-10.24-4.21-20.36-8.78-30.77-12.51-6.39-2.28-8.73,.46-7.37,7.78,17.12,2.22,33.02,8.12,47.49,19.22,.45-6.84,.82-12.41,1.19-17.98,.76,.02,1.53,.03,2.29,.05v24.44c-2.97-2.03-7.29-4.97-11.61-7.92l-1.29,.88c.24,2.02,.63,4.03,.68,6.05,.03,1.26-.43,2.53-.68,3.8l.15,.12c-.51-2.75-1.88-5.7-1.31-8.2,.75-3.27-.32-4.85-2.85-5.84-9.52-3.7-19.1-7.24-28.95-10.95-.95,5.17-1.65,9.01-2.33,12.71,5.35,3.72,10.54,7.34,15.73,10.95-.29,.44-.58,.87-.87,1.31-5.43-3.28-10.86-6.56-16.16-9.76-2.76,8.87-.35,15.29,8.39,19.16,7.56,3.34,14.91,7.14,22.55,10.83-1.09,1.01-2.32,2.17-2.93,2.73-3.09-1.28-5.67-2.35-9.33-3.88v12.16c-2.1-5.36,3.25-13.55-7.34-15.1-.39,4.76-.78,9.43-1.16,14.11-4.11-5.79,3.72-14.31-5.94-18.65-.66,6.47-1.28,12.52-1.91,18.73,3.24,1.32,6.48,2.54,9.61,4.01,.68,.32,.96,1.5,1.46,2.32-5.92-2.28-11.84-4.56-18.31-7.05,.34,15.6-6.69,30.23-6.11,46.35,2.91-.6,5-1.38,7.09-1.4,7.42-.06,15.17-1.22,22.19,.51,17.39,4.3,28.39,16.45,35.28,32.6,1.33,3.12,2.75,6.19,4.51,10.15,5.53-16.13,11.52-30.91,15.36-46.24,1.39-5.56-2.36-12.42-3.82-18.68-.08-.35-.7-.74-1.13-.83-3.54-.75-7.06-1.58-10.64-2.09-5.49-.79-11.3-.48-16.46-2.18-9.58-3.16-18.79-7.44-28.15-11.25,3.63,.82,7.33,1.41,10.88,2.5,5.44,1.66,10.78,3.65,16.2,5.51,.4-4.48,.74-8.17,1.07-11.86,.65,.08,1.3,.17,1.95,.25-.37,3.84-.74,7.67-1.14,11.78,2.34,.61,4.64,1.21,7.78,2.03v-12.48l1.09,.02v12.53h5.52c-1.42-7.11-2.78-13.88-4.14-20.64-.48,.06-.95,.13-1.43,.19-.18,1.06-.35,2.11-.4,2.43-.61-.61-1.71-2.41-2.4-2.27-1.98,.42-3.8,1.62-5.78,2.56,1.01-4.32-3.25-2.98-6.19-3.91-.6,4.81-1.18,9.41-1.75,14.01-.53-.08-1.06-.17-1.59-.25,.89-5.87,1.77-11.74,2.7-17.89,4.92,.87,8.95,1.58,12.86,2.26,1.75-3.94-3.28-8.28,.78-11.77-4.31-3.43-1.35-8.51-1.76-13.05,5.78,9.15-.48,22.58,11.63,30.33-2.32-7.76,1.37-15.79-6.27-22.5,3.3,.86,5.08,1.32,6.96,1.81,.43,8.94-1.21,18.21,3.65,26.47,.65-2.71,.64-5.33,.65-7.96,0-2.66-.1-5.33,.08-7.98,.18-2.71,.61-5.4,1.02-8.09,.31-2.02,.77-4.03,1.16-6.04,.45,.1,.9,.19,1.36,.29,0,3.53,.09,7.07-.02,10.6-.14,4.49-.68,8.99-.51,13.47,.06,1.49,1.46,3.79,2.75,4.24,7.19,2.51,14.42,5.24,21.88,6.5,4.4,.74,9.71,2.92,14.89-2.51,0,6.44-1.14,12.13,.32,17.05,1.44,4.84,5.53,8.88,8.58,13.46-.7,.06-1.58,.41-1.92,.12-2.79-2.38-5.47-4.88-8.21-7.33-1.22-1.09-2.34-2.77-3.76-3.08-9.89-2.22-19.85-4.16-29.87-6.2,7.18,13,5.61,30.43,19.68,41.04l-1.73,1.13c-2.47-2.82-4.94-5.63-8.03-9.17,.96,7.71,1.57,14.48,2.76,21.16,.36,2.04,1.85,4.69,3.57,5.54,4.56,2.25,9.53,3.68,14.34,5.41,.74,.27,1.53,.38,2.57,.63l-.75-3.6q12.2,1.22,13.27,8.78c5.58,.66,11.32,1.34,16.62,1.97-2.24-9.49-4.33-18.34-6.41-27.19,3.48,7.98,5.8,16.2,8.32,24.36,.38,1.23,1.46,2.75,2.57,3.16,2.75,1.01,5.72,1.46,9.27,2.3,.54-3.17,1.06-6.2,1.57-9.19,.8,.32,1.88,1.12,2.97,1.12,8.73-.04,8.73-.09,10.96,6.75,2.64-1.16,5.33-2.35,8.24-3.63-.95-10.72-3.06-21.91-.18-33.72,.8,11.85,1.56,23.07,2.3,34.01h34.25c.77-11.32,1.49-22.03,2.22-32.75,.23,0,.46,0,.7,0v32.68l1.04,.06c.65-12.2,1.3-24.39,1.95-36.47h-46.07c.61,12.11,1.22,24.02,1.82,35.93-.53,.03-1.07,.06-1.6,.09-.53-12.09-1.05-24.19-1.59-36.52-8.69-.76-17.42-1.4-26.12-2.39-1.56-.18-2.96-1.82-4.44-2.78,1.53-.49,3.07-1.45,4.58-1.4,5.94,.18,11.88,.56,17.8,1.07,26.32,2.3,52.6,.81,78.87-.75,10.15-.6,20.39-1.19,27.37-10.44,.79-1.04,2.65-1.28,4.02-1.89-4.81,9.23-12.03,14.51-22.09,15.55-10.4,1.07-20.79,2.14-31.16,3.2-.52,12.43-1.04,24.69-1.57,37.21,1.31,1,2.99,2.28,4.67,3.57-.29-.45-.58-.89-.87-1.34,1.88-2.2,3.39-5.71,5.71-6.36,6.62-1.87,9.99,2.29,10.8,7.66,10.34,1.2,12.82-5.63,14.7-12.94,.95-3.7,1.79-7.45,2.35-11.22,.7-4.71,1.07-9.46,1.58-14.2,1.2,12.52-.6,24.53-6.49,36.67,6.9-.88,12.68-1.62,18.85-2.4-2.66-4.48-2.63-4.45,1.06-7.27,.89-.68,1.56-1.64,3.22-3.43,4.54-.22,6.73,1.11,7.93,6.11,4.65-1.73,9.16-3.77,13.88-5.06,3.98-1.09,5.65-3.44,6.32-7.24,.33-1.88,1.37-3.63,2.09-5.44,.78,.25,1.55,.5,2.33,.75-1.19,3.9-1.36,8.72-3.83,11.47-3.26,3.63-3.42,7.14-3.1,11.23,.24,3.15,.36,6.33,.99,9.41,.43,2.1,1.65,4.03,2.53,6.03,1.77,4.04,3.56,8.07,5,11.34,11.06-2.41,22.54-4.91,34.02-7.41,.14-.29,.28-.57,.42-.86-4.47-1.55-8.93-3.11-13.66-4.75,.18-1.36,.37-2.8,.58-4.45-4.63-.66-3.12-3.98-2.78-6.82,.02-.19,.4-.33,.74-.59,.34,1.3,.66,2.54,1.1,4.22,.7-1.32,1.28-2.42,1.86-3.52,.42,.27,.83,.54,1.25,.81v6.6c1.94,3.28,8.56-1.34,8.38,5.69,1.95-1,4.69-1.48,5.2-2.81,5.77-15.21,17.06-26.45,27.46-38.22,6.8-7.7,16.05-12.03,26.44-14.48-.81-.97-1.36-1.52-1.78-2.16-.52-.8-.93-1.67-1.63-2.95-23.46,11.82-38.48,31.79-52.37,52.9-.46-.34-.92-.67-1.37-1.01,5.45-8.53,10.9-17.05,16.36-25.58l-.35-.15c-2.1,2.03-4.21,4.06-6.31,6.09,.69-12.37,12.52-14.43,17.91-22.62-4.65,2.68-9.29,5.36-13.94,8.04-.3-.49-.6-.98-.9-1.47,2.65-7.01,10.25-7.43,15.88-10.06,6.1-2.85,12.78-4.46,19.2-6.61-5.03-1.12-10.32-2.62-14.87-1.4-8.75,2.34-17.09,6.23-25.22,9.33,5.93-5.17,13.06-10.2,21.46-11.24,8.5-1.06,17.29,.16,27.17,.42-2.61-15.04-5.24-30.2-7.8-44.92-8.74,3.87-17.05,7.63-25.44,11.19-1.39,.59-3.13,.32-4.72,.44-.2-.14-.42-.27-.64-.38,1.22-.91,2.32-2.1,3.69-2.66,4.26-1.74,8.61-3.24,12.65-4.73-.32-6.1-.61-11.69-.92-17.58-4.53,.95-7.41,2.56-6.6,7.88,.51,3.3,.09,6.75,.09,10.13l-.86-.03c-.26-4.67-.53-9.35-.83-14.65-2.84,1.08-4.94,1.88-7.12,2.71,.74,5.33,1.43,10.29,2.12,15.25-.46,.08-.92,.15-1.38,.23-.89-4.77-1.77-9.53-2.74-14.76-2,.57-3.97,1.13-5.76,1.63-.12,2.16-.2,3.73-.29,5.31l-.79-.1c-.37-1.48-.74-2.96-1.39-5.52-2.62,2.01-4.6,3.53-6.26,4.81-1.18-1.4-2.77-3.29-4.61-5.48,4.22-1.07,8.92-2.25,13.62-3.44l-.33-1.54h-3.52c-2.69-4.85-.3-11.46-5.62-14.1,.77-3.02,1.56-6.1,2.39-9.33,.61,2.05,1.18,3.96,1.75,5.86l.94-.09c.63-3.57,1.26-7.15,2.02-11.49-2.02,.85-3.02,1.57-4.1,1.68-5.67,.61-6.43,4.17-6.3,9.06,.14,4.96-.63,9.94-1.01,14.92l-2.12-.05c-2.08-6.31,.34-12.79,.41-19.18,.07-6.64,.02-13.28,.02-20.85-3.99,5.1-7.03,9.08-10.2,12.96-.5,.61-1.57,.75-2.37,1.11,.02-1-.36-2.29,.13-2.94,2.69-3.66,5.57-7.19,8.43-10.72,4.08-5.05,4.32-6.46,2.18-12.64-2.65,3.22-5.39,6.56-8.13,9.9l-1.07-.81c2.07-3.24,3.7-6.9,6.31-9.62,2.9-3.01,3.83-5.74,1.76-9.67-3.66,3.85-7.17,7.54-10.68,11.23v.02c.48-1.74,.46-3.94,1.54-5.15,2.82-3.16,6.12-5.9,9.54-9.09-.77-3.51-1.66-7.6-2.54-11.6-2.02,1.04-3.49,1.8-4.95,2.55q3.98-7.48,1.75-11.16c-4.08,2-8.13,3.98-12.18,5.97-.24-.49-.49-.98-.73-1.48,4.17-2.12,8.33-4.24,13.02-6.63l-3.18-7.23,.09,.12c2.86-1.81,3.24-1.92,4.11,1.07,2.77,9.55,6.1,19.05,7.62,28.82,2,12.9,2.5,26.04,3.72,39.9,13.68-10.67,29.89-16.05,46.96-18.61,1.2-7.25-1.28-9.99-7.66-7.63-10.7,3.96-21.14,8.65-31.59,13.26-3.51,1.55-3.37,1.88-4.61-.31,11.1-8.24,23.78-12.87,38.26-15.33-3.22-8.3-6.16-15.89-9.49-24.46-3,6.82-5.39,7.93-9.87,4.76-10.06-7.12-16.86-16.68-20.11-28.63,1.5,1.93,2.44,4.26,3.97,6.12,5.66,6.89,11.42,13.72,17.4,20.33,.89,.99,3.18,.72,4.83,1.03,.43-2.37,1.33-4.79,1.1-7.1-.13-1.3-1.98-3.29-3.27-3.47-8.33-1.18-17.93-11.5-17.03-20.27,.5-4.82-1.99-5.97-4.93-7.99-1.06,1.24-2.03,2.37-3,3.51-.2-.15-.39-.29-.59-.44,.55-1.42,1.09-2.85,1.55-4.03-3.54-2.88-6.91-5.63-10.46-8.53,1.35-.95,2.67-1.51,2.62-1.9-1.2-10.18-2.15-20.42-4.03-30.49-.84-4.49-4.9-7.03-9.61-7.56-7.44-.84-14.89-1.65-22.36-2.14-1.32-.09-2.74,1.39-4.12,2.14,.18,.62,.36,1.23,.55,1.85,6.22,.7,12.44,1.35,18.65,2.1,6.63,.8,13.34,2.15,15.45,9.56,1.8,6.34,2.38,13.03,3.5,19.56l-1.38,.22c-.75-5.07-1.26-10.19-2.31-15.2-1.71-8.17-5.7-11.48-14.09-12.27-3.63-.34-7.37-.2-10.88-1.04-6.39-1.54-12.28-2.6-15.71,4.95-.3,.66-1.49,.88-1.88,1.53-.64,1.09-.95,2.36-1.65,4.19,10.2-1.74,19.09-2.11,25,6.95,.2-.91,.45-2.02,.7-3.13,.95,5.61,.14,10.57-3.69,13.11-5.31-.51-9.34-1.03-13.38-1.23-2.26-.11-5.24-.46-6.62,.75-1.33,1.16-1.01,4.2-1.42,6.41l-1.41,.03c-.09-2.22-.47-4.47-.21-6.64,.48-4.02,1.32-8,2.01-11.95,.54,1.51,1.09,3.01,1.75,4.86,6.93-3.65,12.23-.48,17.84,3.53-.46-2.84-1.01-5.94-2.82-7.1-5.18-3.33-10.97-3.97-16.81-1.23-1.05,1.07-2.62,1.96-3.06,3.24-3.19,9.41-10.4,15.26-18.11,20.53-11.09,7.58-23.72,11.6-36.85,13.04-11.67,1.28-23.61,5.64-34.46,.27,13.49-1.63,27.81-2.51,41.74-5.36,9.29-1.9,18.45-5.76,26.89-10.2,18.17-9.56,23.27-26.73,22.83-45.56-.53-23.11-2.33-46.19-3.71-69.28-.33-5.55,.24-10.56,5.37-14.06-11.56-22.84-26.88-41.48-51.72-52.86,1.23,3.12,1.88,4.8,2.55,6.46,5.44,13.43,10.6,26.92,10.97,41.72,.03,1.3,1.76,2.84,3.05,3.78,4.7,3.4,9.87,6.22,14.27,9.96,4.24,3.61,7.44,8.25,8.28,14.16-5.08-11.03-14.15-17.53-24.86-21.99-5.97-2.49-12.06-5.07-18.35-6.33-12.83-2.57-25.9-6.22-38.76-5.8-13.39,.44-26.84,4.47-39.91,8.17-17.41,4.93-32.32,13.54-37.78,32.67-.07,.24-.36,.42-.71,.81,0-.69-.09-1.18,.01-1.62,3.33-13.95,12.02-23.39,24.64-29.68,1.63-.81,3.81-2.74,3.84-4.19,.31-14.83,5.5-28.29,10.98-41.71,.7-1.73,1.28-3.51,1.91-5.26-24.28,10.57-39.89,29-51.1,51.83,6.69,4.95,5.73,11.35,4.97,17.68-2.67,22.36-4.26,44.75-3.49,67.3,.69,20.22,7.44,36.72,26.67,46.1,2.84,1.38,5.84,2.46,8.62,3.97,1.8,.98,3.31,2.48,4.96,3.75-17.72-4.5-32.39-12.75-39.48-31.42-1.21,8.48,.29,14.29,5.23,20.04,10.54,12.25,25.17,15.98,40.11,19.31,3.9,.87,9.06-1.26,12.61,5.06-6.54-1.09-11.93-1.98-17.5-2.91-.11,1.67-.11,2.66-.26,3.64-.15,.97-.44,1.93-.5,2.18-1.85-2.43-3.29-6.42-5.66-7.09-12.97-3.65-24.23-9.7-33.55-20.12,.18,4.63-.06,9.74,2.2,13.23,9.08,14.06,22.95,23.06,36.63,33.32,.16-5.35,.95-9.69-5.07-11.61-1.2-.38-1.42-4.44-1.58-6.84-.03-.39,2.6-.96,3.99-1.45-3.69,4.07-3.43,5.64,.64,8.45,1.65,1.14,2.72,3.32,3.66,5.22,1.23,2.47-.27,6.52,.59,7.54,2.49,2.97,6.22,6.32,9.79,6.74,25.2,2.98,50.49,2.61,75.73,.1,2.12-.21,4.89-2.38,5.78-4.36,1.21-2.68,1.3-6.06,1.13-9.1-.22-3.76,.85-5.99,4.7-6.08,.97-4.95-.03-8.03-5.39-6.94-.65-1.83-1.12-3.15-1.43-4-7.93,.9-15.33,1.94-22.77,2.47-2.62,.19-5.33-.88-7.8-1.34-.64,.53-1.63,2.05-2.65,2.07-4.14,.08-8.29-.25-12.42-.54-1.17-.08-2.31-.54-3.57-.85,.38-.93,.74-1.83,1.11-2.72,.2,.39,.4,.78,.6,1.17,1.92-.5,3.81-1.28,5.76-1.46,8.4-.8,16.85-1.16,25.22-2.18,21.68-2.63,43.7-4.51,59.98-22.18l.85,1.1c-3.45,3.65-6.89,7.3-10.34,10.94-6.25,2.76-12.51,5.49-18.72,8.32-.6,.27-.92,1.14-1.37,1.73-3.74,.27-7.48,.54-11.94,.86,.72,2.1,1.04,4.64,1.69,4.73,7.18,.96,4.1,6.18,4.62,9.42-1.71,1.34-3.92,2.2-4.12,3.39-.52,3.15-.18,6.45-.18,9.96,6.55-5.03,13.21-9.96,19.67-15.14,5.98-4.8,11.74-9.87,17.59-14.81,.46,.55,.93,1.09,1.39,1.64-3.53,3.4-6.87,7.04-10.63,10.16-10.37,8.6-20.89,17.01-31.44,25.38-1.2,.95-2.96,1.52-4.52,1.67-23.53,2.32-47.06,3.19-70.67,.72-6.52-.68-12.05-2.15-16.97-6.79-4.7-4.43-10.31-7.88-15.28-12.05-10.3-8.64-21.77-16.23-27.52-29.71-13.61,22.12-23.77,45.15-27.12,70.77-.4,3.04,.4,6.24,.66,9.56-4.46,1.23-2.78,5.76-3.3,9.34-.54,3.73-1.14,7.46-1.72,11.19-.53,.02-1.06,.04-1.59,.06-.33-.85-1.2-2.16-.91-2.49,2.55-2.98,.3-6.34,.94-9.41,3.37-16.43,6-33.07,10.39-49.23,3.94-14.51,11.56-27.57,20.46-39.77,1.38-1.89,3.83-3.79,.91-6.37l.1,.1c.77-4.17,1.55-8.34,2.36-12.73-4.49,0-7.52,.37-10.43-.08-6.49-1-9.85,2.39-12.09,7.76l.16-.17c-1.87,2.43-3.75,4.87-5.51,7.15,5.17,1.65,9.85,3.14,14.53,4.63l-.49,1.77c-5.29-1.04-10.59-2.08-16.87-3.32-2.84,6.16-5.8,12.57-8.76,18.98l.09-.12c-1.72,4.69-4.09,9.28-4.81,14.12-.26,1.71,3.53,4,5.42,6.08,.64,.7,1.12,1.56,1.67,2.34-.29,.38-.59,.76-.88,1.15-2.47-1.74-4.93-3.47-7.24-5.09-1.23,2.42-2.64,5.2-4.05,7.98-.6-.23-1.2-.47-1.8-.7,2-6.91,4.2-13.76,5.96-20.73,2.56-10.16,11.08-18.27,10.17-29.62-.03-.36,.82-.79,1.62-1.51,.55,1.56,.94,2.65,1.53,4.34,1.88-2.85,3.45-5.22,5.27-7.96-10.67-.41-20.91,3.02-30.54,9.91,.6,1.56,1.21,3.13,1.82,4.71-.19,.1-.39,.21-.58,.31-1.12-1.18-2.24-2.36-3.91-4.12-1.69,2.21-4.48,4.23-4.28,5.89,.77,6.45-2.08,11.54-5.69,15.96-2.41,2.95-6.51,4.5-9.83,6.71-1.59,1.05-4.23,1.95-4.47,3.27-.44,2.36,.58,4.99,.99,7.51,1.92-.53,4.04-.72,5.71-1.68,1.82-1.04,3.15-2.91,4.87-4.19,1.67-1.23,3.56-2.16,5.35-3.23Zm307.13,296.03c-7.02,11.13-10.08,23.18-13.17,35.21-.14,.55,.12,1.41,.5,1.84,4.56,5.11,7.95,11.68,16.04,12.31,7.8,.6,15.56,1.74,23.37,2.12,2.81,.14,5.69-1.23,8.85-1.98-1.52-2.92-2.39-4.7-3.36-6.42-1.05-1.85-1.92-3.9-3.36-5.39-2.25-2.33-2.31-3.44,.92-4.89,4.71-2.12,6.12-6.89,3.87-11.57-.99-2.05-2.17-4.01-3.84-7.06,8.09,6.77,9.07,11.69,4.71,19.02-.75,1.25-1.8,2.62-1.84,3.95-.16,6.67,9.53,14.77,16.12,13.88,24.75-3.36,43.84-16.28,59.81-34.8,12.03-13.95,18.24-41.16,3.64-61.29-2.62-3.61-5-6.82-9.31-8.35-1.08-.38-1.83-1.68-2.73-2.55-2-.13-3.8-.84-5.29-1.96-1.8-1.34-3.21-4.18-5-4.37-6.09-.65-12.34-1.11-18.4-.41-18.33,2.11-33.14,11.99-47.95,22.12-10.39,7.1-16.98,16.61-21.75,27.86-2.12,5.01-1.87,9.27,2.53,13.01,1.87,1.59,3.3,3.69,4.93,5.57-.35,.33-.7,.67-1.05,1-2.57-2.14-5.15-4.27-8.24-6.84ZM244.77,474.15l-1.43-.03c-2.65,6.26-6.07,12.32-7.78,18.82-3.86,14.64-6.88,29.51-10.1,43.67-4.62,1.6-9,3.12-14.25,4.94,13.14,3,24.8,5.66,36.05,8.23,0-.78-.59-2.65,.1-3.63,4.66-6.64,7.82-13.76,7.65-22-.07-3.24,.47-7.77-1.35-9.45-4.37-4.02-4.77-8.84-5.41-13.92-1.12-8.88-2.31-17.76-3.47-26.63Zm438.03,50.25c-2.02-3.33-3.86-5.74-5.03-8.44-1.64-3.78-4.33-4.34-8.03-4.08-6.55,.46-13.14,.74-19.7,.58-7.2-.17-10.82,4.89-7.81,11.55,3.52,7.78,12.81,12,20.97,9.52,6.03-1.83,9.02-.17,10.78,5.95,1.71,5.97,9.13,10.86,15.08,9.5,2.05-.47,4.89-1.83,5.42-3.43,.5-1.53-1.37-3.99-2.47-5.88-2.12-3.66-4.89-7.01-6.5-10.87-1.14-2.72-1.78-4.29-5.23-2.88,.93-.56,1.86-1.12,2.53-1.52Zm-132.82-134.3c-6.33,3.7-12.64,7.39-18.95,11.07l-.72-1.2c6.13-4.14,12.26-8.28,18.27-12.35-.53-4.12-1.02-7.95-1.66-12.93-9.89,3.59-19.12,6.79-28.22,10.36-1.76,.69-3.86,2.57-4.24,4.25-.69,3.04-.19,6.35-.19,10.4,8.05-4.1,15.59-7.93,23.13-11.76,.29,.56,.58,1.12,.87,1.68-7.87,4.06-15.75,8.12-23.57,12.16,.83,4.2,1.65,8.37,2.57,13.06,7.65-4.58,14.92-8.93,22.19-13.29-6.74,6.59-15.48,10.27-22.42,16.41,10.24-.31,28.88-10.06,34.54-16.85-.58-4.01-1.09-7.49-1.59-11Zm-281.53-122.52c.37-.56,.74-1.11,1.12-1.67-3.07-3.63-6.11-7.29-9.27-10.85-.26-.3-1.26,.02-1.92,.1-7.09,.87-14.24,1.45-21.26,2.71-5.23,.94-9.51,3.37-11.18,9.28-2.02,7.15-2.75,14.23-1.48,20.79h19.54c.58-1.2,2.15-2.95,2.1-4.64-.1-3.49-1.3-6.94-1.53-10.43-.08-1.25,1.2-3.6,2.14-3.75,7.17-1.16,14.03-5.69,21.73-1.55Zm113.55,258.63h-46.5v35.01h46.5v-35.01Zm86.96-311.69c-.75,3.3-.57,6.77-2.2,8.81-3.1,3.88-3.7,7.88-3.48,12.51,.17,3.43-.34,6.89-.55,10.36,8.5,.55,17.2,1.12,25.67,1.67,4.17-17.64-6-26.36-19.45-33.35Zm-44.03,339.26v-23.44c.5,0,1-.01,1.5-.02v22.4c1.17,.1,2.33,.2,3.5,.3,.42-8.96-.14-18.04,1.17-27.22-3.99,.73-7.36,1.35-10.65,1.95-.76,8.98-1.49,17.68-2.22,26.38-.68-.06-1.37-.13-2.05-.19,.57-8.65,1.14-17.3,1.73-26.31-2.62,.46-4.84,.85-6.62,1.16v25.53c-.22,0-.44,.01-.66,.02-.55-8.45-1.1-16.89-1.65-25.26-3.87-.41-5.04,.9-5,3.89,.1,8.41,.04,16.82,.04,25.77,6.34-1.5,13.33-3.16,20.92-4.96Zm253.76,20.41c-.43-.28-.86-.56-1.29-.83,6.56-7.86,5.17-13.77-4.04-16.12-4.8-1.22-9.74-1.98-14.67-2.52-3.36-.37-7.14,.05-8.19,3.99-1.02,3.85,.49,7.62,4.23,9.21,7.72,3.28,15.58,6.34,23.61,8.73,1.98,.59,6.17-1.16,6.95-2.9,.95-2.11-.64-5.37-1.28-8.98-2.29,4.06-3.8,6.75-5.32,9.43Zm-618.64-21.92c-2.71,0-5.51-.8-6.33,.13-4.56,5.24-9.08,10.78-8.53,18.36,.37,5.14,3.91,7.25,8.27,4.78,7.65-4.35,14.46-9.55,17.56-18.5,1.41-4.06,.19-7.16-2.55-9.18-1.58-1.17-4.74-.58-7.09-.2-1.72,.28-3.28,1.5-5.29,2.49,1.4,.75,2.49,1.34,3.97,2.13Zm254.32,6.46c0-9.02-.12-17.45,.05-25.88,.07-3.63-1.75-4.06-5.11-3.75-.52,8.55-1.02,16.93-1.53,25.32-.23-.01-.46-.02-.68-.04v-25.66c-1.9-.29-4.13-.63-6.64-1.01,.46,7.81,.9,15.11,1.33,22.41-.66,.04-1.33,.08-1.99,.12-.22-1.38-.55-2.76-.64-4.16-.32-5.14-.39-10.31-.94-15.43-.15-1.39-1.67-2.63-2.56-3.94-.68,.29-1.37,.57-2.05,.86,0,8.08-.08,16.16,.11,24.24,.02,.93,1.36,2.4,2.33,2.66,6.23,1.61,12.53,2.94,18.34,4.26Zm333.03,6.97c-2.96,2.38-4.26,5.79-2.12,9.36,1.5,2.5,3.5,5.34,5.98,6.4,2.05,.88,5.12-.61,8.06-1.1-1.9,1.3-3.59,2.46-5.74,3.94,2.46,1.43,4.33,2.89,6.46,3.66,2.28,.83,5.91,2.22,6.97,1.23,2.16-2.02,4.21-5.56,3.99-8.29-.18-2.23-3.39-4.74-5.81-6.16-5.44-3.18-11.23-5.76-17.77-9.03Zm-254.54-3.62c1.59-1.02,5.87,1.59,6.77-3.64,2.07-11.96,1.91-23.78-.88-35.62-.8-3.39-2.82-3.64-5.44-3.35-2.84,.31-3.46,2.05-2.86,4.63,1.27,5.43,3.19,10.85,3.47,16.34,.35,7.13-.64,14.33-1.06,21.63Zm-65.08-36.65c-2.35-.24-4.62-.47-6.9-.7l.1-1.24h6.75c-1.99-2.03-3.24-4.05-3.94-3.88-1.55,.39-3.72,1.65-4.07,2.97-2.83,10.72-3.09,21.62-1.59,32.59,.92,6.69,1.04,6.88,7.67,6.55-2.68-12.05-1.61-23.88,1.97-36.3Zm371.08,20.85c-3.7,2.15-5.55,3.91-7.66,4.31-4.26,.82-4.47,3.53-3.77,6.66,.68,3.07,2.23,5.97,2.68,9.05,.57,3.91,2.53,5.68,6.26,5.23,3.65-.45,6.77-2.69,6.37-6.39-.68-6.2-2.46-12.28-3.87-18.86Zm-62.72,34.33c1.62,3.93,2.73,8.15,4.99,11.62,1.7,2.61,4.58,5.04,7.47,6.13,3.74,1.41,6.39-1.41,8.46-4.5,2.04-3.06-.07-4.4-2.1-6.01-3.99-3.16-8.15-6.09-11.11-10.44-.89-1.3-3.54-2.52-4.85-2.1-1.22,.39-1.72,3.01-2.85,5.29Zm-364.5-32.02v-29.56c-4.06-.61-8.2-1.23-12.33-1.85,0,6.51-.03,12.95,.03,19.39,0,.91,.19,2.16,.79,2.67,3.56,3.05,7.26,5.93,11.51,9.35Zm175.04-29.53v28.75c4.73-2.05,7.3-4.49,6.55-10.19-.7-5.4,.2-11,.4-16.52,.35,.03,.71,.05,1.06,.08v21.58c1.79-2.12,4.13-3.6,4.23-5.22,.42-6.82,.18-13.69,.18-20.4-4.48,.69-8.5,1.32-12.42,1.93ZM258.89,253.68c.25-.71,.5-1.43,.75-2.14-1.44-.65-2.93-1.93-4.33-1.83-7.12,.47-14.23,1.28-21.34,1.99-5.77,.58-9.96,3.63-10.99,9.27-1.77,9.67-2.81,19.47-4.15,29.22,.83,.17,1.66,.35,2.49,.52,.34-1.34,.9-2.66,1-4.02,.38-5.12,.15-10.33,.99-15.37,1.81-10.92,6.83-14.92,17.87-15.65,5.92-.4,11.81-1.32,17.71-2Zm182.22,259.83c1.24,6.26-2.68,4.09-4.8,4.72,.34,6.34,.96,12.61,.92,18.87-.04,6.13-.76,12.26-1.16,18.04,8.19-2.84,12.32-28.04,5.04-41.63Zm-334.98,54.96c1.33-1.42,3.04-2.4,3.22-3.6,.91-6.05,1.6-12.15,1.99-18.25,.14-2.24-.35-4.72-1.25-6.78-1.66-3.8-3.82-7.39-5.83-11.04-1.02-1.86-2.17-3.65-3.87-6.49,1.25,5.97,2.23,10.62,3.2,15.27-.33,.06-.66,.12-1,.18l-.92-1.77-1.18,.4c1.27,5.73,2.54,11.45,3.81,17.18l.97-.12v-6.67c.28,0,.56,0,.85,0v21.7Zm169.67-52.49c-3.87,12.57-2.94,34.23,7.62,39.77-5.86-13.1-6.24-25.37-1.3-36.68-2.53-1.24-4.29-2.09-6.32-3.08Zm162.48,67.43c4.03-1.5,7.6-1.81,9.58-3.75,8.28-8.1,16.08-16.7,23.31-24.32-8.04,1.03-27.88,16.8-32.89,28.07Zm-179.82-138.41q1.37,6.77,7.19,6.93c-.62-2.92-1.24-5.78-1.92-8.99-7.84,.18-15.16-1.77-22.41-5.29q1.26,8.69,4.68,9.47c-.21-1.46-.4-2.85-.77-5.47,3.55,8.32,5.38,9.4,13.23,8.61v-5.27Zm2.78-271.59c-.2,.27-.88,.86-1.13,1.6-4.97,14.4-7.54,29.24-7.66,44.47,0,1.23,1.11,2.47,1.71,3.7,1.58-8.48,1.85-16.73,2.86-24.9,1.03-8.35,2.79-16.6,4.23-24.87Zm196.69,1.43c1.86,15.02,3.91,31.52,5.97,48.17,4.41-6.5-.69-41.15-5.97-48.17Zm-186.49,4.38c-8.12,4.99-11.31,11.47-11.38,19.61,6.71,.16,9.32-3.13,9.38-9.34,.03-3.07,1.15-6.12,2-10.27Zm186.96,19.7c-.54-8.38-3.37-14.94-11.41-19.46,.79,3.97,1.94,7.18,1.95,10.39,0,6.21,3.12,8.82,9.46,9.06Zm-70.64,360.46c3.24-9.92,2.21-26.52-1.36-30.4-.29,.39-.8,.75-.81,1.12-.17,8.44-.35,16.88-.31,25.32,0,1.03,1.25,2.06,2.48,3.95Zm-57.94-.96c1.19-.45,2.79-.76,2.8-1.1,.14-9.39,.11-18.78,.11-28.17-.69,0-1.38,0-2.07,0-2.24,9.39-3.06,18.86-.84,29.26Zm216.06-146.66l-1.22-.69c-1.31,1.65-3.69,3.27-3.73,4.96-.13,5.22,.62,10.47,1.04,15.76,5.76-1.33,5.74-1.33,5.22-6.31-.47-4.57-.88-9.14-1.31-13.71Zm-255.29,141.65c.59-.31,1.17-.62,1.76-.93v-25.6c-.92-.22-2.73-.64-4.21-.99,0,8.67-.07,16.89,.11,25.1,.02,.83,1.53,1.62,2.35,2.43Zm-103.48-226.59c8.06-.34,15.21-10.3,15.8-21.29-5.82,7.84-10.81,14.56-15.8,21.29Zm344.06-.01c-4.95-6.65-9.9-13.31-14.85-19.96,.07,10.19,6.87,19.51,14.85,19.96ZM134.18,492.54c-4.63-.91-27.51,10.07-30.94,14.44,11.96-1.77,20.3-9.38,30.94-14.44Zm133.95-216.65c-.9-2.25-1.14-4.62-2.11-4.98-5.34-1.95-10.61-.74-15.06,2.41-1.47,1.04-1.5,4.12-2.19,6.26q7.94-4.86,19.37-3.69Zm-99.39,131.47c-4.85,10.71-4.14,19.26,.17,20.66,.55-4.92,1.32-9.86,1.54-14.83,.08-1.92-1.1-3.89-1.7-5.83Zm299.4,178.9c-7.46-3.95-18.36-3.8-21.12-.09,4.62,.84,9.49,1.24,14.02,2.7,3.36,1.09,5.29,.5,7.1-2.61Zm83.36-178.39l-1.48-.49c-.85,1.6-2.49,3.25-2.4,4.79,.32,5.39,1.25,10.74,2.09,17.23,1.5-1.91,3.39-3.22,3.34-4.45-.22-5.71-.99-11.39-1.55-17.08Zm-92.64-198.31c.46-8.13,0-8.6-8.28-8.87,.32,2.74,.64,5.43,.99,8.37,2.5,.17,4.72,.32,7.3,.5Zm-191.32-9.29c-8.8,1.51-9.42,2.31-7.47,9.29,2.22-.18,4.48-.37,6.92-.57,.2-3.05,.36-5.64,.56-8.72Zm-14.07-44.59c-.45,.02-.89,.05-1.34,.07-.67,11.83-1.34,23.66-2.01,35.48l1.77,.08c.53-11.88,1.05-23.76,1.58-35.63Zm198.84,64.97c2.56-.57,4.72-1.06,7.16-1.6-.12-2.47-.22-4.71-.34-7.1h-7.3c.17,2.99,.32,5.71,.48,8.7Zm-192.82-8.75q-1.13,7.49,6.53,8.37v-8.37h-6.53Zm206.45-20.61l2.26-.06-2.04-34.64-.22,.06v34.64Zm-195.27,262.4v-11.11c-2.04,.3-3.57,.52-6.4,.94,3.73,3.06-.08,8.94,6.4,10.17ZM465.59,194c.88,4.57,1.75,9.15,2.73,14.25,4.32-3.92,3.62-8.14-2.73-14.25Zm39.98,389.66c7.55,2.7,10.2-3.53,15.78-5.17-7.38-2.67-10.36,2.75-15.78,5.17Zm-52.33-403.62c.51-.26,1.02-.52,1.52-.78-1.22-3.46-2.43-6.93-3.65-10.39-.49,.05-.99,.09-1.48,.14-.79,2.21-1.58,4.42-2.43,6.8,2.15,1.51,4.09,2.87,6.03,4.23Zm-241.78,404.17c-3.56-5.11-8.6-7.26-14.54-5.25,5.86,1.02,8.35,7.4,14.54,5.25Zm59.64-408.37c-.83-2.4-1.6-4.62-2.37-6.83l-1.52-.11c-1.24,3.47-2.47,6.94-3.71,10.42,.51,.25,1.02,.5,1.54,.74,1.96-1.37,3.92-2.73,6.06-4.22Zm242.24,241.65c3.22-5.77,2.5-10.14-3.06-14.34,.97,4.52,1.93,9.04,3.06,14.34Zm-228.4,129.38c.41,0,.82,.01,1.22,.02v-21.07h-1.22v21.05Zm225,32.28c-.35-.77-.7-1.54-1.05-2.3-4.23,2.12-8.45,4.24-12.68,6.36,.34,.7,.69,1.4,1.03,2.1,4.23-2.05,8.47-4.1,12.7-6.15Zm44.71-156.47c.68-.04,1.37-.08,2.05-.12-.71-5.83-1.41-11.66-2.12-17.5l-1.63,.18,1.69,17.44Zm-333.46,162.65c.35-.72,.7-1.44,1.05-2.15-4.33-2.1-8.66-4.2-13-6.3-.34,.7-.68,1.4-1.01,2.09,4.32,2.12,8.64,4.24,12.96,6.36Zm-55.84-180.25l-1.79-.05c-.61,5.87-1.22,11.75-1.82,17.62l1.9,.15c.57-5.91,1.14-11.82,1.71-17.72Zm267.98,120.66c-.32,0-.64,0-.96,0v20.61h.96v-20.61Zm-206.15-84.09c1.57,5.64,4.23,7.26,8.77,5.66-.45-5.95-5.51-3.35-8.77-5.66Zm-.93-8.85l-1.57,1.37c1.11,1.97,1.78,4.75,3.46,5.68,1.79,.99,4.55,.22,6.89,.22l.36-1.8c-4.01-.23-8.24-.07-9.14-5.48Zm44.64,380.69c.89,2.61,1.53,4.49,2.48,7.3,2.44-2.1,4.06-3.5,5.69-4.9-.29-.51-.59-1.03-.88-1.54-2.18-.26-4.37-.52-7.29-.87Z"/><path class="cls-1" d="M654.8,267.86c-9.76-.03-17.69-7.99-17.75-17.82-.06-10.1,7.88-18.24,17.85-18.3,10.2-.07,18.37,8.15,18.31,18.42-.06,9.89-8.21,17.74-18.41,17.71Zm-2.73-10.04c-1.97-2.27-4.38-3.8-4.5-5.48-.17-2.44,1.32-5,2.43-8.59-3.94,4.06-5.51,7.81-3.3,11.93,.68,1.27,3.44,1.43,5.37,2.14Z"/><path class="cls-1" d="M411.15,780.73h-10.08c9.92,13.03,33.34,24.35,37.61,18.76,.83,.71,1.64,2.03,2.51,2.07,7.48,.38,15.08,.81,21.53-4.08,5-3.8,11.33-6.49,12.2-13.95,1.22-10.48,1.6-20.7-3.79-30.51-5.95-10.82-15.25-18.18-24.55-25.66-1.07-.86-2.13-1.73-2.85-2.98,11.5,5.13,20.1,13.33,26.57,24.14,7.76,12.96,8.87,26.47,4.83,40.73-.21,.76-.05,1.62-.06,2.43-7.76,8.78-17.78,12.73-29.39,13.34,14.37,1.82,25.45-3.12,30.76-13.21,.43-.72,.86-1.45,1.29-2.17v-.33l-.33-.04c1.91-10.57,3.81-21.15,5.53-30.7,.47,2.48,1.21,6.38,1.92,10.12,5.63-11.92-4.53-33.61-23.44-50.82,.99,.24,2.19,.21,2.94,.77,12.86,9.64,20.66,22.25,22.8,38.34,1.09,8.19,1.12,16.16-1.59,24.12-3.72,10.93-10.11,19.37-21.7,24.05,11.73-.13,23.96-9.46,26.22-19.81,.38-1.76-.76-3.85-1.25-5.96,7.58-3.98,5.25-11.45,5.19-18.1-.02-2.35-.94-4.69-2.25-7-.06,.84-.13,1.69-.08,1.08-.83-4.25-1.94-9.94-3.05-15.63l-2.04,.35c.1,.97,.21,1.94,.31,2.92-.17,.07-.35,.15-.52,.22-.4-.86-1.39-2.02-1.12-2.54,2.64-5.13-1.49-7.14-4.22-9.94-1.43-1.47-2.27-3.51-3.68-5-1.97-2.08-3.96-4.9-6.44-5.59-3.71-1.03-4.61-2.64-3.74-5.97,4.47,3.94,9.46,7.45,13.28,11.94,3.94,4.62,7.25,9.96,9.91,15.44,2.5,5.15,3.81,10.89,5.56,16.15-.29,2.28-.98,4.74-.83,7.14,.54,8.61-.22,16.95-4.08,24.81-5.12,10.46-13.56,16.33-25.08,17.16-27.74,2-51.38-6.52-69.7-28.06-.5-.59-.73-1.4-1.09-2.11,2.73,.78,5.45,1.6,8.2,2.33,2.55,.68,5.13,1.26,7.7,1.88l.1-.1Z"/><path class="cls-1" d="M685.48,160.73c2.21,6.37,3.97,6.94,8.83,3.33,2.24-1.67,4.36-3.51,6.64-5.36,1.14,7.22-5.39,13.87-13.87,14.69-6.73,.66-16.77-5.78-15.95-15.5h10.54c.02-.36,.04-.72,.06-1.07h-10.27c-.1-7.92,6-14.14,13.8-14.66,7.34-.49,15.13,5.03,15.98,11.58,.16,1.23-.48,2.9-1.33,3.84-1.43,1.58-3.36,2.7-5.03,4.08-3.34,2.77-6.62,5.16-9.41-.92Z"/><path class="cls-1" d="M692.79,47.81c-.36-3.68-8.69,1.98-7.34-5.61-5.26,2.04-6.63-1.14-7.32-4.99-1.14-6.35,2-11.67,7.89-13.61,5.55-1.82,11.72,.77,14.27,6,2.66,5.44,.84,11.75-4.33,15.35-1.17,.81-2.14,1.91-3.18,2.86Z"/><path class="cls-1" d="M601.83,322.45c-6.05-7.34-5.22-12.75,2.78-16.19,.37,.96,.73,1.91,1.4,3.64,.8-1.62,1.29-2.64,1.91-3.9,4,.94,6.63,3.3,7.24,7.54,.56,3.88-1,7.03-4.48,8.61-1.39,.63-3.49-.44-5.27-.45-1.19,0-2.38,.49-3.58,.76Z"/><path class="cls-1" d="M607.36,282.86c-5.05-3.25-7-8.8-5.62-16.73,.85-4.94,1.28-9.95,1.88-14.73,6.37,2.09,9.46,9.6,6.88,17.94-1.37,4.44-2.13,9.07-3.14,13.52Z"/><path class="cls-1" d="M168.28,558.08c1.53,.65,2.07,.88,2.83,1.2-6.43,.54-12.67,1.05-19.93,1.66,1.07-5.38,6.96-6.69,8.92-10.84-.78,1.73-1.56,3.46-2.44,5.42,14.68-1.82,29.02-3.61,43.37-5.39,.13,.89,.25,1.78,.38,2.68-10.73,1.7-21.45,3.41-33.11,5.26Z"/><path class="cls-1" d="M186.83,28.98c1.92,11.05,6.7,14.54,16.53,13.23,8.5-1.14,10.07-.93,14.82,1.74-4.36,1.29-9.01,2.86-13.75,4.04-5.69,1.41-11.56,1.59-15.63-3.36-3.48-4.23-4.75-9.36-1.98-15.64Z"/><path class="cls-1" d="M244.54,624.58c24.65,18.66,49.31,37.33,73.96,55.99-27.11-15.4-51.24-34.75-73.96-55.99Z"/><path class="cls-1" d="M566.75,97.95c.67-15.22,10.69-16.62,23.05-15.42-1.83,1.05-3.37,1.62-4.49,2.65-2.72,2.49-5.84,4.82-7.71,7.88-3.15,5.17-5.01,6.36-10.85,4.89Z"/><path class="cls-1" d="M123.18,185.78c-1.7,3.57-3.32,7.03-4.99,10.47-2.77,5.7-5.89,11.04-12.24,12.39,1.87-4.02,3.87-8.05,5.64-12.19,2.32-5.43,5.78-9.42,11.59-10.67Z"/><path class="cls-1" d="M201.95,615.76c-13.01-17.78-31.22-27.5-48.63-37.86,5.55-3.6,44.86,25.83,48.63,37.86Z"/><path class="cls-1" d="M227.35,596.38c-4.99,5.33,2.42,9.46,1.6,14.57-1.21-1.02-2.17-1.84-3.14-2.66l-1.14,.89c1.77,2.24,3.54,4.49,5.86,7.43-1.89-.35-2.92-.54-4.06-.75-.21,1.01-.42,2.02-.74,3.56-3.21-7.8,.25-17.86-10.58-21.68,.45-.38,.9-.77,1.36-1.15,2.42,1.13,4.84,2.26,7.47,3.49,.97-1.06,2.18-2.37,3.39-3.69Z"/><path class="cls-1" d="M117.73,561.32c8.34-.7,16.69-1.39,25.07-2.09,.96,4.98,.65,4.93-4.17,4.8-7.7-.2-15.42,.25-23.31,.43,.61-.78,1.55-1.98,2.5-3.18,0,0-.09,.04-.09,.04Z"/><path class="cls-1" d="M699.52,142.4c2.41-2.39,4.01-3.98,5.61-5.57,1.43,1.49,3.67,2.77,4.12,4.51,.77,3-1.19,5.37-4.32,5.15-1.54-.11-2.95-2.14-5.41-4.09Z"/><path class="cls-1" d="M57.26,619.68c3.77,2.32,7.59,4.56,11.31,6.97,7.91,5.12,15.77,10.32,23.65,15.49l-.71,1.13c-6.45-4.12-13.02-8.07-19.32-12.41-5.11-3.52-9.89-7.51-14.82-11.29l-.1,.11Z"/><path class="cls-1" d="M166.5,666.37c-.9-2.74-1.31-5.79-2.79-8.16-2.96-4.72-2.62-9.02,.4-13.35,2.46-3.53,5.04-6.98,7.57-10.47,.42,.31,.84,.63,1.26,.94-2.44,3.63-4.78,7.34-7.36,10.87-2.63,3.62-2.81,6.99-.58,11,1.48,2.66,1.87,5.93,2.75,8.92-.42,.08-.83,.16-1.25,.24Z"/><path class="cls-1" d="M168.5,565.01c10.61,1.46,21.22,2.92,31.83,4.37-.08,.58-.17,1.15-.25,1.73-10.62-1.41-21.23-2.82-31.85-4.23l.27-1.87Z"/><path class="cls-1" d="M28.01,598.08c-9.34-8.41-18.67-16.81-28.01-25.22,.33-.37,.66-.75,.99-1.12,9.33,8.38,18.66,16.76,27.98,25.14l-.97,1.2Z"/><path class="cls-1" d="M207.22,671.31c-8.43,.74-16.86,1.47-25.3,2.21-.05-.51-.11-1.01-.16-1.52,8.41-.9,16.83-1.81,25.24-2.71l.21,2.02Z"/><path class="cls-1" d="M57.36,619.57c-1.83-.97-3.82-1.71-5.45-2.93-6.95-5.24-13.8-10.62-20.68-15.95,.29-.39,.59-.78,.88-1.17,3.44,2.67,6.92,5.29,10.31,8.01,4.98,4.01,9.9,8.1,14.84,12.15l.11-.11Z"/><path class="cls-1" d="M134.09,600.99v9.84l-1.04,.13-1.66-12.56c3.71,1.56,7.04,2.08,8.83,4.01,1.31,1.41,.59,4.71-.03,7.35-.97-3.82,.03-8.59-6.1-8.77Z"/><path class="cls-1" d="M143.69,668.81c-3.5-4.34-3.23-8.45,1.49-14.77-.48,4.79-.96,9.58-1.49,14.77Z"/><path class="cls-1" d="M206.92,681.89c7.95-1.46,15.02-2.77,22.67-4.17-7.23,4.33-14.44,5.33-22.67,4.17Z"/><path class="cls-1" d="M111.39,633.49c-.47-7.57,4.24-13.5,11.35-13.99-9.02,.32-7.08,9.35-11.35,13.99Z"/><path class="cls-1" d="M92.16,620.25c4.13,7.07,8.02,13.73,11.58,19.83-3.74-1.35-9.47-10.45-11.58-19.83Z"/><path class="cls-1" d="M168.83,744.06l-20.16-7.26c.16-.46,.32-.91,.48-1.37,6.73,2.39,13.46,4.78,20.19,7.17-.17,.48-.34,.97-.51,1.45Z"/><path class="cls-1" d="M124.69,604.5c1.87,5.69,2.36,11.13,9.13,10.49l-.21,1.3c-2.01-.11-4.45,.46-5.94-.48-3.56-2.23-3.91-5.94-2.98-11.31Z"/><path class="cls-1" d="M589.1,726.66c-4.71,1.93-9.41,3.86-14.12,5.78-.18-.44-.35-.88-.53-1.32,4.7-2.02,9.39-4.04,14.09-6.06,.19,.53,.37,1.06,.56,1.59Z"/><path d="M549.98,390.11c.51,3.51,1.01,6.99,1.59,11-5.66,6.79-24.29,16.55-34.54,16.85,6.93-6.15,15.67-9.83,22.42-16.41-7.27,4.35-14.54,8.71-22.19,13.29-.92-4.69-1.74-8.86-2.57-13.06,7.82-4.03,15.69-8.09,23.57-12.16-.29-.56-.58-1.12-.87-1.68-7.54,3.83-15.07,7.67-23.13,11.76,0-4.05-.49-7.36,.19-10.4,.38-1.68,2.48-3.56,4.24-4.25,9.09-3.56,18.33-6.77,28.22-10.36,.64,4.98,1.13,8.81,1.66,12.93-6.02,4.06-12.14,8.21-18.27,12.35l.72,1.2c6.31-3.69,12.62-7.37,18.95-11.07Z"/><path d="M511.22,255.72c-3.84-5.57-9.43-8.57-15.54-11-1.37-.55-3.37-2.86-3.09-3.56,.91-2.28-2.39-6.44,3.33-6.86,6.14-.45,12.14-1.38,17.88,1.55-.21,3.44-.41,6.69-.61,9.95l.65,.1c.24-1.29,.48-2.58,.72-3.87,.12-.02,.23-.04,.35-.06-.8,4.96-1.6,9.92-2.41,14.88-.42-.37-.85-.75-1.27-1.12Z"/><path d="M271.64,548.62c-4.25-3.42-7.95-6.3-11.51-9.35-.6-.51-.78-1.76-.79-2.67-.06-6.44-.03-12.88-.03-19.39,4.13,.62,8.27,1.24,12.33,1.85v29.56Zm-7.75-8.16c.57,0,1.14,0,1.71,0-.32-6.45-.65-12.9-.97-19.36l-.74,.08v19.27Z"/><path d="M258.89,253.68c-5.9,.68-11.79,1.6-17.71,2-11.05,.74-16.06,4.74-17.87,15.65-.84,5.04-.61,10.25-.99,15.37-.1,1.36-.65,2.68-1,4.02-.83-.17-1.66-.35-2.49-.52,1.35-9.75,2.39-19.55,4.15-29.22,1.03-5.64,5.22-8.69,10.99-9.27,7.11-.72,14.21-1.53,21.34-1.99,1.4-.09,2.88,1.19,4.33,1.83-.25,.71-.5,1.43-.75,2.14Z"/><path d="M493.29,230.68c-6.35,.09-6.77-4.44-7.05-9.08l-.18,.19c4.97-2.11,9.89-4.36,14.95-6.22,1.1-.4,3.36,.18,4,1.08,2.56,3.59,4.7,7.49,6.5,10.46-5.48,1.08-10.6,2.1-15.71,3.11-.83,.15-1.67,.31-2.5,.46Z"/><path d="M106.13,568.46v-21.7c-.28,0-.56,0-.85,0v6.67l-.97,.12c-1.27-5.73-2.54-11.45-3.81-17.18l1.18-.4,.92,1.77c.33-.06,.66-.12,1-.18-.98-4.65-1.95-9.3-3.2-15.27,1.7,2.84,2.84,4.63,3.87,6.49,2.01,3.65,4.16,7.24,5.83,11.04,.9,2.06,1.4,4.54,1.25,6.78-.39,6.11-1.08,12.2-1.99,18.25-.18,1.2-1.89,2.18-3.22,3.6Z"/><path d="M533.24,580.65c-4.5,4.06-9,8.12-13.96,12.61-8.31-4.99-18.44-5.69-28.97-5.56,4.66-.59,9.31-1.6,13.97-1.64,4.75-.04,9.5,.87,15.66,1.51-2.74-.97-4.18-1.49-5.72-2.03,5.52-5.69,11.54-8.47,19.15-4.75l-.12-.13Z"/><path d="M553.92,504.68c3.33-.36,6.67-.72,10-1.08,5.9,3.32,11.77,6.69,17.71,9.94,4.3,2.36,4.34,2.29,2.49,6.58-1.27-1.12-2.48-2.65-4.06-3.48-5.85-3.09-11.74-6.11-17.79-8.77-1.39-.61-4.09-.31-5.12,.68-3.94,3.79-7.73,4.07-12.39,1.35-3.21-1.88-6.88-2.97-10.34-4.42,.07-.45,.14-.9,.21-1.36,1.41,0,2.93-.33,4.22,.07,2.85,.87,5.68,1.92,8.34,3.25,3.48,1.74,5.61,.88,6.74-2.76Z"/><path d="M616.29,538.38c-5.2,8.98-5.32,18.75-3.76,29.62-9.56-13.43-.78-41.91,10.05-51.08-2.34,7.91-4.36,14.77-6.38,21.62,0,0,.1-.15,.1-.15Z"/><path d="M484.26,219.6c-3.75,2.63-4.96-1.18-7.05-2.77,.69-.72,1.37-1.43,2.23-2.33-1.59-2.55,.82-6.64,6.76-9.83,3.86-2.08,10.01,1.28,12.46,6.8-6.27,.09-10.57,3.69-14.39,8.13Z"/><path d="M275.8,515.98c2.03,.99,3.79,1.85,6.32,3.08-4.94,11.31-4.56,23.59,1.3,36.68-10.56-5.54-11.48-27.2-7.62-39.77Z"/><path d="M438.28,583.41c5.01-11.27,24.85-27.04,32.89-28.07-7.23,7.63-15.03,16.22-23.31,24.32-1.98,1.94-5.55,2.25-9.58,3.75Z"/><path d="M258.45,445v5.27c-7.85,.79-9.68-.3-13.23-8.61,.37,2.62,.56,4,.77,5.47q-3.43-.78-4.68-9.47c7.25,3.52,14.57,5.47,22.41,5.29,.69,3.21,1.3,6.07,1.92,8.99q-5.82-.16-7.19-6.93Z"/><path d="M505.14,254.72c6.5,7.68,6.43,8.5-1.38,15.57-.36,.32-.8,.56-1.68,1.17-1.9-8.63-2.69-17.69-11.66-22.43,.27-.46,.53-.92,.8-1.37,2.29,1.02,4.63,1.95,6.86,3.1,2.47,1.27,4.84,2.74,7.25,4.13l-.18-.17Z"/><path d="M261.24,173.41c-1.44,8.26-3.2,16.52-4.23,24.87-1.01,8.17-1.28,16.43-2.86,24.9-.6-1.23-1.72-2.47-1.71-3.7,.12-15.23,2.69-30.07,7.66-44.47,.25-.74,.93-1.33,1.13-1.6Z"/><path d="M457.92,174.84c5.28,7.01,10.38,41.67,5.97,48.17-2.06-16.65-4.11-33.15-5.97-48.17Z"/><path d="M271.44,179.22c-.85,4.15-1.97,7.2-2,10.27-.06,6.21-2.67,9.5-9.38,9.34,.07-8.14,3.26-14.62,11.38-19.61Z"/><path d="M458.4,198.92c-6.34-.25-9.45-2.85-9.46-9.06,0-3.21-1.16-6.42-1.95-10.39,8.04,4.52,10.87,11.08,11.41,19.46Z"/><path d="M595.52,528.27c4.12,.63,8.25,1.26,12.37,1.9,.69,1.22,1.37,2.44,2.51,4.46-2.37,.43-4.26,1.41-5.6,.9-7.7-2.9-15.27-6.14-22.89-9.27,.2-.51,.4-1.02,.59-1.53,4.34,1.18,8.68,2.36,13.02,3.54Z"/><path d="M545.87,411.77c.44,4.57,.84,9.15,1.31,13.71,.51,4.99,.54,4.98-5.22,6.31-.42-5.29-1.17-10.54-1.04-15.76,.04-1.68,2.42-3.31,3.73-4.96l1.22,.69Z"/><path d="M290.58,553.42c-.82-.81-2.33-1.6-2.35-2.43-.18-8.21-.11-16.43-.11-25.1,1.49,.35,3.3,.78,4.21,.99v25.6c-.59,.31-1.17,.62-1.76,.93Z"/><path d="M88.19,579.66c-2.09-.93-4.18-1.87-6.27-2.8-1.46-3.03-.46-5.96,1.3-8.2,.86-1.1,4.33-1.76,5.02-1.05,1.76,1.8,3.41,4.43,3.58,6.83,.12,1.65-2.33,3.47-3.63,5.22Z"/><path d="M187.11,326.83c4.99-6.72,9.98-13.44,15.8-21.29-.59,10.98-7.74,20.94-15.8,21.29Z"/><path d="M531.16,326.81c-7.97-.45-14.77-9.77-14.85-19.96,4.95,6.65,9.9,13.31,14.85,19.96Z"/><path d="M323.94,705.64c.2,.39,.4,.78,.6,1.15,1.79,4.04,4.73,8.34-.65,11.75-2.06,1.31-4.83,1.5-7.22,2.18,1.69-5.75,3.23-10.98,4.89-16.67,.45,.3,1.42,.94,2.38,1.58Z"/><path d="M449.86,271.63c5.83-2.74,11.63-2.09,16.81,1.23,1.8,1.16,2.36,4.26,2.82,7.1-5.61-4.02-10.91-7.19-17.84-3.53-.67-1.85-1.21-3.35-1.75-4.89,0-.02-.03,.08-.03,.08Z"/><path d="M481.21,197.51c-.91,1.84-1.82,3.67-2.73,5.51-1.33,2.02-2.66,4.03-3.99,6.05-.59,1.13-1.05,2.36-1.82,3.36-.51,.66-1.49,1.39-2.2,1.33-.76-.06-1.87-.88-2.07-1.59-.28-.99-.1-3.06,.28-3.16,7.61-1.98,3.38-7.18,3.14-11.24-.03-.58-.39-1.14-.58-1.68,3.53,.55,6.83,1.07,10.12,1.58l-.15-.16Z"/><path d="M134.18,492.54c-10.64,5.06-18.99,12.67-30.94,14.44,3.43-4.37,26.32-15.35,30.94-14.44Z"/><path d="M268.13,275.9q-11.43-1.17-19.37,3.69c.69-2.15,.72-5.22,2.19-6.26,4.45-3.15,9.72-4.36,15.06-2.41,.97,.36,1.21,2.73,2.11,4.98Z"/><path d="M109.05,530.81c8.88-1.79,17.77-3.57,26.94-5.42-.34,.47-.77,1.73-1.57,2.06-6.93,2.83-13.85,5.71-20.93,8.11-4.4,1.49-4.37-1.91-4.28-4.89l-.16,.14Z"/><path d="M168.74,407.37c.6,1.95,1.79,3.92,1.7,5.83-.22,4.96-.99,9.9-1.54,14.83-4.31-1.4-5.02-9.95-.17-20.66Z"/><path d="M468.14,586.27c-1.81,3.12-3.74,3.7-7.1,2.61-4.53-1.46-9.39-1.86-14.02-2.7,2.76-3.71,13.66-3.86,21.12,.09Z"/><path d="M551.5,407.88c.57,5.69,1.33,11.38,1.55,17.08,.05,1.23-1.85,2.55-3.34,4.45-.84-6.49-1.76-11.84-2.09-17.23-.09-1.54,1.55-3.19,2.4-4.79l1.48,.49Z"/><path class="cls-1" d="M524,441.15c-4.44,1.9-8.85,3.87-13.33,5.65-2.04,.81-4.21,1.35-6.37,1.73-.61,.11-1.4-.75-2.81-1.58,2.46-1.06,4.45-1.92,6.39-2.76-.48-4.15-.95-8.19-1.42-12.24l1.64-.17c.55,3.91,1.1,7.82,1.69,11.98,4.49-1,9.03-2,13.57-3.01,.22,.11,.44,.24,.64,.38Z"/><path d="M459.15,235.74c.19,2.5,1.23,5.32,.41,7.42-1.81,4.69-4.55,9.02-7.8,13.19,.18-3.53,.07-7.11,.67-10.57,.26-1.47,2.1-2.61,3.05-4.02,1.37-2.02,2.57-4.14,3.85-6.22l-.19,.19Z"/><path d="M259.03,235.52c.83,1.59,1.27,3.72,2.57,4.67,5.86,4.26,4.45,10.39,3.89,16.54-2.42-4.97-5.1-9.84-7.1-14.97-.65-1.66,.5-4.02,.83-6.05l-.19-.18Z"/><path d="M59.15,526.53c-1.92-1.59-3.84-3.18-5.77-4.77,0-.66-.18-1.84,0-1.9,3.5-1.1,6.8-1.19,9.29,2.19,2.63,3.57,2.25,8.4-.69,12.04-.88-2.35-1.85-4.96-2.83-7.57Z"/><path d="M458.86,209.57c-2.57-.17-4.8-.33-7.3-.5-.35-2.94-.67-5.63-.99-8.37,8.29,.27,8.75,.74,8.28,8.87Z"/><path d="M405.27,758.6c-1.66,2.73-3.31,5.46-4.97,8.19-2.18,1.98-4.35,3.96-7.47,6.79,0-1.54-.52-3.2,.09-4.1,2.58-3.84,5.37-7.56,8.41-11.05,.54-.62,2.59,.08,3.94,.17Z"/><path d="M267.54,200.28c-.2,3.08-.36,5.67-.56,8.72-2.44,.2-4.69,.39-6.92,.57-1.94-6.98-1.32-7.79,7.47-9.29Z"/><path d="M474.49,209.07c1.33-2.02,2.66-4.03,3.99-6.05,2.83-.37,5.17-5.18,8.17-1.45-4.08,4.42-8.08,8.75-12.15,13.16v-5.66Z"/><path d="M484.26,219.6c3.82-4.43,8.12-8.03,14.39-8.13,1.06,.39,2.11,.78,2.67,.98-5.21,3.18-10.24,6.26-15.27,9.34l.18-.19c-2.62,1.26-2.07-.59-1.98-2Z"/><path d="M493.29,230.68c.84-.15,1.67-.31,2.5-.46,8.79-1.66,13.49-1.06,17.07,2.07-7.25,.35-14.63,.71-22.86,1.1,1.48-1.22,2.39-1.96,3.29-2.71Z"/><path d="M460.05,226.82c-2.3,1.57-4.6,3.14-7.3,4.98v-9.52c2.06-.27,4.15-.54,6.92-.91,.14,2.01,.26,3.73,.37,5.45,0,0,.02,0,.02,0Z"/><path d="M37.44,542.97c-1.77-.94-3.53-1.88-6.41-3.41,1.9-.95,3.67-2.62,5.23-2.45,4.36,.47,9.2,7.95,8.77,11.91-2.39-1.92-5.07-4.07-7.76-6.22l.17,.17Z"/><path d="M253.47,155.69c-.53,11.88-1.05,23.76-1.58,35.63l-1.77-.08c.67-11.83,1.34-23.66,2.01-35.48,.45-.02,.89-.05,1.34-.07Z"/><path d="M258.56,226.85v-5.38c2.55,.34,4.78,.63,7.14,.94v9.52c-2.73-1.94-4.96-3.53-7.19-5.11l.05,.02Z"/><path d="M452.32,220.65c-.17-2.99-.32-5.71-.48-8.7h7.3c.11,2.38,.22,4.62,.34,7.1-2.44,.55-4.59,1.03-7.16,1.6Z"/><path d="M259.5,211.9h6.53v8.37q-7.66-.88-6.53-8.37Z"/><path d="M243.46,594.25c-1.91-1.92-3.81-3.83-5.72-5.75,.35-.63,.71-1.25,1.06-1.88l12.99,3.19-.37,1.33c-2.67,1.04-5.35,2.08-8.04,3.13-.02,0,.08-.01,.08-.01Z"/><path d="M465.95,191.3v-34.64l.22-.06,2.04,34.64-2.26,.06Z"/><path d="M475.19,594.21c-2.72-1.04-5.43-2.08-8.15-3.13-.15-.42-.3-.83-.45-1.25,4.32-1.07,8.65-2.15,12.97-3.22,.34,.56,.68,1.11,1.03,1.67-1.85,1.97-3.7,3.94-5.52,5.91,.02,0,.13,.01,.13,.01Z"/><path d="M459.34,235.55c-2.1,1.99-4.19,3.99-6.29,5.98-1.19-5.79-1.11-5.71,2.71-9.37,1.63-1.57,2.87-3.55,4.29-5.34,0,0-.02,0-.01,0-.29,2.97-.59,5.95-.88,8.92l.19-.19Z"/><path d="M46.78,525.51c.44,.06,.89,.12,1.33,.18,1.95,4.12,3.89,8.25,5.84,12.37-.25,.04-.5,.08-.75,.11-3.35-3.47-6.7-6.95-10.05-10.42l.17,.17c-.77-.91-1.54-1.81-3.28-3.87,2.97,.64,4.86,1.05,6.74,1.46Z"/><path d="M258.51,226.83c1.11,1.6,1.87,3.75,3.39,4.69,4.01,2.47,4.56,5.89,3.57,11.16-2.45-2.72-4.44-4.94-6.44-7.16l.19,.18c-.21-2.93-.42-5.86-.65-8.82-.02-.03-.07-.05-.07-.05Z"/><path d="M270.68,453.7c-6.48-1.23-2.67-7.11-6.4-10.17,2.83-.41,4.36-.64,6.4-.94v11.11Z"/><path d="M465.59,194c6.35,6.11,7.05,10.33,2.73,14.25-.98-5.11-1.85-9.68-2.73-14.25Z"/><path d="M505.57,583.65c5.42-2.42,8.4-7.85,15.78-5.17-5.58,1.64-8.22,7.87-15.78,5.17Z"/><path d="M453.24,180.03c-1.94-1.36-3.88-2.73-6.03-4.23,.85-2.38,1.64-4.59,2.43-6.8,.49-.05,.99-.09,1.48-.14,1.22,3.46,2.43,6.93,3.65,10.39-.51,.26-1.02,.52-1.52,.78Z"/><path d="M272.02,786.86l2.47,.55c2.22,3.72,1.06,5.35-5.89,7.63,.91-3.08-2.11-7.15,3.42-8.19Z"/><path d="M211.45,584.21c-6.18,2.15-8.68-4.23-14.54-5.25,5.93-2.01,10.98,.13,14.54,5.25Z"/><path d="M271.09,175.83c-2.14,1.49-4.1,2.86-6.06,4.22-.51-.25-1.02-.5-1.54-.74,1.24-3.47,2.47-6.94,3.71-10.42l1.52,.11c.77,2.21,1.53,4.43,2.37,6.83Z"/><path d="M247.19,207.83c-.3-5.18-.04-10.19,5.41-13.76-.78,4.34-1.48,8.7-2.48,13-.1,.42-2.02,.41-3.1,.6l.17,.17Z"/><path d="M513.33,417.48c-1.13-5.3-2.1-9.82-3.06-14.34,5.56,4.2,6.29,8.57,3.06,14.34Z"/><path class="cls-1" d="M364.61,679.54c.74-.22,1.49-.45,3.06-.92-11.47,7.46-13.9,12.57-11.73,23.53-5.02-5.47-2.26-14.99,6.53-22.51l2.14-.1Z"/><path d="M93.36,520.83c-2.23-3.04-4.45-6.08-6.32-8.63,5.82,1.45,11.83,9.58,12.87,18.18-2.19-3.17-4.43-6.43-6.68-9.69l.12,.15Z"/><path d="M511.22,255.72c.42,.37,.85,.75,1.27,1.12-.22,2.44-1.05,2.84-2.94,1.08-1.32-1.23-2.93-2.14-4.42-3.2l.18,.17c-4.44-3.1-8.88-6.19-13.49-9.41,5.07,.24,8.97,3.14,12.92,5.94,2.11,1.5,4.31,2.87,6.48,4.3Z"/><path d="M288.34,744.83c2.07,5.01,.45,6.76-7.78,7.7,2.59-3.09,2.5-7.98,7.93-7.57,0,0-.15-.12-.15-.12Z"/><path d="M435.89,302.55c-1.06,1.31-1.85,3.25-3.22,3.82-5.53,2.31-11.23,4.19-16.87,6.23,.45-.59,.77-1.46,1.37-1.73,6.22-2.83,12.48-5.56,18.72-8.32Z"/><path d="M284.93,546.86v-21.05h1.22v21.07c-.41,0-.82-.01-1.22-.02Z"/><path d="M509.93,579.15c-4.23,2.05-8.47,4.1-12.7,6.15-.34-.7-.69-1.4-1.03-2.1,4.23-2.12,8.45-4.24,12.68-6.36,.35,.77,.7,1.54,1.05,2.3Z"/><path d="M273.18,771.66c1.02,.37,2.04,.73,3.06,1.1,1.84,4.08,1.01,5.26-6.34,7.88,1.24-3.39,2.26-6.19,3.28-8.98Z"/><path d="M554.64,422.68l-1.69-17.44,1.63-.18c.71,5.83,1.41,11.66,2.12,17.5-.68,.04-1.37,.08-2.05,.12Z"/><path d="M221.18,585.32c-4.32-2.12-8.64-4.24-12.96-6.36,.34-.7,.68-1.4,1.01-2.09,4.33,2.1,8.66,4.2,13,6.3-.35,.72-.7,1.44-1.05,2.15Z"/><path d="M165.34,405.08c-.57,5.91-1.14,11.82-1.71,17.72l-1.9-.15c.61-5.87,1.22-11.75,1.82-17.62l1.79,.05Z"/><path d="M298.13,733.68c2.05,2.09,1.78,3.74-1,4.75-2.1,.77-4.25,1.39-6.38,2.08-.31-.57-.62-1.15-.94-1.72,2.82-1.66,5.64-3.32,8.46-4.99l-.15-.13Z"/><path d="M433.32,525.74v20.61h-.96v-20.61c.32,0,.64,0,.96,0Z"/><path d="M72.22,587.74l7.2,5.58c-2.43,4.2-5.36,1.54-7.58,.11-2.48-1.6-2.64-3.98,.37-5.7Z"/><path d="M279.65,757.49c1,1.19,1.99,2.38,2.99,3.57-2.17,1.58-4.34,3.17-6.51,4.75-.48-.41-.96-.83-1.45-1.24,1.72-2.32,3.44-4.64,5.14-6.97-.01,0-.17-.11-.17-.11Z"/><path d="M227.17,441.64c3.26,2.31,8.32-.28,8.77,5.66-4.53,1.6-7.2-.03-8.77-5.66Z"/><path d="M226.24,432.79c.9,5.41,5.13,5.26,9.14,5.48l-.36,1.8c-2.34,0-5.1,.77-6.89-.22-1.69-.93-2.35-3.72-3.46-5.68l1.57-1.37Z"/><path d="M270.88,813.49c2.93,.35,5.11,.61,7.29,.87,.29,.51,.59,1.03,.88,1.54-1.62,1.4-3.25,2.8-5.69,4.9-.96-2.81-1.6-4.69-2.48-7.3Z"/><path d="M433.73,587.22c1.53-.47,3.04-1.03,4.6-1.37,1.55-.34,3.15-.46,4.72-.67l.46,1.41c-3.26,1.15-6.52,2.3-10.42,3.67,.35-1.59,.52-2.35,.69-3.11l-.06,.08Z"/><path d="M57.31,578.91c2.26,3.22,4.53,6.45,6.51,9.27-4.48,.25-7.26-2.83-8.55-11.03,.91,.8,1.54,1.36,2.19,1.93,0,0-.15-.16-.15-.16Z"/><path d="M433.78,587.14c-1.88,2.22-3.75,4.44-5.63,6.67l.19-.2c-2.1,1.77-4.21,3.53-6.67,5.6,3.3-4.29,6.37-8.38,9.6-12.34,.26-.32,1.59,.23,2.43,.36,.02-.02,.08-.09,.08-.09Z"/><path class="cls-1" d="M411.05,780.83q11.47,2.96,19.92-5.53c4.32-4.36,9.08-8.43,12.65-13.34,1.51-2.08,.81-6.04,.5-9.08-.16-1.57-2.1-2.9-2.44-4.51-1.51-7.1-2.73-14.26-3.69-21.76,1.25,2.74,2.87,5.37,3.66,8.23,1.76,6.37,3.07,12.86,4.61,19.29,1.09,4.56,.07,8.35-3.38,11.71-4.88,4.75-9.39,9.87-14.23,14.66-5.7,5.65-10.61,5.62-17.5,.23l-.1,.11Z"/><path d="M476.43,791.81c-5.3,10.09-16.39,15.03-30.76,13.21,11.61-.6,21.63-4.56,29.39-13.34,.46,.04,.91,.09,1.37,.13Z"/><path class="cls-1" d="M425.84,774.31c-5.87,6.98-6.22,7.04-15.37,2.53,5.45,1.26,10.85,2.19,15.37-2.53Z"/><path d="M477.39,789.25l.33,.04v.33c-.09-.15-.2-.27-.33-.38Z"/><path d="M652.07,257.82c-1.93-.71-4.69-.87-5.37-2.14-2.2-4.12-.64-7.87,3.3-11.93-1.11,3.58-2.6,6.14-2.43,8.59,.12,1.69,2.53,3.22,4.5,5.48Z"/><path class="cls-1" d="M338.8,373.98c.51-7.28,.97-13.69,1.42-20.1h1.02v19.34c2.84-.37,2.77-.38,3.05-8.8,.12-3.64,.63-7.27,.97-10.9,.53,.01,1.06,.03,1.59,.04-.36,6.48-.71,12.96-1.08,19.62h31.07v-18.86c.4-.03,.79-.06,1.19-.09,.48,6.11,.96,12.22,1.49,19.01,6.54,0,13.16,.07,19.78-.09,.9-.02,2.03-1.06,2.6-1.92,1.91-2.87,2.78-6.85,7.78-5.87,.6,.12,1.87-2.01,2.45-3.27q5.13-11.21,16.98-7.98c2.72,.74,5.54,1.23,8.12,2.31,1.86,.77,5.83,.24,4.03,4.53-.01,.03,1.21,.51,1.81,.87,1.41,.84,2.79,1.72,4.18,2.59-.23,.4-.45,.79-.68,1.19-1.23-.51-2.47-1.01-4.59-1.88-.54,2.14-1.15,4.43-1.7,6.72-.56,2.34-1.07,4.68-1.73,7.57-9.07-2.76-17.48-5.16-25.78-7.91-4.07-1.35-6.47-.78-7.9,3.66-.43,1.34-2.9,2.85-4.45,2.86-27.5,.17-54.99,.18-82.49-.02-1.61-.01-4.02-1.79-4.65-3.33-1.56-3.79-3.69-4.48-7.37-3.29-8.35,2.71-16.77,5.24-25.21,7.64-2,.57-4.22,.32-6.34,.44l-.45-2.05c10.01-3.16,20.02-6.32,31.51-9.95-3.04-3.73-5.09-8.22-8.5-9.84-2.87-1.36-7.6-.05-11,1.34-2.81,1.14-4.87,4.12-7.61,6.6-.82-2.52-1-5.57,2.55-7.05,5.02-2.09,10.22-4.3,15.53-4.91,2.26-.26,5.27,3.11,7.38,5.36,1.76,1.88,2.41,6.25,4.07,6.54,5.72,.98,7.09,5.91,10.27,9.19,.65,.67,2.16,.67,3.28,.68,5.65,.06,11.31,.03,17.4,.03Zm98.56,.67c2.65-4.22,2.14-14.41-1.65-15.68-4.92-1.64-10.44-3.52-15.24-2.67-2.69,.48-4.45,6.26-6.64,9.66,8.13,3,15.76,5.82,23.53,8.69Z"/><path class="cls-1" d="M424.65,402.28c.29,.13,1.15,.54,2.03,.95,.2-.29,.55-.69,.5-.75-4.89-5.61-10.38-11.5-17.99-11.61-32.48-.48-64.98-.13-97.47-.21-9.32-.02-14.42,6.81-21.16,11.01l.82,1.52c2.61-1.54,5.21-3.08,7.82-4.62-3.61,3.16-7.83,5.64-6.66,11.58-.22-1.63-.43-3.26-.65-4.89l-1.41-.08c-.33,5.91-.66,11.81-.99,17.72l-.55-.08c0-7.03,0-14.06,.02-21.08,0-.48,.1-1.15,.41-1.4,6.12-4.78,10.79-11.68,19.95-11.72,30.82-.16,61.64-.42,92.46-1.15,7.39-.17,13.18,1.72,19.28,5.85,7.36,4.97,10.31,10.93,10.04,19.59-.37,12.11-.37,24.27,.27,36.37,.33,6.19-3.46,9.67-6.31,14.02-3.17,4.84-7.08,6.76-13.15,6.66-23.98-.37-47.98-.07-71.97-.07-1.43,0-2.86-.48-4.29-.73,.06-.6,.12-1.21,.18-1.81,4.05,0,8.1,.02,12.14,0,21.99-.11,43.97-.28,65.96-.29,3.62,0,5.85-1.48,8.51-3.94,6.96-6.44,8.29-13.74,7.08-22.84-1.32-9.94-.91-20.1-1.33-30.16-.07-1.63-.55-3.25-1.37-4.71v40.56l-.45,.04c-.58-14.65-1.16-29.29-1.72-43.72Z"/><path class="cls-1" d="M384.17,396.66h-20.59l-.1,1.25c4.8,.38,9.62,.58,14.38,1.24,1.38,.19,2.59,1.67,3.58,2.88-5.51-3.13-11.65-1.38-17.92-2.51v48.13c-.52,.03-1.03,.06-1.55,.08v-24.45h-1.97v30.38c-.56,0-1.11,0-1.67,.01,0-10.08-.11-20.16,.03-30.24,.12-8.49,.42-16.99,.92-25.46,.08-1.31,1.64-3.6,2.59-3.63,7.6-.3,15.21-.17,23.47-.17,0,3.53-.01,5.98,0,8.43,.05,8.64,.05,8.71,8.92,8.89,6.47,.13,12.94,.02,19.95,.02v34.45c-3.07,.14-6.09-.24-8.79,.51-6.83,1.91-13.33,0-19.98,.12-.01-.56-.03-1.13-.04-1.69l7.32-.65v-7.18c-1.3-.35-2.65-.7-5.01-1.33,2.27-.69,3.68-1.12,5.25-1.6v-8.5c-1.78-.09-3.52-.18-5.72-.3v14.44c-.43,.02-.86,.05-1.29,.07-.55-7.05-1.1-14.09-1.64-21.14,.52-.08,1.04-.17,1.56-.25,.49,1.4,.98,2.81,1.54,4.41h5.23c.37-1.16,.78-2.46,1.49-4.69,.58,2.05,.91,3.22,1.27,4.49h6.69c.48-2.03,.93-3.92,1.66-6.99,.28,2.91,.45,4.63,.64,6.63,1.8,.4,3.68,.82,5.57,1.23-.04,.34-.07,.69-.11,1.03-1.71,.3-3.42,.61-5.46,.97v8.13h6.68c.78-6.61,1.51-12.87,2.37-20.15-3.57,.27-6.84,.08-9.85,.86-3.96,1.02-7.48,.04-11.31-.32-10.47-.97-8.11-7.71-8.13-13.82,0-.98,0-1.96,0-3.6Zm10.29,47.18c4.75,.23,9.22,.11,13.58,.77,3.58,.54,4.63-.7,4.28-3.92-.16-1.46-.4-2.91-.62-4.51h-8.11c-.28,1.94-.51,3.56-.82,5.73l-1.1-5.64c-7.45-.1-7.62,.08-7.21,7.58Zm.84-9.57c7.55,.62,7.83,.25,6.42-8.46-6.99-1.09-8.22,.54-6.42,8.46Z"/><path class="cls-1" d="M399.47,164.76c-.44,.24-.92,.74-1.31,.67-6.72-1.12-11.68,1.86-16.22,6.43-.92,.92-3.12,.78-4.73,.79-11.12,.06-22.27-.36-33.36,.24-4.48,.24-7.48-.62-9.53-4.37-2.3-4.21-5.43-4.53-10.01-3.93-9.91,1.31-18.6,5-26.95,10.27-10.73,6.78-16.68,16.14-18.33,28.77-1.65,12.68-2.13,25.27,1.08,37.68,4.79,18.49,16.71,30.98,34.02,38.58,1.42,.62,2.85,1.2,4.28,1.8l-.32,1.43c-2.27-.34-4.84-.12-6.78-1.12-19.27-9.85-30.38-25.73-33.92-46.97-2.05-12.32-1.05-24.56,1.27-36.74,2.34-12.29,9.93-20.7,20.67-25.94,9.3-4.54,19.22-7.79,28.87-11.62l-.08-.11c.06,.31,0,.78,.2,.91,3.93,2.82,7.78,5.78,11.91,8.28,1.4,.85,3.51,.72,5.29,.69,9.95-.15,19.89-.31,29.83-.71,1.76-.07,4.13-.79,5.09-2.06,3.44-4.57,7.31-6.28,12.83-3.96,1.93,.81,4.22,.76,6.34,1.1l-.16-.12Z"/><path class="cls-1" d="M423.63,176.01c7.92,4.34,13.31,10.84,15.35,19.58,3.71,15.92,4.5,31.98,.12,47.91-4.79,17.4-21.23,40.76-49.48,43.37-5.46,.5-10.85,1.76-16.31,2.15-5.33,.38-10.71,.08-16.07,.08l-.28-1.51c1.76-.47,3.5-1.16,5.3-1.39,11.52-1.48,23.19-2.15,34.55-4.41,21.63-4.31,38.91-23.39,42.44-45.18,2.13-13.17,1.47-26.21-1.16-39.18-1.84-9.07-7.23-15.91-14.45-21.43Z"/><path class="cls-1" d="M444.7,222.53c2.82,31.07-6.61,56.36-37.19,66.59-12.72,4.26-25.64,6.9-39,7.42-1.92,.08-3.87-.63-5.81-.97,.05-.44,.1-.88,.15-1.32,6.79-.83,13.7-1.13,20.34-2.62,9.67-2.18,19.43-4.5,28.66-8.04,19.35-7.44,28.57-22.93,31.34-42.76,.8-5.72,.97-11.53,1.51-18.31Z"/><path class="cls-1" d="M467.23,443.68c-.36,1.76-.72,3.52-1.2,5.89h5.47c-.33,.87-.53,2.67-1.15,2.83-6.17,1.54-12.35,5.85-19.01,.07,.4-2.71,.86-5.77,1.35-9.1-1.62-.25-3.05-.46-5.48-.83,0,2.91,.16,5.49-.08,8.03-.1,1.06-1.04,2.04-1.6,3.06-.76-1.01-2.16-2.01-2.18-3.03-.17-8.96-.1-17.93-.1-26.92,3.69,.55,3.71,.55,3.81,7.04,.05,3.12,0,6.24,0,10.29,9.61-1.5,18.41-2.87,27.4-4.27-2.3,2.22-4.84,4.68-7.39,7.14-.95-.72-1.95-2.11-2.85-2.05-3.23,.22-6.43,.94-9.8,1.49-.59,3.07-1.17,6.04-1.75,9.06,4.44-.69,8.31-1.29,11.68-1.81,.96-2.3,1.91-4.59,2.86-6.88Z"/><path class="cls-1" d="M324.83,291.08c-4.75,2.1-19.69-2.98-29.2-9.39-21.69-14.62-22.83-37.08-22.15-60.03,.25,2.87,.66,5.73,.72,8.61,.2,10.27,2.08,20.17,6.4,29.53,6.19,13.42,17.27,21.1,30.71,26.02,4.37,1.6,8.67,3.37,13.53,5.26Z"/><path class="cls-1" d="M356.36,338.97c6.7-.58,13.4-1.15,21.04-1.81-.58-2.61-1.11-5.05-1.65-7.48-.57,.12-1.14,.23-1.71,.35l-.63,5.62-.79,.05c-.18-1.69-.36-3.38-.69-6.4-1.77,1.03-3.11,1.8-4.52,2.62-.23-.27-1.14-1.35-2.98-3.54v7.28c-.22,.03-.45,.07-.67,.1-.38-2.52-.76-5.05-1.3-8.67,7.8,0,15.73-.15,23.64,.12,1.65,.06,4.52,1.55,4.63,2.61,.32,3.17,1.59,7.33-3.4,8.56-1.77,.44-3.58,.84-5.39,.97-7.12,.53-14.24,1-21.37,1.37-1.48,.08-2.99-.4-4.48-.63,.09-.37,.19-.75,.28-1.12Zm22.29-2.13c9.46,.62,12.39-.85,9.42-7.61-.56,1.4-.97,2.42-1.42,3.52-1.61-5.4-5.35-2.27-8.55-2.62,.21,2.54,.38,4.65,.54,6.71Z"/><path class="cls-1" d="M271.36,425.05c.71-11.43,1.44-22.86,2.12-34.29,.13-2.14-.25-4.34,.11-6.42,.31-1.74,1.37-3.34,2.1-5l1.89,.64c-.51,10.35-1,20.7-1.52,31.05-.21,4.11-.31,8.23-.81,12.3-.13,1.07-1.55,1.99-2.38,2.98-.5-.42-1-.84-1.5-1.25Z"/><path class="cls-1" d="M252.05,312.12c4.75-5.44,9.5-10.89,14.25-16.33l-.1-.1c-7.62,9.66-13.87,20.11-18.17,31.66-2.78,7.45-5.39,14.96-8.16,22.42-.5,1.34-1.41,2.53-2.79,3.48,2.92-14.51,8.44-28,14.98-41.11h0Z"/><path class="cls-1" d="M353.82,451.13c-.31-4.55-.62-9.1-.98-14.36h-27.4c-.09-.5-.18-1-.27-1.51,1.36-.31,2.73-.9,4.09-.88,7.8,.11,15.6,.26,23.38,.72,1.04,.06,2.71,1.94,2.8,3.08,.33,4.26,.13,8.57,.13,12.86l-1.75,.09Z"/><path class="cls-1" d="M363.28,454.96c17.06-.63,34.13-1.27,51.19-1.9,.02,.7,.03,1.39,.05,2.09h-51.23v-.19Z"/><path class="cls-1" d="M204.89,399.6c.82,.5,1.65,1,2.95,1.79,.73-2.66,1.36-4.94,1.89-6.86,.36,2.83,.75,5.94,1.21,9.53-.67,.99-1.86,2.74-3.35,4.91v-6.47c-.39-.1-.77-.2-1.16-.3-1.05,1.5-2.1,3-3.69,5.29,.49-2.56,.8-4.19,1.1-5.72-8.04-4.14-15.79-8.13-23.54-12.11l.7-1.26c8.02,3.77,16.04,7.54,24.05,11.31,0,0-.16-.12-.16-.12Z"/><path class="cls-1" d="M229.1,384.11c1.23-5.04,2.32-9.48,3.4-13.91,.45,.08,.91,.17,1.36,.25-1.28,7.84-2.56,15.68-3.85,23.56-3.16-1.68-3.26-2.13-2.06-7.6-1.85-1.72-3.5-3.24-5.14-4.77,.34-.4,.68-.8,1.01-1.2,1.46,1.02,2.93,2.04,5.28,3.68Z"/><path class="cls-1" d="M331.91,336.36v-5.39q2.09,5.82,11.28,7.47c-2.92,1.44-12.17,1.52-13.75-.83-1.71-2.54-1.84-6.14-2.64-9.22,5.29-.31,9.37-.56,13.46-.8l.07,.95c-3.58,.48-7.16,.96-11.32,1.51,.28,2.25,.55,4.49,.83,6.73,.69-.14,1.39-.29,2.08-.43Z"/><path class="cls-1" d="M490.43,420.7v-19.03c.38-.08,.76-.17,1.14-.25,.39,1.98,.78,3.97,1.33,6.78,2.1-3.59,3.88-6.62,5.65-9.65,.34,.16,.69,.32,1.03,.49-3,7.09-5.99,14.19-9.15,21.67Z"/><path class="cls-1" d="M381.47,409.44v36.92c-.24,0-.48,0-.73,.01v-37.11l.73,.18Z"/><path class="cls-1" d="M311.34,301.95c6.38,1.46,12.77,2.92,20.22,4.62-1.53,.84-2.62,1.96-3.29,1.74-5.79-1.85-13,.4-17.51-5.16l.58-1.2Z"/><path class="cls-1" d="M473.22,345.61c4.79,6.96,6,14.76,5.87,22.86-.52,.12-1.04,.24-1.56,.35-1.39-7.7-2.79-15.41-4.18-23.11l-.13-.1Z"/><path class="cls-1" d="M283.66,325.24c1.35,8.63,2.7,17.26,4.05,25.88-.67,.11-1.34,.21-2.01,.32-1.25-8.64-2.49-17.29-3.74-25.93,.57-.09,1.13-.18,1.7-.28Z"/><path class="cls-1" d="M352.26,165.55c2.81-3.01,4.66-4.98,7.08-7.57,2.09,2.56,3.96,4.85,6.7,8.21-4.99-.23-8.62-.4-13.78-.64Z"/><path class="cls-1" d="M313.86,411.37c.45-.67,.91-1.34,1.85-2.74-5.99-.32-11.46-.61-16.93-.9v-1.18h22.91c-3.14,1.86-5.55,3.28-7.96,4.71l.12,.11Z"/><path class="cls-1" d="M430.63,351.24c1.34-8.69,2.67-17.38,4.01-26.07l1.63,.25c-1.19,8.71-2.38,17.42-3.57,26.13-.69-.1-1.38-.21-2.07-.31Z"/><path class="cls-1" d="M321.25,423.01h-22.54c-.01-.41-.02-.81-.03-1.22h22.55l.02,1.22Z"/><path class="cls-1" d="M330.38,445.28h18.78c.4-1.91,.75-3.61,1.1-5.31,.3-.02,.6-.03,.9-.05,.1,2.25,.2,4.5,.31,6.82h-21.13l.04-1.46Z"/><path class="cls-1" d="M342.69,414.02c1.15-2.19,2.1-4.01,3.05-5.82,.28,.13,.57,.27,.85,.4-1.19,2.77-2.37,5.54-3.85,8.98-1.48-1.74-2.48-2.91-3.67-4.3-1.08,1.39-2.12,2.73-3.63,4.67-1.3-3.55-2.39-6.51-3.47-9.47,.27-.11,.55-.22,.82-.33,.89,1.89,1.78,3.77,2.83,5.99,1.15-1.39,2.22-2.67,3.48-4.2,1.46,1.66,2.41,2.74,3.59,4.08Z"/><path class="cls-1" d="M214.91,370.25c.37-4.45,.74-8.9,1.12-13.35,.57-.09,1.14-.17,1.71-.26,.5,1.28,1.75,2.88,1.35,3.77-1.43,3.23,1.15,7.86-4.18,9.85Z"/><path class="cls-1" d="M445.08,405.74c.5,4.51,1.03,8.35,1.28,12.21,.06,.91-.81,1.88-1.25,2.82-.79-.81-2.25-1.62-2.26-2.44-.06-4.16-2.61-8.8,2.23-12.58Z"/><path class="cls-1" d="M320.34,435.02h-22.35v-1.04h22.35c0,.35,0,.69,0,1.04Z"/><path class="cls-1" d="M435.04,352.9c1.66-9.06,3.32-18.12,4.97-27.17,.42,.08,.83,.15,1.25,.23l-4.9,27.2-1.32-.25Z"/><path class="cls-1" d="M399.63,164.88c-9.6-2.84-19.19-5.67-28.79-8.51l.14-.74c10.36,2.57,20.72,5.13,31.08,7.7l-.28,1.42c-.78,0-1.56,0-2.32,0,0,0,.16,.12,.16,.12Z"/><path class="cls-1" d="M373.3,353.51c.32,5.76,.63,11.52,.95,17.29-.61,.03-1.23,.07-1.84,.1l-1.07-17.29c.65-.03,1.31-.06,1.96-.1Z"/><path class="cls-1" d="M252.06,312.13c-5.78,1.53-10.99-.44-16.25-2.07l-.05-1.47c1.54-.13,3.2-.68,4.6-.3,3.95,1.07,7.79,2.53,11.68,3.84h0Z"/><path class="cls-1" d="M281.51,350.32c-.35-1.6-.75-3.2-1.04-4.81-1.41-7.82-2.79-15.64-3.16-23.66,1.89,9.46,3.78,18.91,5.67,28.37-.49,.03-.97,.07-1.46,.1Z"/><path class="cls-1" d="M313.74,411.26c2.12,1.18,4.23,2.37,7.08,3.95h-22.26l-.04-1.56c3.29,0,6.61,.26,9.86-.1,1.89-.21,3.68-1.4,5.5-2.17-.02-.02-.14-.13-.14-.13Z"/><path class="cls-1" d="M246.13,290.74c5.33-1.02,10.39-.32,15.16,2.09-.04,.43-.09,.86-.13,1.29-4.47-.46-8.95-.84-13.4-1.46-.58-.08-.98-1.37-1.47-2.1l-.16,.17Z"/><path class="cls-1" d="M482.83,410.42c3.93,3.59,4.11,10.03,0,12.22v-12.22Z"/><path class="cls-1" d="M510.28,512.79c-3.07,3.37-6.14,6.73-9.2,10.1-.35-.26-.71-.52-1.06-.79,3.6-4.86,7.19-9.72,10.79-14.58,.41,.26,.82,.51,1.23,.77-.63,1.55-1.27,3.1-1.9,4.65l.14-.15Z"/><path class="cls-1" d="M454.47,303.76c3.37,5.55,6.05,9.97,9.05,14.93-4.78-1.75-9.25-8.86-9.05-14.93Z"/><path class="cls-1" d="M201.58,331.1c.09-1.1-.18-2.42,.34-3.26,2.84-4.58,5.88-9.04,9.45-14.46-1.63,7.64-5.03,13.02-9.92,17.59,.01,.01,.12,.13,.12,.13Z"/><path class="cls-1" d="M318.25,446.6c-5.68-.26-11.37-.39-17.03-.92-.79-.07-1.41-2.08-1.7-3.43,5.78,4.95,12.61,1.31,18.6,2.77,.04,.53,.09,1.05,.13,1.58Z"/><path class="cls-1" d="M510.15,512.94c1.08-.58,2.15-1.17,3.23-1.75,.31,.37,.61,.73,.92,1.1-2.79,4.17-5.58,8.34-8.38,12.51-.36-.17-.71-.34-1.07-.5,1.81-3.84,3.62-7.68,5.43-11.51l-.14,.15Z"/><path class="cls-1" d="M238.07,355.77c-1.05,3.89-2.1,7.77-3.15,11.66-.3-4.31-2.13-8.96,1.87-12.26,.43,.2,.86,.4,1.29,.6Z"/><path class="cls-1" d="M491.98,518c1.89-4.28,3.78-8.56,5.75-13.02,2.18,2.69-.86,10.1-5.75,13.02Z"/><path class="cls-1" d="M229.19,319.79c5-2.54,8.24,1.05,11.92,3.09-.18,.51-.35,1.03-.53,1.54-3.77-1.59-7.53-3.17-11.3-4.76l-.09,.12Z"/><path class="cls-1" d="M318.34,402.17h-15l-.03-.67h15.12l-.09,.67Z"/><path class="cls-1" d="M500.12,437.96v11.34c-1.67,.35-3.39,.72-5.12,1.08-.25-.36-.49-.72-.74-1.07,1.45-1.17,2.9-2.35,5.03-4.08v-7.28h.82Z"/><path class="cls-1" d="M473.34,345.71c-1.86-3.27-3.73-6.54-5.59-9.82l1.87-1.22c.99,1.33,2.23,2.55,2.92,4.02,.94,1.99,1.47,4.16,2.09,6.28,.02,.07-.92,.41-1.42,.63l.13,.1Z"/><path class="cls-1" d="M487.9,512.73c-1.65-6.24-3.3-12.47-4.95-18.71,.38-.1,.76-.21,1.14-.31,1.73,6.21,3.46,12.43,5.19,18.64l-1.38,.37Z"/><path class="cls-1" d="M287.27,319.05c-4.45-4.98-8.9-9.95-13.35-14.93l.85-.78c4.52,4.9,9.04,9.81,13.55,14.71-.35,.33-.7,.66-1.06,.99Z"/><path class="cls-1" d="M337.49,454.56h12.31c0,.39,0,.78,.01,1.17h-12.31v-1.17Z"/><path class="cls-1" d="M543.65,459.47c-6.29,.85-12.57,1.69-18.86,2.54l-.17-1.12c6.24-.87,12.47-1.74,18.71-2.61,.1,.4,.21,.8,.31,1.19Z"/><path class="cls-1" d="M288.09,471.2c3.1,2.83,5.35,4.89,7.6,6.94-.41,.42-.83,.85-1.24,1.27-2.37-1.94-6.58-2.11-6.36-8.21Z"/><path class="cls-1" d="M442.44,390.61c3.93,3.28,3.77,5.54-1.4,10.56,.54-4.05,.95-7.14,1.4-10.56Z"/><path class="cls-1" d="M489.16,319.65l-11.39,4.42c-.15-.43-.31-.86-.46-1.29,3.65-2.14,6.98-5.39,11.94-3.01l-.09-.12Z"/><path class="cls-1" d="M334.42,421.58c5.28,5.15,8.52-.95,12.75-2.08-1.88,5.91-7.85,7-12.75,2.08Z"/><path class="cls-1" d="M486.89,363.45c-.48,.79-1.14,1.54-1.4,2.4-.26,.85-.13,1.82-.18,2.73l-1.24,.06c-.99-3.85-1.98-7.7-3.24-12.59,2.57,3.15,4.31,5.28,6.05,7.41v-.02Z"/><path class="cls-1" d="M328.21,160.72c6.34-3.21,13.13-3.93,20.12-3.54-6.73,1.15-13.47,2.29-20.2,3.44l.08,.11Z"/><path class="cls-1" d="M494.25,394.56l-2.73,5.41c-.43-.06-.87-.12-1.3-.18-.34-2.5-.68-5.01-1.01-7.51,.44-.2,.87-.4,1.31-.6,.82,1.44,.35,5.36,3.73,2.88Z"/><path class="cls-1" d="M349.53,406.12v11.59h-.92v-11.62l.92,.03Z"/><path class="cls-1" d="M370.74,344.99l20.08-1.34,.05,.94-20.33,1.3,.19-.9Z"/><path class="cls-1" d="M465.72,548.79c-5.03,3.26-10.13,6.42-15.06,9.82-1.67,1.15-2.95,2.89-4.36,4.41-2.14,2.31-3.61,4.34-7.91,4.18-3.54-.14-7.25,3.86-11.62,6.47,1.84,.8,2.72,1.19,4.06,1.77-2.63,2.49-4.34,5.42-8.51,3.68-.85-.35-2.52,.87-3.64,1.62-12.35,8.27-17.77,21.06-22.38,34.38-1.76,5.09-3.58,10.16-5.46,15.21-.26,.71-1.01,1.24-1.53,1.86-.47-.23-.94-.47-1.42-.7,2.96-8.35,5.81-16.73,8.93-25.02,1.33-3.54,2.81-7.16,4.91-10.27,12.49-18.45,30.23-30.73,49.34-41.31,4.58-2.53,9.24-4.91,13.86-7.37l.79,1.26Z"/><path class="cls-1" d="M334.07,647.87c2.5,1.63,4.99,3.26,7.88,5.14-.85-12.13-1.67-23.75-2.49-35.46,4.16-.91,1.4-4.57,1.68-7.04,.36-3.11,.09-6.28,1.11-9.43,0,4.59,.22,9.19-.08,13.76-.2,3.04,.74,4.76,3.34,6.44,7.19,4.63,14.32,5.68,21.87,.69-8.44,9.38-16.56,4.72-25.81-1.53,.5,9.54,1.63,17.76,1.16,25.88-.42,7.38,2.83,11,9.07,13.22,3.39,1.21,6.74,2.56,10.98,4.17-12.72-.91-21.57-6.81-28.61-15.97l-.1,.11Z"/><path class="cls-1" d="M474.57,623.85c-22.74,21.57-47.47,40.82-74.64,56.87,24.89-18.97,49.79-37.94,74.64-56.87Z"/><path class="cls-1" d="M359.43,705.79c8.24,0,16.48-.08,24.71,.02,11.21,.13,27.29,12.1,28.06,28.26-.94-1.98-1.55-2.98-1.9-4.05-5.04-15.45-16.61-23.33-32.93-22.62-5.98,.26-11.97,.04-17.96,.04l.02-1.64Z"/><path class="cls-1" d="M362.52,587.26c-5.76-.96-11.51-1.93-17.45-2.92-.82,2.33-1.82,5.18-2.82,8.04-.29-.08-.58-.15-.87-.23l1.72-7.87-.49-.19c-.98,1.9-1.95,3.8-2.93,5.69l-.89-.09c.66-6.69,1.32-13.37,1.98-20.06h1.08c.12,1.46,.29,2.92,.35,4.39,.06,1.49,.01,2.98,.53,4.69,.44-1.31,.88-2.62,1.33-3.97,1.15,.55,2.1,1.01,2.7,1.29-.65,.85-1.9,1.77-1.92,2.71-.02,1.02,.89,2.69,1.77,2.99,3.59,1.25,7.3,2.14,11,3.07,1.7,.43,3.46,.64,5.2,.95l-.28,1.51Z"/><path class="cls-1" d="M296.77,569.94c5.68-.27,24.19,14.8,28.61,24.18-9.34-7.89-18.68-15.79-28.61-24.18Z"/><path class="cls-1" d="M368.55,691.48c-.41,1.82-.82,3.65-1.61,7.21,6.51-3.32,11.9-6.06,17.47-8.9-.61,.87-1.11,2.38-2.13,2.91-4.81,2.5-9.55,5.54-14.71,6.88-7.1,1.84-10.03-2.1-7.43-9.03,.67-1.77,1.95-3.31,3.72-6.21-1.12,4.71-1.9,7.97-2.67,11.23,.69,.28,1.37,.57,2.06,.85,1.47-1.72,2.93-3.44,4.4-5.16,.3,.07,.61,.15,.91,.22Z"/><path class="cls-1" d="M294.02,596.15c-4.93-6.34-9.86-12.68-14.92-19.18,5.36-1.46,6.87,3.73,9.5,6.1,3.76,3.39,5.06,9.14,9.98,11.8,.18,.1-.14,1.11-.21,1.69-.76,.64-1.53,1.29-2.3,1.94-.69-.79-1.38-1.57-2.06-2.36Z"/><path class="cls-1" d="M493.26,618.43c-.28-3.23-2.26-2.92-4.94-2.44,1.85-2.34,3.71-4.67,5.56-7.01-.35-.32-.7-.64-1.05-.96-1.04,.88-2.09,1.76-3.64,3.08,1.21-4.89,2.26-9.14,3.23-13.07,.02,.02,.94,1.01,1.89,2.04,2.41-1.15,4.84-2.32,7.79-3.73-2.65,3.91-5.46,6.87-6.83,10.38-1.4,3.62-1.39,7.78-2,11.71Z"/><path class="cls-1" d="M296.08,598.51c.77-.65,1.54-1.3,2.3-1.94,1.27,1.51,3.41,2.9,3.64,4.55,.35,2.51-.43,4.77,3.42,5.03,.84,.06,1.47,3.18,2.44,5.47h-7.42l-.21-.85c.72-.39,1.44-.79,2.41-1.32-.79-1.18-1.57-2.34-2.35-3.51-1.42-2.47-2.83-4.95-4.25-7.42Z"/><path class="cls-1" d="M340.12,595.46c13.18,5.43,25.81,5.87,38.38-.47-7.44,8.19-30.45,8.58-38.38,.47Z"/><path class="cls-1" d="M261.06,551.48c5.46,3.17,10.91,6.35,17.2,10-2.77,1.31-4.01,1.9-4.1,1.94-5.08-3.65-9.62-6.91-14.16-10.18,.36-.59,.72-1.18,1.07-1.77Z"/><path class="cls-1" d="M296.08,598.51c1.42,2.47,2.83,4.95,4.25,7.42-.52,3.44-1.94,1.74-2.88,.37-1.94-2.84-3.48-5.97-5.55-8.71-1.84-2.43-4.18-4.49-7.03-7.49,2.05,1.11,3.64,1.83,5.08,2.78,1.44,.96,2.72,2.16,4.07,3.26,.69,.79,1.38,1.57,2.06,2.36Z"/><path class="cls-1" d="M377.37,569.63c.67,6.68,1.35,13.36,2.14,21.24-5.42-7.5-2.71-14.64-2.14-21.24Z"/><path class="cls-1" d="M297.37,578.61c7.03,1.42,12.39,6.11,13.78,12.43-4.26-3.84-8.52-7.68-13.78-12.43Z"/><path class="cls-1" d="M488.23,677.53c7.93,1.49,15.28,2.88,22.8,4.29-8.04,1.46-15.37-.02-22.8-4.29Z"/><path class="cls-1" d="M372.74,576.67c-1.97,.31-3.87,.62-6.95,1.11,3.57-1.39,5.99-2.34,8.65-3.38,.7,5.47,1.47,11.59,2.25,17.71-.32,.08-.65,.17-.97,.25-.96-5.06-1.92-10.12-2.98-15.69Z"/><path class="cls-1" d="M387.39,582.78c6.45-3.99,12.89-7.97,19.34-11.96,.26,.41,.51,.81,.77,1.22-6.39,4.03-12.77,8.07-19.16,12.1l-.95-1.36Z"/><path class="cls-1" d="M376.91,603.65c.42,8.31,.84,16.62,1.26,24.93-.58,.01-1.16,.02-1.74,.03v-25.17c.16,.07,.32,.14,.48,.21Z"/><path class="cls-1" d="M312.37,619.04c-.68,.48-1.23,.88-2.28,1.63,1.26,.18,2.46,0,2.85,.48,.89,1.08,1.54,2.44,1.92,3.79,.13,.44-1.21,1.78-1.28,1.73-1.14-.7-2.56-1.35-3.19-2.43-1.52-2.62-2.67-5.46-4.09-8.48,2,1.08,3.69,2,6.06,3.27Z"/><path class="cls-1" d="M325.69,594.65c5.23,1.76,10.28,8.09,9.9,11.61-3.13-3.66-6.29-7.37-9.9-11.61Z"/><path class="cls-1" d="M330.02,583.94c-4.21-2.51-8.42-5.01-12.62-7.52,.31-.51,.62-1.01,.93-1.52,4.2,2.66,8.4,5.32,12.6,7.98l-.9,1.06Z"/><path class="cls-1" d="M400.07,650.3c.7,1.95,2.15,4.04,1.82,5.79-.22,1.17-2.99,1.86-5.28,2.05,2.46-2.19,3.92-4.15,.59-7.5,.96-.11,1.91-.23,2.87-.35Z"/><path class="cls-1" d="M354.73,669.21c-5.05-2.12-10.11-4.25-15.16-6.37,.15-.39,.31-.78,.46-1.16,5.07,2.1,10.14,4.19,15.21,6.29l-.51,1.24Z"/><path class="cls-1" d="M580.67,569.79c-5.54,2.84-10.05,5.17-14.74,7.58,5.54,4.17,10.66,8.02,15.79,11.87-.2,.24-.39,.48-.59,.73-4.87-3.35-9.66-6.81-14.66-9.96-1.11-.7-3.3-.91-4.36-.28-14.87,8.92-30.16,17.3-41.71,30.73-1.17,1.36-2.3,2.75-4.4,3.4,3.07-3.87,5.66-8.28,9.3-11.52,15.56-13.8,33.64-23.64,52.46-32.19,.52-.24,1.19-.16,2.91-.36Z"/><path class="cls-1" d="M565.96,633.54c5.43,10.96,12.6,21.44,9.85,34.64-3.28-11.55-6.57-23.09-9.85-34.64Z"/><path class="cls-1" d="M592.58,661.2c-2.59-10.74-4.78-19.84-6.97-28.95l.73-.32c1.78,4.78,3.85,9.47,5.24,14.36,1.28,4.49,1.64,9.19,1,14.91Z"/><path class="cls-1" d="M506.3,645.6c-5.55,8.43-5.44,16.19,2.24,23.28-10.16-5.67-11.01-14.17-2.24-23.28Z"/><path class="cls-1" d="M609.17,643.91c8.35-5.8,12.41-14.61,16.44-24.23,.09,7.72-8.07,20.41-17.61,27.59,.63-1.64,.98-2.58,1.34-3.51l-.17,.15Z"/><path class="cls-1" d="M535.85,673.47c-8.19-.71-16.39-1.42-24.58-2.13,.06-.64,.12-1.29,.18-1.93,8.15,.85,16.3,1.71,24.45,2.56-.02,.5-.04,1-.06,1.5Z"/><path class="cls-1" d="M609.34,643.76c-.5-.4-1.31-.71-1.45-1.2-1.84-6.77-3.58-13.57-5.66-21.59,5.06,7.69,7.83,14.76,6.94,22.94l.17-.15Z"/><path class="cls-1" d="M584.18,610.58v-9.55c-6.2,.44-5.24,4.89-5.19,8.8l-1.36-.04c0-2.4-.96-5.63,.23-7.02,1.75-2.04,5.03-2.78,8.95-4.71-.58,5.49-.97,9.11-1.35,12.74l-1.27-.23Z"/><path class="cls-1" d="M551.68,642.91c4.8,4.65,6.7,9.53,2.71,15.53-1.4,2.1-1.82,4.85-3.23,7.39,.21-1.87-.18-4.14,.74-5.55,3.84-5.91,4.25-11.57-.23-17.36Z"/><path class="cls-1" d="M595.16,606.68c-1.43,3.05-2.46,6.42-4.49,9.01-.87,1.1-3.82,.56-5.99,.08,6.41-.34,7.18-5.47,8.57-10.01,.64,.31,1.28,.61,1.92,.92Z"/><path class="cls-1" d="M215.2,465.92c-1.25,5.4-2.49,10.81-3.63,15.76,1.58,1.23,3.02,2.35,4.46,3.48l-1.09,1.24c-3.01-.43-5.01-2.09-4.36-5.43,1.01-5.14,2.46-10.2,3.73-15.3l.89,.25Z"/><path class="cls-1" d="M602.43,539.01c.17,1.57,.54,3.14,.46,4.7-.28,5.72-.71,11.42-1.18,18.53-2.94-8.74-1.48-15.97,.81-23.19-.02-.02-.09-.04-.09-.04Z"/><path class="cls-1" d="M529.06,519.07c-3.49,5.35-6.98,10.7-10.48,16.04,.8-7.06,5.44-11.67,9.3-16.79,.39,.25,.79,.5,1.18,.75Z"/><path class="cls-1" d="M629.92,559.57c-5.91-.24-8.73-2.55-9.93-7.89,3.16,2.51,6.33,5.03,9.93,7.89Z"/><path class="cls-1" d="M549.92,566.95c-10.35,1.35-20.7,2.71-31.05,4.06-.08-.57-.17-1.15-.25-1.72,10.35-1.42,20.7-2.85,31.05-4.27,.08,.64,.17,1.29,.25,1.93Z"/><path class="cls-1" d="M338.98,555.01v-22.58h40.34c0,6.29-.22,11.75,.07,17.19,.22,4.07-1.08,5.56-5.3,5.48-11.63-.24-23.26-.08-35.11-.08Zm1.52-2.28h36.59v-18.21h-36.59v18.21Z"/><path class="cls-1" d="M263.89,540.46v-19.27l.74-.08c.32,6.45,.65,12.9,.97,19.36-.57,0-1.14,0-1.71,0Z"/><path d="M437.36,374.65c-7.77-2.87-15.4-5.69-23.53-8.69,2.19-3.41,3.94-9.18,6.64-9.66,4.8-.85,10.32,1.03,15.24,2.67,3.79,1.26,4.31,11.46,1.65,15.68Zm-4.17-9.49l.09-1.89c-1.41-.92-2.98-2.74-4.2-2.53-1.71,.29-3.16,2.09-4.72,3.24,1.48,1.17,2.82,2.98,4.47,3.31,1.26,.26,2.9-1.35,4.37-2.12Z"/><path d="M394.46,443.84c-.41-7.5-.24-7.67,7.21-7.58l1.1,5.64c.31-2.17,.54-3.78,.82-5.73h8.11c.22,1.61,.47,3.06,.62,4.51,.34,3.22-.71,4.46-4.28,3.92-4.36-.66-8.83-.54-13.58-.77Z"/><path d="M395.31,434.26c-1.81-7.92-.57-9.56,6.42-8.46,1.41,8.72,1.13,9.08-6.42,8.46Z"/><path d="M467.23,443.68c-.95,2.29-1.91,4.58-2.86,6.88-3.37,.52-7.24,1.12-11.68,1.81,.58-3.02,1.16-5.98,1.75-9.06,3.36-.55,6.56-1.26,9.8-1.49,.9-.06,1.9,1.32,2.85,2.05l.15-.19Z"/><path d="M378.65,336.85c-.17-2.06-.34-4.17-.54-6.71,3.2,.35,6.94-2.78,8.55,2.62,.44-1.1,.85-2.13,1.42-3.52,2.96,6.76,.04,8.23-9.42,7.61Z"/><path class="cls-1" d="M433.19,365.16c-1.47,.78-3.11,2.38-4.37,2.12-1.65-.33-2.99-2.14-4.47-3.31,1.56-1.15,3.01-2.96,4.72-3.24,1.22-.21,2.79,1.62,4.2,2.53l-.09,1.89Z"/></g></g></svg>