<?xml version="1.0" encoding="UTF-8"?><svg id="Layer_2" xmlns="http://www.w3.org/2000/svg" viewBox="0 0 513.75 461.36"><defs><style>.cls-1{fill:#fff;}</style></defs><g id="Layer_1-2"><g><path class="cls-1" d="M241.99,389.38c9.88,20.66,29.91,27.19,50.03,25.15,17.29-1.75,31.47-9.14,42.45-22.52,13.09-15.95,15.64-34.58,12.62-54.2-5.23-33.99-20.03-64.25-37.45-93.4-3.49-5.83-7.27-11.49-10.4-17.8,3.43,3.08,6.98,6.03,10.25,9.27,3.43,3.39,6.77,6.9,9.83,10.62,3.03,3.68,5.67,7.69,9.04,12.33-1.83-18.01-3.56-35.13-5.31-52.24-.98-9.61-2.06-19.21-2.91-28.83-.11-1.2,.66-2.77,1.52-3.72,3.37-3.72,6.95-7.27,10.71-11.15,12.05,6.02,25.01,12.5,37.97,18.97,.34-.63,.69-1.26,1.03-1.9-1.41-.75-2.82-1.52-4.25-2.23-9.53-4.75-19.1-9.4-28.57-14.24-7.36-3.76-7.31-3.86-4.1-13.28,14.74,2.44,29.69,4.92,44.63,7.4-14.28-6.17-29.73-7.11-45.09-9.27v-9.24c14.72-2.13,29.29-4.24,43.86-6.36l-.15-1.36c-14.67,.24-29.04,3.46-43.29,5.59-2.35-12.73-5.72-25.22-6.63-37.89-.64-8.93,2.06-18.1,3.27-27.16,.19-1.41,.36-2.82,.62-4.88-13,7.53-25.31,14.78-37.77,21.75-1.99,1.11-4.69,1.53-7.01,1.39-10.6-.65-20.87,.5-31.09,4.19,3.15-2.13,6.31-4.25,10.12-6.82-6.34-9.76-12.61-19.42-19.12-29.45-6.2,6.51-8.74,14.23-9.92,22.24-.89,6.02-.21,12.25-.53,18.37-.16,3.05-.63,6.17-1.54,9.08-2.3,7.27-4.93,14.43-7.55,21.99-7.45-.71-15.3-1.47-23.16-2.22l-.26,1.7c7.74,1.01,15.48,2.01,23.15,3.01,1.21,8.31,.92,8.6-6.48,10.16-4.87,1.03-9.68,2.37-14.49,3.69-1.44,.39-2.79,1.15-4.18,1.75,.13,.39,.26,.77,.39,1.16,8.08-1.87,16.17-3.75,24.76-5.74,.51,3.7,.9,6.57,1.34,9.72-6.56,3.15-13.06,6.27-19.55,9.39l.73,1.74c6.35-2.88,12.7-5.75,18.76-8.5,3.28,6.39,6.63,12.62,9.62,19.01,.53,1.14-.07,3.15-.75,4.45-11.66,22.24-24.07,44.1-34.97,66.7-11.85,24.57-21.8,50.01-26.83,77.01-1.52,8.14-1.88,16.49-2.79,24.89-58.62,8.27-116.16,21.61-172.54,40.14,19.54-13.77,41.06-23.42,64.11-31.33C18.39,299.78,2.68,236.01,18.73,165.28c10.09-44.49,33.25-81.91,67.63-111.76C160.86-11.16,263.69-15.86,340.9,32.09c50.47,31.34,83.57,75.98,97.33,134.05,13.69,57.79,3.96,112.21-25.92,163.24,17.51,4.7,34.79,8.83,51.75,14.04,16.74,5.15,33.15,11.39,49.7,17.15-.15,.42-.3,.84-.45,1.26-17.46-3.35-34.84-7.21-52.4-9.93-22.19-3.43-44.51-6.01-66.8-8.78-3.91-.49-7.25-.48-8.91-5.31-.71-2.07-4.2-3.65-6.74-4.55-6.61-2.34-12.65-.35-17.47,4.31-5.01,4.84-5.56,11.07-3.77,17.63,5.04,18.36,1,34.11-13.27,47.13-10.09,9.21-22.26,13.84-35.29,16.39-15.72,3.08-31.2,2.04-45.88-4.97-10.54-5.03-17.67-13.12-20.78-24.37ZM111.6,98.27c3.12,13.73,20.57,24.62,35.65,22.71,17.85-2.25,31.36-17.48,30.84-34.75-.52-17.31-13.04-32.17-28.62-33.47,2.72,12.03,1.36,23.35-6.77,32.91-8.03,9.45-18.73,13.27-31.1,12.59Z"/><path class="cls-1" d="M363.94,431.41c-43.85,46.29-119.3,35.53-149.95-9.14,19.74,21.39,44.07,33.19,73.08,34.9,29,1.7,54.76-6.49,76.87-25.76Z"/></g></g></svg>