<svg xmlns="http://www.w3.org/2000/svg" viewBox="0 0 158.16 139.62"><defs><style>.cls-1{fill:#fff;}</style></defs><g id="Layer_2" data-name="Layer 2"><g id="Layer_1-2" data-name="Layer 1"><path class="cls-1" d="M0,64.65V62.37l2.22-8.5.54.11.81,1.46H4a19,19,0,0,0,.57-3.38c0-4.82,1.92-8.83,5-12.35A11.28,11.28,0,0,1,12.37,38c1.09-.65,2.21-1.25,3.28-1.92.62-.4,1.16-.91,1.73-1.36l.34.36-1,1.86.49.3C18,36,19.18,35,19.46,33.69a6.44,6.44,0,0,1,3.61-4.46c1.85-1,3.65-2.11,5.44-3.23,2.82-1.75,5.62-3.56,8.43-5.34-2.21-.07-3.77,1.13-5.46,2.19-4.28,2.67-8.69,5.14-13,7.68a1.35,1.35,0,0,1-.61.21c-.45,0-.9,0-1.35,0,.23-.43.35-1,.7-1.25,3.16-2.28,6.37-4.49,9.55-6.74.42-.29.8-.61,1.2-.92a2.73,2.73,0,0,0-1.17,0,5.13,5.13,0,0,1-1.08-.2c.17-.34.25-.83.52-1,3.23-1.85,6.41-3.83,9.79-5.38a41.88,41.88,0,0,1,7.24-2.11c.38-.1.89.28,1.35.45-.33.36-.6.88-1,1.06a12.57,12.57,0,0,0-5.46,5.1l1.13.42a36.72,36.72,0,0,0-3.12,2.07,7.59,7.59,0,0,0-1.33,1.72,13.17,13.17,0,0,1-.94,1.54,21.52,21.52,0,0,1-2.32,2.26,59.63,59.63,0,0,1-4.83,3.72,5.12,5.12,0,0,0-2.56,3.85l4.06-2.86A5.14,5.14,0,0,1,26,37c-1.24.87-2.49,1.72-3.71,2.62-1,.77-1.84,1.49-1.7,3.16.08.92-1.4,1.92-2,3-1,1.66-1.66,3.51-2.73,5.1-2.2,3.27-2.74,7-3.19,10.74a1.93,1.93,0,0,0,.29.14c2.7-6.32,5.59-12.55,9.93-18a3.73,3.73,0,0,1-.2,2.36,49,49,0,0,1-2.78,4.38,5,5,0,0,0-1,4.1A1.77,1.77,0,0,1,18.57,56c-1.49,1.12-1.71,2.65-1.71,4.33a3.46,3.46,0,0,1-.42,2c-1.1,1.4-1.1,3-1.47,4.65a68,68,0,0,1-2.25,6.87,1.58,1.58,0,0,1-.4.5c-1.4,1.46-1.42,2.89.09,4.1a3.69,3.69,0,0,1,1.31,3c.08,1.22.28,2.84,1.08,3.54,2.05,1.8,2.61,4,2.78,6.49a38.67,38.67,0,0,0,.74,4.25l1.21-1.37a7.66,7.66,0,0,0,1.28,2,7.67,7.67,0,0,1,2.41,4.1,3.86,3.86,0,0,0,1.65,2.06,5.75,5.75,0,0,1,2.39,3.12,10.63,10.63,0,0,0,2.17,3.71,34.47,34.47,0,0,0,16.18,8.84c2.07.44,4.14.72,6.19-.32.36-.19,1.18.18,1.6.52.78.65,1.53.87,2.32.2,1.35-1.13,2.67-.88,4.24-.41a82.35,82.35,0,0,0,9.43,2.25,5,5,0,0,0,3.29-.85,16.1,16.1,0,0,1,9.12-2.91,4.94,4.94,0,0,0,2.36-1.08,48.45,48.45,0,0,1,4.39-2.92c1.4-.69,3.14-.74,3.67-2.64.08-.3.57-.47.84-.73,1.93-1.86,3.91-3.68,5.75-5.63a2.78,2.78,0,0,0,.35-2c-.13-1.07-.25-2.1.75-2.78a6.9,6.9,0,0,0,2.82-5.42c.29-2.85.55-5.69,2-8.3a2.57,2.57,0,0,0,.07-2.15c-.75-1.31-.36-2.33.29-3.47.89-1.56,1.8-3.18.26-4.9a.67.67,0,0,1-.11-.61c1.17-1.63.78-3.08-.37-4.53-.19-.24,0-.74-.07-1.11-.22-2.93-2.4-4.75-4-6.92-.07-.11-.29-.14-.44-.15-2-.16-3.27-1.49-4.54-2.86a14.72,14.72,0,0,0-2.74-2.5,7.93,7.93,0,0,0-2.55-.57l-.14.47L95,59.68a6,6,0,0,1-5.36-.39,3.68,3.68,0,0,0-2.32-.3,2.62,2.62,0,0,1-3.08-1c-1.3-1.57-4.68-2.38-6.1-1.58-3.19,1.8-6.38,3.63-9.54,5.48a8.26,8.26,0,0,0-4.21,4.93,1.56,1.56,0,0,1-.38.69,5.51,5.51,0,0,1-7.4.11c-3.38-2.78-6.42-2.14-8.51,1.81-.36.67-.63,1.38-1,2.06-.58,1.16-1.16,2.32-1.81,3.44A6.77,6.77,0,0,1,44.18,76l-.39-.29a31,31,0,0,1,4-9.83l-5.37,3.49L42.15,69c3-5.41,8.58-7,13.83-8.81,2.25-.8,2.38-.42,2.86-3.24l1.3.38-.32-1.45,2.38-.27-.54-2.63,1.55.59.32-.51c-.5-.32-1-.94-1.48-.92a25.07,25.07,0,0,0-4.65.59c-1.79.41-1.92,1.15-.32,2.69l-3.16.8v.94H50.41l1.44,3.67c-3-2-3-2-3.8,0-4.3-2.18-5.24-7-2.14-11.06l1.17,1.68c1.93-2.14,4.13-3.69,5-5.79a19.83,19.83,0,0,1,3.79-6.47c.93-1,.89-2.86,1.27-4.25,1.36,1,1.31,1,2.51-.69.93-1.3,1.77-3.16,3.06-3.62,2.43-.87,3.5-2.76,4.76-4.58.74-1.06,1.32-2.23,2-3.35l.42.18-2.12,5.21.54.31c1.81-1.67,3.58-3.39,5.46-5a3.29,3.29,0,0,1,2.25-.9c1.54.28,2.19-.45,3-1.54,1.89-2.48,3.94-4.85,6-7.17a7.25,7.25,0,0,1,2-1.14l.26.34c-2.67,2.45-3.69,5.69-4.78,9.23,1.74-1.49,3.18-2.84,4.74-4s3.2-2,4.68-3.22C97.12,10.88,102,6.55,104,0h.65c.05,2.39-1.09,4.34-2.19,6.34a5.74,5.74,0,0,0-.92,3.3,2.14,2.14,0,0,1-1.42,2.65c-2.92,1.4-3.69,4.11-4.35,7.11,5-.26,9.87-1.76,14.55.61,4.36,2.2,8.39,4.77,10.94,9.17a3.08,3.08,0,0,1-1.63-.71,23.1,23.1,0,0,0-12.39-5.59,14.62,14.62,0,0,0-3.2.27l0,.47c4.82.79,10,.9,12.84,6.6l-5.34-.63-.23.41c.57.49,1.07,1.26,1.72,1.43,2.84.73,4.65,3,6.81,4.61,1.62,1.25,2.66,3.26,4.29,4.51A13.45,13.45,0,0,1,128,45.47a13.38,13.38,0,0,0,1,1.69c1.18,1.67,2.74,2.1,4.19,1.19,1.76-1.11,2-2.05,1.06-3.69.59-.6,1.59-1.19,1.53-1.64a6.5,6.5,0,0,0-1.25-3.57c-2.3-2.36-3.34-5.25-4.27-8.26-1-3.25-1.86-6.58-4.42-9.09-.18-.18-.16-.57-.23-.86.33,0,.76-.26,1-.12a31.43,31.43,0,0,1,3.15,2.23c1.18,1,2.42,1.72,4,1.29,1.39-.38,2.16.25,3,1.24a8.11,8.11,0,0,0,3.18,2.56,7.31,7.31,0,0,1,3.89,2.95,15.43,15.43,0,0,0,2.11,2.09l.66-2.44c.79.48,1.92.77,2.3,1.47,1.13,2.11,2,4.37,2.92,6.59.47,1.14.58,2.51,1.27,3.48,2.36,3.31,2.9,7.2,3.6,11s.9,7.51,1.44,11.26A8.6,8.6,0,0,1,156.69,71a27.2,27.2,0,0,0-1.45,3.2c-.69,1.49-1.43,3-2.13,4.43a4,4,0,0,0-.59,1.63c.2,4.53-1.43,8.59-3.12,12.64-.15.38-.67.94-.91.9-1.29-.27-1.3.65-1.68,1.44-1,2.07-2.13,4.11-3.35,6.07-.4.64-1.23,1-2.16,1.72V99.36c-.07,0-.15,0-.17,0-.24.42-.48.83-.69,1.26-2.29,4.51-4.83,8.81-8.75,12.17a28.76,28.76,0,0,0-3,3.71c-1,1.22-1.88,2.81-3.19,3.48a14.6,14.6,0,0,0-4.27,3.09,4,4,0,0,1-3.93,1.54c1.92-1.54,3.81-2.89,5.51-4.46,2.58-2.38,5.24-4.7,6.6-8.11a13.82,13.82,0,0,1,1.91-3.13c1.4-1.84,3.13-3.44,3.5-5.92a8,8,0,0,1,1-2.44c1.14-2.19,2.89-4.23,3.38-6.54a37.21,37.21,0,0,1,3.44-9.89,12.79,12.79,0,0,0,1.07-2.88c1.68-6.89,1.87-13.53-3.43-19.17-.39-.41-1.21-1.07-1.32-1a10.37,10.37,0,0,0-2.48,2.56c-.31.54.11,1.51.24,2.28s.33,1.32.38,2c.07.92,0,1.85,0,2.77,0,.77.19,1.73-.19,2.25-.73,1-.55,1.55.3,2.29,1.45,1.27,1.4,1.9-.18,3a5.71,5.71,0,0,0-2.53,5.46,2.77,2.77,0,0,1-.12,1.25c-.52,1.32-1.09,2.62-1.69,3.91q-1.66,3.63-3.4,7.23a2.93,2.93,0,0,1-1,1.06A2.84,2.84,0,0,0,127,100a2.94,2.94,0,0,1-1.72,3,2.63,2.63,0,0,0-1.06,1.33c-.9,2-3.19,2.85-4.17,4.83-.31.6-1.08,1-1.34,1.6-1.9,4.55-4.23,8.6-9.43,10.16a4.37,4.37,0,0,0-2.45,2.29,4.31,4.31,0,0,1-3.43,3,1.94,1.94,0,0,0-1.27,1.27A2.6,2.6,0,0,1,99.83,130c-1.93.52-3.82,1.18-5.75,1.7a24.06,24.06,0,0,1-5,1.09,6.28,6.28,0,0,0-4.13,1.5,11.59,11.59,0,0,1-8.39,2.86,37.25,37.25,0,0,0-6.16.05c-5.53.67-11,1.51-16.54,2.34a2.93,2.93,0,0,1-2.92-.85c-1.61-1.71-3.39-3.17-5.95-3.29-.46,0-.84-.76-1.33-1-.93-.56-1.9-1.41-2.89-1.46a5.36,5.36,0,0,1-3.64-1.42,5.81,5.81,0,0,0-4.92-1.59,3.21,3.21,0,0,1-3.35-1.51,7.31,7.31,0,0,0-4.52-2.92c-1-.25-2-.47-3-.73a7.36,7.36,0,0,1-5.47-4.6,4.9,4.9,0,0,0-1.77-2.24,3.74,3.74,0,0,1-1.71-3.42A11.71,11.71,0,0,0,9,106.79,16.91,16.91,0,0,1,7,103.2,9,9,0,0,0,5.79,101C3.33,98.57,2.15,95.8,3,92.28a5.21,5.21,0,0,0-.33-2.5,18.46,18.46,0,0,0-1.11-2.34A8.57,8.57,0,0,1,2,78.52a6.25,6.25,0,0,0,.74-4.28C2.07,71,1,67.84,0,64.65Zm61-22.1c3.65-.12,5.79-2.15,8.28-4.06C65.09,37.13,63.7,40.6,61,42.55Zm57.77,58.93.35.2a32.87,32.87,0,0,0,2.45-3,2.19,2.19,0,0,0,0-1.62c-.29-1-.73-1.93-1.14-2.95a2.18,2.18,0,0,0-.55,2.89c.54,1.21.68,2.24-.6,3.13C119,100.4,119,101,118.78,101.48ZM6.41,86.38l.52,0-.32-4.71-.51,0Z"/></g></g></svg>