<svg xmlns="http://www.w3.org/2000/svg" viewBox="0 0 66.32 100"><defs><style>.cls-1{fill:#fe7262;}.cls-2{fill:#f14e1e;}.cls-3{fill:#0bcf83;}.cls-4{fill:#1bbcfd;}.cls-5{fill:#a259fe;}</style></defs><g id="Layer_2" data-name="Layer 2"><g id="Layer_1-2" data-name="Layer 1"><path class="cls-1" d="M33.16,0H52.39c.17.4.55.29.85.37Q63.35,3,66,13.15c.07.3,0,.69.36.85v5.67c-.56.4-.48,1.07-.65,1.62a16.69,16.69,0,0,1-8.5,10.29,27.25,27.25,0,0,1-5.28,1.75l-4.52.07-14.2,0-.06-.14Q33.14,16.64,33.16,0Z"/><path class="cls-2" d="M33.16,0q0,16.65,0,33.29l-18.42.05a6.33,6.33,0,0,0-.94-.28A16.68,16.68,0,0,1,11.83.68C12.43.5,13.14.56,13.6,0Z"/><path class="cls-3" d="M33.1,66.67c0,6.47.58,13-.25,19.39A16.08,16.08,0,0,1,20.07,99.64c-.29.07-.68-.06-.83.36H13.6c-.46-.56-1.17-.5-1.78-.68a16.72,16.72,0,0,1-1.55-31.41c1.44-.6,3-.79,4.43-1.24Z"/><path class="cls-4" d="M47.37,33.4l4.52-.07a7.65,7.65,0,0,0,.92.31A16.43,16.43,0,0,1,65.48,44.73a9.42,9.42,0,0,0,.84,2.6V53c-.54.28-.44.87-.57,1.31a16.55,16.55,0,0,1-32,0c-.12-.45-.08-1-.53-1.35q0-3,0-6c.87-2.07,1.4-4.27,2.69-6.17A17.45,17.45,0,0,1,47.37,33.4Z"/><path class="cls-5" d="M14.7,66.67a21.14,21.14,0,0,1-7.47-2.9A16.86,16.86,0,0,1,.4,46.3,16.57,16.57,0,0,1,13.92,33.61a4.71,4.71,0,0,0,.77-.27l18.42-.05.06.14L33.2,47q0,3,0,6-.06,6.84-.11,13.66Z"/></g></g></svg>