<svg xmlns="http://www.w3.org/2000/svg" viewBox="0 0 400.52 582"><defs><style>.cls-1{fill:#f2f2f2;}</style></defs><g id="Layer_2" data-name="Layer 2"><g id="Layer_1-2" data-name="Layer 1"><path class="cls-1" d="M330.52,278.52c2.05,4.92,6.63,7.36,10.51,10.4,10.4,8.18,13,15.62,9.44,28.43-1.66,6-4.64,11.37-8.11,16.67C357,323.81,362.79,311,360.65,293.5c-1.84-15,4.72-21.8,19.49-20.31,1.32.14,2.66.11,4,.18,3.87.2,6.55-.77,6.28-5.49-.15-2.76,1.13-5,4.18-5.25,3.25-.27,4.7,1.91,5.48,4.74a13.24,13.24,0,0,1-8.56,15.82c-1.17.42-2.79,0-2.79,2.56,0,6-3.55,7.9-9.14,5.35-11.51-5.24-14.66-3.37-15,9.36a37.77,37.77,0,0,1-10.71,25.67c-5.14,5.45-10.38,10.82-15.55,16.24-1.12,1.16-2.68,2-3.06,4.52a35.93,35.93,0,0,1,5-2.24c2.57-.72,5.53-1.49,7.28,1.27,1.64,2.57-.69,4.24-2.54,6.05,2,1.82,6.19,1.7,5.41,5.48-.67,3.29-3.8,3.23-6.72,3.52,2.22,2.36,7.38,3.3,5.29,7.45-1.67,3.31-5.26.56-8.47-.23,2.25,3.13,5.89,5.38,4.09,9.05-1.39,2.84-3.74.1-6-.38-.18,2.22,2.09,4.37.47,6.45-1.93,2.48-3.83-.29-5.86-.27-.55,2.56,2.24,6.5-1.8,7.3-3.72.73-4.1-3.63-6.07-6.27-.64,1.46.28,3.06-.8,4.13-3.57,3.52-6.06,7.13-1.86,12,2.81,3.22,3.69,7.47,8.85,9.35,11.39,4.16,15.18,14.39,16.1,25.49.83,10.13-3.22,18.21-12.51,23.12-8.18,4.32-11.55,11.89-10,21.18A36.57,36.57,0,0,1,299,520.17c-6.47,1.88-9.8,4.82-12.17,11.05-7.22,19.06-21,30.93-41,36a242.2,242.2,0,0,1-53.72,7.56c-1.27,0-4-1.08-3.25,2,.47,2.1.23,3.75-1.81,4.56a8.1,8.1,0,0,1-7.64-.93c-2.34-1.53-.53-3.55-.31-5.63-7.06-.64-14-1.32-20.93-1.9-29.42-2.46-49.95-18.46-64.89-42.8-3.61-5.88-5.39-12.54-6.23-19.37-.47-3.9-1.67-6.07-6.3-6.46-7.32-.62-12.66-4.74-15.29-11.86-.58-1.58-1-3.37-2.85-3.81-6.71-1.57-7.56-6.17-6.13-11.88-1.81-.86-2.57.59-3.6,1.19-1.44.84-2.77,1.86-4.19,2.73-5.05,3.06-10.23,3.11-12.32.16-2.25-3.19-.37-7.38,4.95-11,1.1-.75,2.24-1.44,3.66-2.35-3.14-3.3-4.51-6.84-.89-10.7,1.25-1.34.6-2.58-.1-4.07-5.16-10.81-3.48-20.6,4.85-29.26,1.95-2,3.42-10.78,2.2-13.17-.85-1.67-1.66-.89-2.7-.09-5.35,4.09-5.4,4.08-8.26-1.42-.34-.66-.57-1.13-1.36-1.14-4-.06-3.69-2.8-4.89-5.71-1.81-4.38-5.29-7.76-.81-12.29-4.07-6-.41-7.94,4.79-9.07a2.49,2.49,0,0,0,2.28-2.78c-.1-1.53-1.26-1.66-2.4-2.05-8.78-3-9.88-4.9-8.6-14.62-4.5,2.18-8.64,4.52-12.07,8-2.11,2.14-4.59,4.09-7.29,1.42s-.67-5.17,1.28-7.39c3.15-3.57,7.08-6,13-8.09-4.22-.47-6.62-2.6-9.71-.85-1.63.92-3.6,1.34-5.17,0-1.92-1.68-.69-3.66,0-5.52-6.72,1-6.74,1-6.25-6.13.08-1.08-.9-1.28-1.25-1.94-2.23-4.26.74-9.19-1.67-13.45,3.61-2,3.79-5.22,3.59-8.93-.1-1.94,2.14-2.66,4.11-2.91,1.6-.21,3.22.82,4.82-.05-.07-.38,0-.77-.21-1-2.44-3-4.46-6.42-1.08-9.76,3.16-3.12,6.44-1.39,9.29,1.11.63.56,1.28,1.19,2.18.78s.9-1.3.55-2.12c-1.47-3.39-1.56-6.53,1.85-8.85,2.58-1.76,4.59-1.25,10.11,2.4.9-3.08-1.55-6.79,1.83-9.19s6.23-.46,9.69,1.52a32.41,32.41,0,0,1-1.7-4.86c-.58-3.48,2-5.94,5.57-5.36.89.14,1.92,1.15,2.48-.29A2.32,2.32,0,0,0,52,277.05c-2.93-2.21-6-1.71-8.88,0a12,12,0,0,1-7.64,1.74A4.11,4.11,0,0,1,31.7,276c-.62-1.77.11-3.26,1.3-4.55,6.83-7.42,22-6.16,27,2.24,2.12-5.33-.09-9.1-6.33-9.72-4.78-.48-9.65-.12-14.48-.15-2.33,0-4.68.13-7-.11-6.06-.62-9.06-5-5.44-9.59,6.49-8.16,7.74-18.67,13.64-27,4.58-6.48,4-11.51-.41-15.25-5.13-4.39-14-4.83-19.05-.94-.52.4-1,.88-1.5,1.32-2.56,2.21-5.41,3.87-8.48,1.32-3.32-2.75-2.44-6.34-.69-9.56,1.62-3,4.53-4.67,8.58-5.95C9.94,193.18,4,187,2.76,177.39a20,20,0,0,1,3-13.39c1.49-2.39,3.69-4,6.73-2.95,2.79,1,3.44,3.35,3.34,6.07-.15,3.64-1.6,7.18-.76,11.45.76-1.66,1.32-3,2-4.27a9.05,9.05,0,0,1,8.38-5.36c2.67,0,5.63.5,6.46,3.62s-1.86,4.18-4.11,5.34c-8,4.1-8.22,9.95-.49,14.89,3.51,2.23,7.27,4.09,10.67,6.47,10,7,12,15,6.53,25.94-2.8,5.56-6.73,10.57-8.67,17.61,2.32-1.66,3.81-2.91,5.48-3.88,2.2-1.27,5.24-2.76,7.08-1.45,6.08,4.35,9.23-2,13.77-3.17a17.92,17.92,0,0,1-4.2-1c-3.06-1.56-2.89-4.26.36-6.5,1.16-.81,3.12-1,1.55-3.16s-3.64-4.5-.88-7c2.61-2.38,5.29-.79,7.8.63.54.3,1,.65,1.9,1.18-1-3.85-3.55-8.33.6-10.22,5-2.27,6.21,3.37,8.68,6.53.47-2.16.75-4.21,1.38-6.15.79-2.47,2.09-4.83,5.14-4.56s3.93,2.65,4.62,5.21a15.36,15.36,0,0,1,0,6.36c1.34-.9,2.13-1.48,3-2,1.94-1.16,4-1.92,6.07-.47,1.85,1.3,2.19,3.34,1.84,5.39-.43,2.47-1.35,4.93,2.67,5.15.94,0,2.13,1.33,1.82,2.09-2.13,5.32,2.87,10.43.32,15.68a5.13,5.13,0,0,0-.28,3.87c.47,1.54.32,3.52-1.17,4C97.82,251,97.41,256,95.7,260.17c-4.64,11.24-12.8,19.74-21.4,27.94C69.16,293,64,297.93,60.62,304.43c3-6.77,12.51-6.74,14.51-14.48a1.12,1.12,0,0,1,.68-.7c5-1.22,8.7-3.57,10-9.22.47-2.12,3.26-1.45,5.29-.8,4.37,1.41,5.35.59,5.12-4a13.07,13.07,0,0,0-.25-2c-.44-2.26-.31-4.4,1.64-5.91,2.23-1.73,4.47-.7,6.57.34,1.49.74,2.82,1.8,4.29,2.56,3.6,1.87,6.89,1.31,9.36-1.89s2-6.29-.59-9.1c-1.44-1.59-3.3-2.79-4.82-4.32-4.84-4.84-3.4-10.56,3.06-12.75,5-1.72,9.86-.24,14.76.69,4,.77,8.85,3.05,11.36-1.59,2.63-4.85-2-8-5-10.83-4.83-4.67-11-7.51-16.79-10.73-13-7.17-15.81-20.31-6.93-32,3.39-4.46,8.86-6.56,11.52-4.41s1.59,6.9-2.5,11.49c-2.1,2.36-4.5,4.47-6.51,6.9-4,4.84-3.73,9,1.22,12.93,5.79,4.58,13,6.17,20,6.58a19.86,19.86,0,0,1,17.95,13.31c2.65,7.34.52,13.76-6.41,18.67-2.44,1.73-5.13,3.09-7.71,4.61-3.76,2.21-4.44,5.07-2.09,8.79,1.75,2.76,4.38,4.54,6.78,6.59,5.34,4.55,5.83,7.15,2.44,13.41-3.25,6-3.26,6.06,3.35,7.73,2.87.72,3.28,2.59,2.55,4.94a17.72,17.72,0,0,1-4,6.25c-2.28,2.59-4.79,5-6.4,8.94,6.35-.29,12.23-.53,17.89,1.92,3.18,1.37,3-1.65,3-3.51.23-14.15.08-28.32.6-42.47.93-25.65.26-51.32,1.15-77,.81-23.17.28-46.32.59-69.47,0-2.3.33-4.7-1.65-6.55a2.17,2.17,0,0,1-.71-1.77c2.79-8.55-3.19-13.19-8.19-18.15-1.7-1.69-2.53-3.27-2.28-5.67.6-5.85-1.93-7.45-7.59-5-5.85,2.58-11.92-.83-12.44-7.07-.3-3.63.8-6.69,4.54-8s6.5.24,8.6,3.28c.56.81.79,1.86,1.36,2.66a5.62,5.62,0,0,0,6.64,2.13c2.57-.91,2.37-4,2.33-6.11-.05-2.81-3-2.35-4.69-2.53-3.07-.33-6.24.89-9.23-1-3.77-2.36-5.45-5.92-3.83-8.65s6.43-3.18,9.87-.78a12.41,12.41,0,0,1,2.47,2.44c1.54,2,3.39,3.43,6,2.72,2.38-.65,2.18-3.16,2.65-5,.37-1.46,1.39-3.29-.65-4.48-1.64-.95-3.15-.56-4.69.38a10.5,10.5,0,0,1-3.19,1.39,6.24,6.24,0,0,1-7-2.77c-1.48-2.3-2.43-4.91-1.09-7.56s4-3.28,6.86-3c2.51.27,5,.84,6.7,2.91,1.17,1.38,2.2,3.35,4.32,2.81,2.35-.6,2.13-3.15,2.78-4.94.9-2.48-.18-3.86-2.76-4-1.83-.09-3.66,0-5.5-.05a8.54,8.54,0,0,1-7.55-4.11,4.45,4.45,0,0,1-.11-5.17,4.62,4.62,0,0,1,4.73-2.1c3.21.35,5.48,2.29,7.67,4.36,1.72,1.62,4.11,2.7,5.86,1.43a6.64,6.64,0,0,0,2.38-6.7c-.56-2.31-3.07-2.92-5.21-3.24-1.28-.2-2.67.41-4,.26-3.67-.42-7.14-1.6-7.65-5.84-.48-4,1.73-6.75,5.48-7.93,4.1-1.3,7.15.35,9.08,4.11.37.74.51,1.59.86,2.34,1.68,3.63,4,4,6.85,1.17,11-11,24.31-10.46,33.87,1.5,6.26,7.83,5.78,15.83-1.64,22.58a6.52,6.52,0,0,0-2.32,7c2.82,13.36,5.34,26.79,8.18,40.14.86,4,.55,7.23-2.59,10.41-5,5.07-7,11.61-7.16,18.68-.09,3.83,0,7.66.24,11.55,2.46-7.34,4.63-14.77,9-21.2,4.63-6.74,11.54-10.39,18.81-13.41-.17-.5-.21-1-.36-1-13.83-3.61-14-19.31-3-27.09,3.76-2.66,3.31-3.45-.12-5.9-7.68-5.5-9.09-17.89-3.66-27.26,2.37-4.08,5.89-7.22,8.66-11a37.78,37.78,0,0,0,4.18-6.19c2.87-6.1.4-10.12-6.25-10.51-2.52-.14-5.41.14-5.57-3.43C224.5,2.14,226.91,1,229.46.37c5-1.27,8.81.85,11.85,4.56,3.54,4.32,3.84,9.11,1.24,14-2.07,3.91-5.43,6.67-8.83,9.4C226.05,34.48,220.83,41.8,223,52.47c3-14.22,14.64-19.8,25.17-12.24,3.13,2.24,3.95,5.28,3.3,8.79a7.25,7.25,0,0,1-5.75,6.23c-3.43.78-6,0-6.28-4.13a14.63,14.63,0,0,0-.37-3c-.48-1.68-1.36-3.11-3.35-3.2s-3.06,1.31-3.58,2.94c-1.25,3.93-.53,7.41,3.32,9.45,3.67,1.94,7.52,3.54,11.33,5.21,10,4.39,15.61,12,15.54,22.92-.09,13.91-5.89,22.07-18,26.44-3.87,1.4-7.84,2.52-12.61,4a41.67,41.67,0,0,1,4.21.64,4.66,4.66,0,0,1,3.73,4.7,4.47,4.47,0,0,1-3.5,4.85,50.48,50.48,0,0,1-7.85,1.33c-12.66,1.31-20.21,8.55-22.52,21-2.08,11.29-1.34,22.64-.69,33.89.77,13.28,1,26.57,1.72,39.85.73,13.8,1.34,27.6,2,41.41.62,13.62,1.19,27.25,1.84,42.06,3.35-4.55,7.43-7.1,10-10.51,2.7-3.57,4.14-8.73,4.49-13.31,1.09-14.42,6.82-21.82,21.23-25.32-4.68-4.72-7.18-10.06-5.41-16.69,1.1-4.11,3-7.18,8-6.07a3.66,3.66,0,0,0,3.54-1.26,13.2,13.2,0,0,1,3.6-2.61c3.1-1.29,6.83-2.78,9.09.67,2.45,3.73-.9,6-3.57,8.07-9.8,7.66-10.55,12.18-3.86,22.72,1.54,2.43,2.17,5,.17,7.41s-4.49,1.74-6.86.61c-1.35-.65-2.6-1.5-3.89-2.26-4.19-2.43-8.34-3.09-12.67-.18a14.23,14.23,0,0,0-6.69,12.64c0,2.09.61,3.16,2.91,2.73,6.67-1.26,12.06,1.22,16.85,6.3,1.28-2.74.65-6.12,3.78-7.43,3.37-1.41,5.12,1.27,7.38,3a26.94,26.94,0,0,1,1.53-3.22c2.62-4.07,6.59-3.89,8.82.35,1.87,3.54,4.08,4.09,6.64,1.24,3.42-3.8,6.54-7.87,10-12.13-2.19-.16-3.82-.21-5.44-.41-10.92-1.38-16.24-10.5-12.15-20.81,4.73-11.94,21.36-18.77,33.19-13.63,3.89,1.68,5.62,3.8,8.23,10.05,1.59-6.44-.63-11-6.87-13.74-2.74-1.21-5.63-2.14-7.75-4.4a4.74,4.74,0,0,1-1.31-5c.78-2.14,2.71-2.23,4.58-2.18,5,.12,8.69,2.89,13.21,6.88-3-8.56-5.58-15.87-8-23.24-1.69-5.1-1.62-10.19,1-15,1.05-2,2.44-3.92,5.06-3s2.39,3.33,1.88,5.49c-1.48,6.27-.54,12.14,2.1,18,4.33,9.6,8,19.42,5.64,30.37,3.18-5.56,3.4-11.29,1.52-17.19-1.47-4.6-3-9.17-4.46-13.79a12.35,12.35,0,0,1,.43-9.27c.76-1.57,2-2.77,3.93-2.47s3.3,1.67,3.05,3.39c-1.75,11.84,8,21.69,5.41,33.74,2-1.16,2.24-2.92,2.23-4.62a37.28,37.28,0,0,0-.58-4.92c-.32-2.41-1.52-5.63,1.67-6.37,3-.67,3.86,2.53,4.67,4.9,1.54,4.53.74,8.88-1.22,13.09-.62,1.34-1.44,2.59-2.25,4,9-2.56,12.14-9.51,7.59-17.36-2.67-4.6-6-8.78-8.94-13.25-9.08-14-8.14-28.26,2.86-43.13,2.88-3.88,6.15-7.48,8.33-11.83s3.7-8.8.24-13.13c-2.74-3.44-8.5-3.94-13.92-1.34-4.5,2.16-8.78,4.8-13.34,6.8-6.31,2.77-11.57,2.1-14.39-1.3-3.37-4.06-3.17-11,.44-16.4,2.39-3.6,5.62-6.56,7.64-10.48,1.79-3.49,1.49-6-2.32-7.68-.3-.13-.6-.28-.89-.44-2.61-1.42-6.17-2.59-4.92-6.4s5.12-4.54,8.75-4.09c8.23,1,11.91,8.24,7.7,15.41-2.35,4-5.7,7.4-8.16,11.34-1.79,2.85-4.67,6.22-2.38,9.57,2.45,3.58,6.74,2.08,10.18,1.21,6.43-1.63,12.36-4.93,19.14-5.56,7.35-.69,14.14-.07,18.34,7,3.78,6.35,2.63,15.13-2.49,21.51-4.9,6.1-10.37,11.77-14.39,18.54-4.64,7.81-8.45,15.84-5.22,26.71,1.95-10.44,7.06-17.24,15.05-22a26.58,26.58,0,0,1,32.94,4.73c5.1,5.54,5.47,12.6,1,19.26a15,15,0,0,1-17.41,6.14,22.93,22.93,0,0,0-2.35-.87c-1.6-.34-3.62-1.07-4.67.41-1.35,1.89.54,3.38,1.67,4.71,9.78,11.42,8.62,20-3.95,28.65a86.23,86.23,0,0,1-15.5,8c-5.15,2.18-9.72,5-11.87,10.71-1.85,4.85-1.45,9.08,2.32,12.81Zm9-110,1-1,1.25-1.27-.52-.35-.7,1.65c-.34.33-.67.66-1,1l-1,1-.15.43c0-.15.09-.3.13-.45Zm10.05,29h-1.09l.08,0h-2.13l-1,.05-1,2,0,0a4.94,4.94,0,0,0-2,4c-1.61,3.54-.87,6.84,1.16,9.92,1.74,2.63,3.57,5.21,5.45,7.74,3.15,4.24,3.63,8.42.24,12.79a19.2,19.2,0,0,0-1.76,3.51c-10.15,5-20.32,9.83-30.41,14.87a44.14,44.14,0,0,0-14.52,12c-9.39,11.59-10.17,29.34,9.7,35.53A21,21,0,0,1,318,302.1c4.29,2.93,8.24,1.57,12.15-.54,5.51-3,5.53-4.65.31-7.85a53,53,0,0,1-4.92-3.39c-10.86-8.55-12.1-18.76-3.83-30,4.85-6.56,11.85-10,18.85-13.49,5.48-2.73,11.33-5,15.09-10.23,3.56-4.66,1.24-8.69-1.38-12.65-3-4.6-7.48-8.58-5.7-15.11.56-2-1.48-2.16-3-2.33l2.08-2,3.93,0c5.5.8,11.06,2.21,16.22-1.5a8.2,8.2,0,0,1-5.46-1.54l-4,.15-3.59-1-1.15-.07h0l-1-1.91c.57-1,2.3-2.11-.07-3.09h-.9l-2.08,2Zm-206-116c.62-1,.45-1.94-.74-2.29s-1.83.42-2.31,1.33a1.49,1.49,0,0,0,.45,2.14c1.36.8,2.08-.1,2.63-1.22Zm82.83,38.06a11.61,11.61,0,0,0-8.1,4c-1.53,1.93.42.85,1,.8l7.13.11c2.46-.11,4.94-.14,7.39-.35,1.61-.13,3.71-.2,1.68-2.7l0,0v-1l0,0c.24-.33.74-.87.68-.94-1.2-1.45-2.51-.38-3.8-.12Zm102.1,137.83c-11.57,7.54-12.81,20.72-2.7,29.76a51.32,51.32,0,0,0,7.22,5.3c10.39,6.42,13.56,13.63,11.25,25.66-.9,4.71-2.52,9.2-3.75,13.83,4-6.16,7.44-12.5,8.54-19.87,1.26-8.45-1-15.4-8.35-20.37a67.6,67.6,0,0,1-8.18-6.52c-9.62-8.95-10.34-15.78-3-26.71,3.87-3.27,8.39-5.35,13-7.29,5.86-2.44,11.55-5.23,16.19-9.7,6.45-6.22,6.72-12.41.94-19-1.43-1.62-2.93-3.18-4.32-4.84-2.34-2.77-1.53-5.71,1.91-6.91a10.41,10.41,0,0,1,6.85.38c2.47.82,4.93,1.93,7.42,1.1-1.47-3.19-3.92-4.21-7.41-4.16-3.31,0-6.73-.9-9.9.21-3.46,1.2-4.34,4.08-2.77,7.3a31.1,31.1,0,0,0,3.8,5.21c7.19,9.14,6.06,16.89-3.71,22.94-4.52,2.8-9.42,5-14.14,7.44C334.14,252.88,330.76,254.39,328.47,257.45Zm-234.85,214C97,468,99.38,469.19,102,470c8.49,2.52,14.75,9.15,23.42,11.72,9,2.67,13.47,14,24.41,14,.76,0,1.53,1.2,2.27,1.87,1.08,1,1.78.84,2.87-.28,1.56-1.62,2.91-3,2.42-5.55s-2.49-2.86-4.41-3.32c-13.91-3.3-19.3-10.33-19.63-26-.41-19.07,6.09-36.63,13.19-53.92a53.54,53.54,0,0,0,4.12-18.88c.28-8.32-1.78-16.08-4.18-23.94-3.37-11.08.78-15.6,12.11-14,1.59.23,3.54,1.19,4.32-1a8.29,8.29,0,0,0,0-6.36c-1-1.88-3-.53-4.53-.23-11.48,2.21-20.27-2.17-25.35-12.79-4.14-8.66-4.25-17.61-2.1-26.81.81-3.42,1.31-7.26-2.25-9.53s-7.66-2-11.37.16a20.92,20.92,0,0,0-4.27,3.41c-9.72,9.86-11.28,22.33-10.5,35.2.49,8.16,3.55,15.89,6.2,23.6a94.13,94.13,0,0,1-.36,64A450.94,450.94,0,0,0,93.62,471.42Zm122.5,14.15c8.5-25.18,15.37-50.17,9.08-76.67-.48-2-.34-4.3,2-5.06,2.62-.84,4,1.21,4.86,3.24a24.75,24.75,0,0,1,1.54,5.76,96.22,96.22,0,0,1-.23,28.85c-2,14.06-5.73,27.7-9.9,41.23-1.83,6-1.49,6.59,4.68,7.22a52,52,0,0,1,22.05,7.41c2.41,1.47,4.82,3,7.36,4.21,4.32,2.07,7.74.75,10.23-3.24,3-4.85,3-10.1,2-15.46-3.33-17.48-10.45-33.67-16.91-50.09-8.37-21.24-10.22-42.57-1-64.11a96.67,96.67,0,0,0,5.87-18c1.65-7.84,3.19-15.77-.41-23.51-.92-2-1.33-5-4.23-4.91-2.51.11-3,2.89-3.87,4.79-1.52,3.5-2.34,7.35-4.12,10.68-6.36,11.86-15.86,19.4-29.6,21.19-6.37.84-7.12.14-6,7.64.68,4.74.23,9.65.35,14.48.07,2.51-.65,4.4-3.49,4.35-3.92-.08-4.79,2.07-4.51,5.43.2,2.32.19,4.66.25,7,.1,4.67,1,8.3,6.21,10.54,4.9,2.11,4.84,9.43-.22,11.7-5.61,2.51-5.45,6.15-4.75,10.89a61,61,0,0,1,.36,9.47c0,2.65.84,4.28,3.51,5.28,3.44,1.29,6.17,3.75,6.1,7.73-.07,3.83-3,5.78-6.25,7-1.73.66-3.21,1.27-2.67,3.43,1.16,4.57-1.33,9.67,2,13.86.37.47,1.59.45,2.39.38C214.05,477.73,216.6,480,216.12,485.57Zm-54.86,19.2c.57,2.15,3.25,1.13,3.79,3,.64,2.15.7,2.22,2.59,1.53,3.42-1.25,6.09-.88,7.93,2.72,2.31,4.52,5.58,7.84,11.17,8a5.48,5.48,0,0,1,3.91,2,20.38,20.38,0,0,0,9.78,5.79c7.15,2.14,12.59,6.5,17.45,11.84,1.36,1.5,2.75,3.44,4.72,3.46,7.16.07,11.08,5.38,15.77,9.36,1.63,1.38,2.92,1.85,4.89,1.12,10.53-3.9,19.54-10,26.41-18.9,7.74-10.06,9.85-22,10.73-34.27,1.22-17.13-4.06-32.9-9.91-48.53-4.38-11.68-9.86-23-13.59-34.85-5.63-17.94-1.44-35.21,5.82-51.95,4.29-9.88,7-20.14,6.53-31-.48-11.35-7.93-21-17.44-23-3.91-.81-6.85-.28-7.74,4.46a109.2,109.2,0,0,1-3.15,12.07c-3.14,10-9.1,17.21-19.91,19.61-3.52.79-7.2,1.66-9.81,4.58-1.14,1.28-2.23,2.81-1.39,4.47s2.67,1,4.08.78c15.39-2.32,25.9-10.63,31-25.47,1.08-3.17,2.1-6.34,4.09-9.07,2.94-4,5.89-4.07,8.68,0a24.32,24.32,0,0,1,4.2,13.64c.22,12.81-4,24.55-8.72,36.15-5.18,12.76-5.45,25.93-3.79,39.31,1.6,12.75,7.38,24.14,11.88,35.93,5.09,13.39,10.53,26.68,11.55,41.18.43,6.16-1.36,11.84-6.86,15.13s-10.23.12-14.82-2.77a57.76,57.76,0,0,0-20.19-8.28c-4.65-.89-6.57.11-6.27,5.33.37,6.53-1,7.65-7.41,7.66-16,.05-32-.12-48,.2C166.47,506,164.25,503.14,161.26,504.77Zm4.88-35.55c.31-4.68.34-8.49-3-11.69a5.85,5.85,0,0,1-.42-7.9c5-5.41,3.5-11.78,3.72-17.94.18-5.12.46-10.1-3.21-14.67-2.71-3.37-1.76-7.27,1.68-10.18.89-.75,2.24-1.4,2.11-2.63-.79-7.45,3.43-15.62-3.17-22.27-1.53-1.54-1.43-3.65-1.39-5.67.12-6,.21-12,.33-18,0-1.58-.06-3-2-3.48-3.73-.93-7.68-2.29-11,.37s-2,6.36-1,9.74c.55,1.92,1.25,3.8,1.85,5.7,3.65,11.63,3.87,23.26-.3,34.8-1.86,5.16-4.19,10.16-6,15.34-4.68,13.4-8.6,27-8.43,41.38.16,13.18,5,19.5,17.34,23.45,2.43.77,4,.64,4.08-2.28.14-3.22,1.77-4.92,5-5,2.79-.08,3.73-1.86,3.87-4.26C166.22,472.24,166.14,470.4,166.14,469.22Zm-62-45.93a80.1,80.1,0,0,0-1-34.49C98.8,372.08,90.74,358,74.76,349.53c-8.63-4.56-18.09-5.25-27.47-6.67-14.95-2.25-18.93-12.5-9.88-24.65a28.91,28.91,0,0,1,2.64-3c5.52-5.55,11.21-10.92,16.56-16.63A56.64,56.64,0,0,0,71,269.92c1.58-8.25-2.13-12.79-10.51-13.26-1.16-.07-2.33,0-3.49-.06-9.42-.18-11.72-3.74-7.86-12.22.55-1.22,1.47-2.38.29-3.65a3.46,3.46,0,0,0-4.18-.64,46.1,46.1,0,0,0-6.42,3.8c-5,3.52-4.89,8.62.33,11.91a25.3,25.3,0,0,0,6.47,2.55c3.19.91,6.53,1.37,9.7,2.36,7.81,2.43,10.33,7.63,7,15.08a40,40,0,0,1-14.25,17c-8,5.46-16.06,10.76-24,16.19a30.69,30.69,0,0,0-14,24.22c-.62,9.35,2.77,18.38,14.75,19.27,6.8.51,13.64.9,20.37,1.91C66.45,357.6,85,365.68,96,385.57,102.43,397.26,103.93,410.15,104.12,423.29Zm164.25-37c1.65-1,2.18-1.15,2.43-1.5,8.08-11.14,19.31-18.6,30.22-26.58,9.43-6.91,17.68-15.08,22.59-26.15,5.62-12.65,4.12-25.5-12.08-29.83a25.35,25.35,0,0,1-12-7c-7.39-7.73-7.8-19.12-1-29.44,2.48-3.75,5.32-7.26,7-11.5,2.8-7.19,1.17-12.77-4.65-16-7.41-4.05-18.91-1.74-24.07,4.86a12.3,12.3,0,0,0-2,12.68c1.21,3.18,3.3,5.65,6.8,5.82a10.15,10.15,0,0,0,8.65-4.21c.82-1.07,1.43-2.43.52-3.69s-2.12-.31-3.12.16c-2.37,1.11-4.89,2.13-6.62-.69s-.19-5.19,1.58-7.28a7.7,7.7,0,0,1,7.25-2.49A10.45,10.45,0,0,1,298.37,258c-2.14,5.59-6.53,9.57-10.33,14-5,5.77-11,10.91-13.33,18.48-2.59,8.25-1.82,18,11.79,18a30,30,0,0,1,11.66,2.47,14.52,14.52,0,0,1,8.9,16.6,42.28,42.28,0,0,1-7.79,17.12C293,353.31,284.51,360,277.72,368.2,273.61,373.17,269.9,378.42,268.37,386.25Zm-77.83-47.09h1.24c0,11.33,0,22.65.77,34,.18,2.48-.23,5.34,3.65,5.15,4.09-.21,3-3.3,2.92-5.59-.06-3.32-.53-6.63-.65-10q-1-30.45-2-60.9c-1-30.79-2.07-61.58-3-92.37-.83-27.63-1.48-55.27-2.26-82.9a32,32,0,0,0-.88-5.9c-.11-.48-.89-.82-1.36-1.23-.39.48-1,.93-1.12,1.46a25.1,25.1,0,0,0-.19,4c.09,11,.46,22,.75,33q1.4,54.44,2.05,108.89C190.79,290.86,190.54,315,190.54,339.16Zm-8.95-121.23h-.33q0-46.23-.06-92.47c0-2.1,1.23-6-1.5-6-3.33,0-1.84,4-1.86,6.11-.45,58.81.36,117.62-.88,176.42-.5,23.32-.13,46.65-.15,70,0,1.33,0,2.67.12,4a2.31,2.31,0,0,0,2.67,2.31,2.35,2.35,0,0,0,2.56-2.46c.09-1.33.12-2.66.1-4-.28-20.82-.08-41.63-.51-62.45C181.13,278.92,181.59,248.42,181.59,217.93Zm2.06-99c0,3.27,0,5.23,0,7.2q.47,101,.93,201.91c.07,15.33.08,30.66.15,46,0,2-.12,4.31,2.88,4.2s2.12-2.35,2-4.08c-.7-18.81-.38-37.63-1-56.45-1.18-37.79-1.6-75.59-2.26-113.39-.46-26.65-.78-53.3-1.21-79.94C185.21,123,185.69,121.43,183.65,119Zm-8.29,1.24-1.41-.1c-.36,7-.95,14.11-1,21.17q-.69,53.19-1.18,106.4c-.12,11.16-.17,22.32-.34,33.48q-.75,47-1.54,93.89c0,1.55-.48,3.78,2,3.84,2.63.06,2.4-2.24,2.54-4,.06-.66,0-1.33,0-2,.07-44.61.24-89.21.77-133.82.44-37.8.16-75.62.2-113.43C175.37,123.79,175.36,122,175.36,120.19ZM67.36,292c3-3.06,6-6.16,9.06-9.19,9.37-9.28,16.93-19.64,20.26-32.7,2.29-9,2.23-17.51-3.67-25.2-4.42-5.76-13.84-7.45-19.88-3.67-6.65,4.18-9.29,12.49-6.08,19.17,3,6.13,9.63,8.58,15,5.46a7.83,7.83,0,0,0,4-7.51A6.58,6.58,0,0,0,82,232.47c-2.25-1.09-3.87-.06-5.09,1.78s-1,3.44,1.42,4.23c.8.27,1.54.67,1.09,1.86-2.11,1-3.81.34-5.13-1.5s-1-3.72.13-5.6c1.63-2.79,4.09-4.05,7.13-3.45,4.27.85,6.53,3.92,7.09,8.06a46.17,46.17,0,0,1-3.43,24.92C80.68,273.29,73.65,282.17,67.36,292Zm72.89-67.78c2.31,2.55,4.95,4.79,6.91,7.68,4.74,7,3.87,12.54-2.75,17.8-4.16,3.31-9,4.87-14.11,5.86s-5.77,2.76-2.83,7.14c1.66,2.47,3.85,4.62,5.32,7.18,3.48,6.1,1.15,10.28-5.88,10.94a18.51,18.51,0,0,1-3.49.05c-5-.53-8.58.94-9.18,6.5-.19,1.7-2.68,3.11-.94,4.94s3.45.13,5.11-.34c9.84-2.75,17.51,2,19.63,11.95.87,4.08.41,8.25,1.09,12.45,1.79-6,6.4-9.85,10-14.39,2.14-2.72,3.36-4.71-1.68-5.51s-5.77-2.86-3.78-7.43a39.49,39.49,0,0,1,2.29-4.43c2.05-3.47,1.31-6.31-1.78-8.74-1.17-.92-2.29-1.92-3.38-2.95-9.42-9-8.87-13.13,2.45-19.41,5.64-3.13,10.56-7.2,9.79-14.3C152.2,231.64,147.46,226.67,140.25,224.17ZM69.79,299.84c1.6.49,2.36.13,2.94-.49,9.48-10.07,20.72-14.07,34.36-10.17,2.24.64,4.25-.4,4.67-2.64,1.38-7.29,6.27-8.71,12.62-8.13a12.37,12.37,0,0,0,3.48-.22c4.06-.78,5.16-2.76,3.09-6.32-1.75-3-4.11-5.65-6-8.55-3.65-5.5-2.55-8.49,3.8-10.09,4.18-1,8.48-1.61,12.21-4.08s7-5.24,6.44-10.36c-.48-4.53-4.89-9.78-10-11.46,1.46,1.53,2.6,2.7,3.71,3.9,3,3.24,5.23,7,2.88,11.25s-6.65,4.43-11,3.54c-3.58-.73-7.14-1.67-10.76-2.08s-7.89-.42-9.65,3.5c-1.87,4.14,2,6.16,4.58,8.37,5.06,4.3,6.11,9.47,2.79,14s-8.57,5.17-14.2,1.73c-1.91-1.17-3.72-3.55-6.2-2.14-2.7,1.54-.78,4.26-.79,6.44,0,5.63-2.39,7.68-7.75,6-2.88-.92-4-.19-4.38,2.64-.42,3.63-2.27,5.71-6.17,5.8a4.26,4.26,0,0,0-4.3,2.86C75.13,296.19,72.72,297.92,69.79,299.84ZM270,417.23C271.3,407,275.75,398.45,283,391c11.12-11.32,24.95-18.79,37.76-27.71,2.31-1.62,5.5-5.16,7.63-2.65,2.5,2.95-1.71,5.42-3.73,7.58-8.23,8.76-19.29,13.51-29,20.2-13.58,9.35-24.67,20.15-21.77,39.68,1.48-12.6,7.37-21.86,15.89-29.74,7.77-7.19,16.77-12.5,25.9-17.66,7.65-4.33,14.3-9.74,18.76-17.48,2.09-3.64,2.65-7.36.89-11.45-1.53-3.58-3-4.34-6-1.3a130.87,130.87,0,0,1-30.33,22.57,84.35,84.35,0,0,0-11.6,7.76C275.73,390.06,268.26,401.47,270,417.23Zm-28.6-103.3c1.66-2.71,2.52-5.56,4.84-5.29,6.35.72,11.43-2.4,16.87-4.58a9.07,9.07,0,0,1,5.89-.24c.79.21,1.64.46,2.33-.25s-.25-12-1.25-12.27c-2.85-.82-2.62-3.08-2.82-5.18s.35-4.93-2.71-5c-2.71-.05-2.94,2.76-3.52,4.77-.69,2.41.53,5.24-1.32,7.52-2.11-.81-1.6-2.63-2.07-3.9-.93-2.48-1.36-6-4.51-5.75-3.4.3-2,3.93-2.39,6.2-.24,1.43.38,3.43-1.32,4s-2.48-1.37-3.29-2.52c-3-4.16-6.56-7-12-6.84-4.94.17-5.68,1.11-3.78,5.62C233.63,298,238.78,304.89,241.38,313.93ZM219.5,496.77c-4.52.56-5.85-1.36-5.51-5.19.19-2.26-.51-4.59-.71-6.9-.14-1.51,0-3.24-1.86-3.65s-4.1-.89-5.74.57c-1.41,1.26-.93,3.11-.32,4.67s1.59,2.94,1.37,4.72-.92,3.49-2.87,3.51c-2.12,0-2.65-1.85-2.53-3.59.13-2,.74-3.91.92-5.88.12-1.44.33-3.22-1.46-3.87s-3.7-.84-5.22.46c-1.3,1.11-.91,2.77-.48,4.21s1.22,2.74,1.54,4.18a3.72,3.72,0,0,1-1.45,4,2.16,2.16,0,0,1-2.76,0,3.67,3.67,0,0,1-1.46-4,26.38,26.38,0,0,0,.95-5.85c0-2.77-1.1-3.38-3.57-3.36-2.65,0-3,1.41-2.81,3.53a12.7,12.7,0,0,0,1.14,4.81,4.64,4.64,0,0,1-.77,5.55,2.07,2.07,0,0,1-2.74.36c-2-1.33-1.9-3.25-1.46-5.34a33.77,33.77,0,0,0,.67-5.4c.09-1.83-.48-3.31-2.74-3.35s-2.84,1.29-2.88,3.2a16.89,16.89,0,0,0,.83,5.88c.66,2,.39,4-1.6,5.31a1.92,1.92,0,0,1-2.7-.29,4.39,4.39,0,0,1-.65-5.52,8.64,8.64,0,0,0,1.58-5.12c-.08-1.8-.27-3.39-2.6-3.45-2.59-.06-3.07,1.65-2.88,3.65a42,42,0,0,0,1,4.35c.4,2.05.31,4-1.65,5.35a2.47,2.47,0,0,1-3.24,0c-1.71-1.55-1.68-3.51-.93-5.51a10.67,10.67,0,0,1,.87-1.8,5.27,5.27,0,0,0,.22-5.64c-.62-1-2.57-.68-3.7.05-2.06,1.34-1.85,3.73-1.16,5.42,1,2.48.8,5,.62,7.33-.31,4,1.12,5.26,5.05,5.23,16.15-.15,32.3,0,48.45-.06C215.91,499.3,218,500,219.5,496.77ZM100,433.19a80.08,80.08,0,0,0,.39-25.46c-4-26.24-18.12-40.67-43.55-48.5a35.57,35.57,0,0,0-18.3-.27c-5,1.12-7.89,4-7.62,7.81.24,3.53,4,6.32,8.72,6.65,3.9.28,7.62-.59,11.33-1.54C73,366.31,84.65,379,90.65,392,96.53,404.69,99.47,418.09,100,433.19Zm8.18-21.05c2.93-14.58,2-29-4-42.76C96.13,351,82.61,339.56,61.77,337.59c-10.69-1-20.66-4.13-21.56-17.92-2.14,1.46-2.69,3.27-3.47,4.83q-5.37,10.75,6,14.93a41.41,41.41,0,0,0,10.79,1.89c21.07,1.85,36.74,11.75,46.12,31A84.77,84.77,0,0,1,108.2,412.14Zm168.65,18.07c4.41-14.76,14.93-24.47,27-32.85,1.47-1,3.59-3.17,5.2-1.05,1.47,1.93-1,3.52-2.17,5a30.31,30.31,0,0,1-2.48,2.46c-5.23,5.13-10.59,10.13-15.66,15.41-4.67,4.85-8,10.51-8.67,17.42,1.93-4.87,4.51-9.3,8.66-12.61s8.3-6.68,12.6-9.81a52.23,52.23,0,0,0,11.93-11.24c3.29-4.5,6-9.27,5.87-15.06-.13-4.23-1.75-5.15-5.26-3.2-6.4,3.57-12.81,7.22-18.39,12C285.16,405.46,276.44,415.34,276.85,430.21ZM274.5,368c6.39-6.75,12.88-13.4,19.14-20.26a46.12,46.12,0,0,0,9.93-16.56c1.16-3.51,1.92-7,.63-10.72a11.81,11.81,0,0,0-14.51-7.3c-5.15,1.52-8.19,7.56-6.7,13.34a7.14,7.14,0,0,0,5.73,5.6c2.54.52,4.54-.71,6-2.68a5.6,5.6,0,0,0,.89-6.08c-.78-1.67-2-2.72-4-2.18a1.82,1.82,0,0,0-1.32,2.71c.38.91,1.88,2.14-.3,2.51-1.53.27-2.4-1-2.61-2.43a4.4,4.4,0,0,1,2.67-4.88,5.19,5.19,0,0,1,6.74,1.42,8.05,8.05,0,0,1,1.3,8c-1.75,5.53-5.1,10.06-9,14.21A69,69,0,0,0,274.5,368ZM59.93,323.1a5.58,5.58,0,0,1,0-1.7c.63-1.52,1.8-3.1-.39-4.28a2.87,2.87,0,0,0-3.65.63c-1.29,1.42-1.14,3-.3,4.64A5.11,5.11,0,0,0,60,325.31c4,.38,6.89-1,8.12-5a9.58,9.58,0,0,0-4.57-11.57c-4.92-2.57-12.43-.95-17,3.68-4.08,4.14-4.65,9.75-1.53,15.16,2.08,3.62,5.66,5,9.36,6.13,6.86,2.11,14.25,1.36,21,4,1.89.72,2.74-.72,3.28-2.19.64-1.72-.57-2.5-1.87-2.94-2-.7-4.13-1.25-6.23-1.77-4.19-1.05-8.49-1.75-12.57-3.13-4.63-1.58-6.72-6.67-4.8-10.44,1.36-2.68,3.68-3.18,6.34-2.82a4.05,4.05,0,0,1,3.88,3.9C63.53,320.5,62.77,322.44,59.93,323.1Zm33.93,87.36C91.75,396.4,85,384.08,76.11,377.65c-11.56-8.36-26.44-4.27-32,8.79-3.39,8,.14,16.82,7.94,19.86,8.06,3.13,19.29-1.63,21.65-9.34,1.15-3.76.82-7.33-3-9.63-3.49-2.1-7.1-3.05-10.65-.15-2,1.6-2.49,3.71-.69,5.66,2,2.13,3.54.85,4.71-1.14,2.1-3.55,3.89-1.54,5.09.54,1.51,2.6.77,5.11-1.44,7.2-4.63,4.38-13.37,3.14-17.11-2.51a12,12,0,0,1-.29-13.65,15.76,15.76,0,0,1,15.24-7.55c7.67,1.15,12.89,5.87,17.15,11.86C87.7,394.56,91,402.37,93.86,410.46Zm76.92-290.61-2,0c0,86.26-2.39,172.49-3.59,258.73l2.07,0Q169,249.21,170.78,119.85ZM281.89,445.47c1-1.3,1.51-1.94,2-2.54,4.19-4.76,9.48-6.52,14.16-4.42,5,2.26,6.4,6.23,5.17,11.51-.58,2.49,1.16,3.21,3.38,2.71,5.46-1.23,10.65-9.14,10.86-16.49.2-7.1-2.8-11.27-9.54-13.24C294.12,418.94,281.51,429.3,281.89,445.47ZM196.2,181l-.93.09q3.15,98,6.29,196l2.09-.07Q199.92,279,196.2,181ZM90.27,408.81c-3.34-10-7.31-18.72-14.3-25.52-7.36-7.15-16.78-6.88-22.47-.1-3.8,4.54-3.4,10.62,1,14.26,2.85,2.37,6.19,2.46,9.44,1.38a4.12,4.12,0,0,0,3.07-5c-5.24,3.38-7.91,3.4-10.15.28-2-2.86-1.24-6.82,2-9.21a9.41,9.41,0,0,1,7-2c7.21.91,12,4.89,13.17,12.06C80.08,401.51,83.84,405.51,90.27,408.81ZM41.34,205.9c-2.73-3.93-5.83-5.54-8.8-7.29-4-2.37-8.2-4.45-11.82-7.46-6.52-5.41-9.92-12-7.84-20.65a20.73,20.73,0,0,0,.37-4.46,2.62,2.62,0,0,0-1.86-2.68,2.54,2.54,0,0,0-3,1.21,17.58,17.58,0,0,0-2.3,4.37c-2.93,9.2,1.2,19,9.82,24.48C23.64,198.34,32.72,200.34,41.34,205.9ZM285.26,457.39c5.17-5.44,8.3-5.37,13,0,1.76,2,3.35,4.31,6.51,3.79a3.87,3.87,0,0,0,3.45-3.71c.15-1.41-.43-2.18-2-2.17-5.05,0-6.05-2.5-5.21-7.15,1-5.62-3.93-9.41-9.47-7.69C284.59,442.65,281.86,449.62,285.26,457.39ZM168.77,112.13c-1.79-6.77-.7-14.53-6.63-20-1.06-1-2.83-2.21-1.32-4.19,1.28-1.67,2.82-2.94,5.1-2.29a3.38,3.38,0,0,1,2.63,4.23c-1.81,6.61,1.49,12.4,2.68,18.51.31,1.59.7,3.42,3.2,4.42-.86-11-3.9-21.09-5.39-31.4-.21-1.47-1.5-1-2.38-.46-3.71,2.14-5.76.2-7.38-3.51a11.13,11.13,0,0,0-.82,2.32c-.28,3.93-.3,7.88-2.2,11.54a3.13,3.13,0,0,0,1,4.07C163.05,99.57,165.61,105.91,168.77,112.13ZM96.08,436.27c-.39-6.76-1-13.41-4.16-19.44-3.57-6.92-10-8.93-15.7-5.23-2.2,1.43-3.39,3.39-3,5.85.47,2.79,2.94,2.78,5.14,2.81a15.94,15.94,0,0,1,10.76,4.61C92.56,428,94,432.32,96.08,436.27ZM226.38,288c-2.9,5.23-1.42,9.38.61,13.08,5.64,10.22,9.49,20.79,8.14,32.73C246,316.22,233.14,303.22,226.38,288Zm44.43-38.39c-2.56,9.47-.18,15.49,6.22,17.4a15.16,15.16,0,0,0,19.59-11.81c1.06-5.2-4.43-10.54-9.44-9.07-2.4.7-4.66,2.37-3.83,4.94s3.07.54,4.61.06,3.23-.9,4.65.47,1.32,3,.88,4.65c-1.89,7.24-12.07,10.26-17.79,5.49C272.1,258.71,272.12,254.44,270.81,249.58Zm58.16,70c0,5.59.83,6.54,5.46,6.6,5.39.06,8-4,7.78-12.54,0-1.17.6-2.83-1.62-2.89C335,310.66,328.94,315.26,329,319.63Zm38.08-41.72c3.73-.51,6.4-1,9-.22s5.34,1.85,8,2.73c8.26,2.69,15.05-2.89,13.84-11.42-.23-1.62-.56-3.6-2.62-3.78-2.39-.2-2.3,1.82-2.49,3.49-.68,6-1.72,7-7.84,7a54.57,54.57,0,0,1-8.95-.45C373,274.79,370.43,275.38,367.05,277.91ZM76.89,396.71c-1.44,4.61-4.48,7.78-8.39,10.2-1.68,1-2.82,2.35-2.59,4.43.52,4.73,1.94,9,5.65,12.34,2,1.83,3.65,1.89,5.4-.46-3.26-1.4-7-2.2-6.69-6.84.53-7.21,7-7.66,12-9.84A15,15,0,0,1,76.89,396.71Zm116.75,37h.08c0,2.32,0,4.65,0,7,0,2.78,1.41,3.81,4.06,3.76s3.55-1.43,3.44-3.81c-.23-4.81-.52-9.61-.74-14.42-.1-2.18-1-3.43-3.34-3.34-2.2.09-3.43,1.17-3.49,3.36C193.58,428.75,193.64,431.24,193.64,433.74Zm121.52-191.4c2.07-8.32,2.44-16.54-1.07-24.64a83.88,83.88,0,0,1-6.17-18.95c-.62-3.53,1.86-6.65.63-10.91-4.2,3.91-4.24,8.22-3.43,12.65,1,5.77,3.23,11.2,5.38,16.62C313.7,225.22,316.21,233.44,315.16,242.34Zm-98,250.28a251.83,251.83,0,0,0,13.05-47c1.75-10.36,3-20.78,1.08-31.27-.51-2.8-.33-5.9-3.63-7.85,3.45,14.45,3.25,28.91.76,43.3C225.93,464.39,221.49,478.5,217.2,492.62ZM199.31,403c0-4.66,0-9.31,0-14,0-2.31-1.22-3.25-3.49-3.17-2.07.08-3,1.09-3,3.11,0,4.83,0,9.66.12,14.49.06,2.94,2.25,2.79,4.31,2.78S200.13,405,199.31,403ZM72.37,302.63a19.06,19.06,0,0,0-3.58.65c-1.33.52-3.37,1.08-2.93,2.81.5,1.92,2.26.44,3.42.31A13,13,0,0,1,79.79,310c4.27,3.8,7.94,8,10.13,13.42.38.93,1,1.93,2.21,1.48s.9-1.64.51-2.54a52.62,52.62,0,0,0-3.32-7.23C85.35,308.68,80.2,303.72,72.37,302.63Zm290.34-11.27c6.09-7.07,9.43-7.62,16.73-3.28.71.43,1.41.86,2.15,1.24,1.44.75,2.94.95,4.06-.43s.47-2.93-.66-4c-4.26-3.93-9.38-5.79-15.05-4.74C364.55,281.16,363.57,285.8,362.71,291.36ZM184.84,433.64h.06c0,2.65,0,5.29,0,7.94a2.53,2.53,0,0,0,2.82,2.73c1.59,0,3.25-.2,3.34-2.12.24-5.28.59-10.57-.41-15.81-.37-2-1.68-2.76-3.62-2.5s-2.17,1.76-2.19,3.32C184.83,429.35,184.84,431.49,184.84,433.64Zm-150.77-228c-4.31-3.16-9-5-14.25-4.71-4.46.27-7.94,3.5-8.15,7.28-.08,1.36,0,2.71,1.32,3.52a2.86,2.86,0,0,0,3.67-.48C21.44,206.24,27.39,205.17,34.07,205.61Zm253.52,257c1.24,2.75.13,7.23,4.15,8.81,2.32.92,7.48-4.77,7.42-7.57s-4.89-8.06-7.29-7.87C288,456.27,287.91,459.29,287.59,462.6Zm-85.39,9.09.19,0c-.28-2.31-.57-4.62-.85-6.93-.36-3-2.5-3.05-4.8-2.94-2.51.13-3,1.75-2.85,3.78.21,3.33.44,6.65.75,10,.22,2.45,2,2.71,4,2.72s3.6-.62,3.57-3.07C202.19,474,202.2,472.86,202.2,471.69ZM336.09,206.32c.37,4.1,1.32,7.54,3.83,10.47a25.69,25.69,0,0,1,5.76,11.46c.3,1.4-1,4.16,1.42,3.93,2.16-.21,2.2-3,2.19-5s-1.16-3.48-2.36-4.84c-6.59-7.48-10.68-15.39-4.88-25.25a.77.77,0,0,0,.12-.48c-.09-.62,0-1.49-.38-1.81-.81-.7-1.49,0-2,.67C337.21,198.78,336.77,202.79,336.09,206.32ZM291.35,518.68c19.26,1,37.33-24.46,29.62-41.84.88,9.55.11,18.66-5.83,26.64S300.68,515.74,291.35,518.68ZM174.23,434h0c0-2.66.1-5.33,0-8-.11-2.06-1.64-2.86-3.46-2.8s-1.82,1.68-1.83,3c0,5-.07,10,0,15,0,1.53-.52,3.68,2.22,3.47,2.21-.16,3.21-1.47,3.16-3.67S174.23,436.31,174.23,434ZM85.73,249.07c-3.42,2.9-8.35,5-8.48,9.54-.17,6-1.47,11.69-2.75,17.48C80.3,267.9,85.31,259.44,85.73,249.07ZM302,482.68c20.84.27,28.62-24.49,22.45-39-.74-1.74-1.85-4.78-3.74-3.8-2.3,1.19.06,3.43,1,5,7.83,13.79.14,31.92-15.24,35.89C304.88,481.17,303.1,481.05,302,482.68Zm15.52-1.31c-.1,9.21-3.2,16.94-10.07,23.08a43.14,43.14,0,0,1-11.94,7.1c-1.27.55-3.7.76-3.06,2.51.85,2.33,3,.47,4.24,0a35.87,35.87,0,0,0,14-9.21C317,498.17,319.71,490.46,317.51,481.37ZM182.31,434.3c0-2.49,0-5,0-7.48,0-1.69-.69-2.91-2.61-3a2.47,2.47,0,0,0-2.87,2.68q-.07,7.49,0,15a2.46,2.46,0,0,0,2.84,2.7c1.93,0,2.62-1.21,2.65-2.91C182.35,439,182.31,436.63,182.31,434.3ZM331.37,311.1a31.33,31.33,0,0,0,8-2.58c3.78-2,1.75-4.37.53-6.64-1.49-2.77-3.23-2.92-5.35-.47-1.43,1.65-3.52,2.42-5.48,3.37-1.31.63-3.94.29-3.36,2.72C326.19,309.6,327.59,311.45,331.37,311.1Zm-141.07,85h-.1c0-2.49,0-5,0-7.49,0-1.84-1.05-2.71-2.89-2.63a2.32,2.32,0,0,0-2.44,2.56c0,5,0,10,0,15,0,1.6.7,2.44,2.41,2.44s3-.34,3-2.38C190.31,401.08,190.3,398.58,190.3,396.09ZM56.31,279c2.08-5.15.11-7.73-4.15-9.35-4-1.54-7.89-.39-11.69.65-2.58.72-7,1.65-5.92,4.58,1.35,3.55,5.07,1,7.66-.21C48.33,271.75,52.38,272.89,56.31,279ZM177.17,58.65c-1.27,18.23,3.56,35.7,5.67,53.51l1.5-.18Zm-.25,337.46h-.1c0,2.48,0,5,0,7.46,0,1.63.84,2.37,2.48,2.39s3-.39,3-2.41c0-4.8,0-9.61-.11-14.42a2.62,2.62,0,0,0-5.22,0C176.86,391.46,176.92,393.79,176.92,396.11Zm14.52,74.41h-.07c0-1.81,0-3.62,0-5.43s-.56-3.2-2.84-3.12c-2.05.08-3.64.52-3.64,3,0,3.46,0,6.92,0,10.38,0,2.08,1.17,2.9,3.16,2.9s3.24-.69,3.35-2.76C191.51,473.82,191.44,472.17,191.44,470.52Zm-19.5-392.4c-.67,4.58,1.29,8.76,1.9,13.09.91,6.4,2.11,12.76,3.28,19.12.19,1,.47,2.58,2.06,2.27,1.31-.26,1-1.56.83-2.5q-2.37-14.64-4.78-29.29C175,79.08,174,78.21,171.94,78.12ZM324.08,364.54c-12.62,8.71-26.48,15.67-37.24,26.87C298.76,381.74,314.07,376.8,324.08,364.54ZM110.45,203c3-4.26,7.48-7,10.54-11.09,1.34-1.78,3.5-4.25,1.6-6.13-2.32-2.31-4.6.46-6.28,2C111.91,191.72,110.36,197,110.45,203ZM218.87,502.94v-.71H166.76v.71Zm31.51-251.76c1.23-7.12,5.11-11.44,10.2-14.92,1.3-.89,3.23-1.89,2.12-3.85s-3.11-1.21-4.84-.48C252.19,234.35,246.15,244.69,250.38,251.18ZM186.09,79.83c-.74.92-1.2,1.23-1.29,1.63-2.39,10.36,1.45,20.27,2.31,30.39,0,.4.93,1,1.46,1a1.31,1.31,0,0,0,1.4-1.62c-.57-4.92-1.16-9.85-1.83-14.76-.18-1.29-3.28-.89-2-3.19C188.61,89,186.13,84.75,186.09,79.83ZM323.17,238.74c4-6.1,4.15-12.51,1.66-19-2.07-5.44-4.59-10.74-3.58-16.84.18-1.07.42-2.76-1.05-2.93-1.77-.19-1.89,1.74-2,2.9-.5,4.61,1.2,8.85,2.77,13C323.75,223.28,326.05,230.7,323.17,238.74ZM330,412c14.39,10.06,17,23.05,9.65,38.76,7.05-8,6.81-16.68,3.35-25.64C340.58,418.91,336.9,413.72,330,412Zm-161.2,57.92h0c0,2-.09,4,0,6,.09,1.61,1.19,2.25,2.73,2.25,1.35,0,2.44-.59,2.48-1.92.1-4,.12-8-.1-11.93-.08-1.52-1.63-2-3-2.07-1.8-.05-2.12,1.3-2.15,2.72C168.75,466.62,168.78,468.28,168.78,469.94Zm5.42-73.31h0c0-2.49.05-5,0-7.46A2,2,0,0,0,172,387a2.06,2.06,0,0,0-2.15,2.25c-.05,4.81-.06,9.62,0,14.42a2.05,2.05,0,0,0,2.19,2.22,2.09,2.09,0,0,0,2.12-2.28C174.25,401.27,174.2,399,174.2,396.63Zm8.22,74h0c0-1.31,0-2.63,0-3.95,0-1.9-.21-3.78-2.77-3.83s-2.87,1.77-2.89,3.7c0,2.64,0,5.28.05,7.92.07,1.8,0,3.81,2.73,3.81s2.9-1.71,2.91-3.69Zm-150-220.38a26.85,26.85,0,0,0-2.22,2.54C29,254.66,27,256.51,28.38,259s3.85,2.34,6.16,2.41c3.54.09,7.09,0,10.63,0C39.33,259.75,34.68,257,32.41,250.21Zm345.2-44.31.28-.22-.3-.13Z"/><path class="cls-1" d="M64.06,537.05c-1.74,0-2.33-1.46-2.48-2.67-.7-5.82-4.15-8.57-9.65-9.68-3.59-.71-4.1-2.8-.92-4.85,4.76-3.07,6.49-7.16,5.41-12.68-.26-1.34-.57-3.21,1.21-3.93,1.51-.61,2.44.81,3.33,1.69,3.76,3.67,7.75,6,13.29,3.9,3.27-1.24,4.28.46,3.46,3.56a10.38,10.38,0,0,1-.78,2.36c-2.24,4.12-1.35,7.17,2.78,9.5,1.31.73,3.45,1.6,2.62,3.65-.66,1.65-2.7,1.08-4,.91-5.57-.7-9.73,1-12.07,6.33A2.9,2.9,0,0,1,64.06,537.05Z"/><path class="cls-1" d="M86.13,561.26c-2.79,0-3.37,2.8-5.07,4.22-.85.71-1.36,2.16-2.73,1.83s-1.2-1.89-1.2-2.94c0-5.13-2.39-8.31-7.34-9.79-1.28-.39-3.15-1-3-2.83.11-1.55,1.94-1.73,3.11-2.09,4.51-1.38,7.54-3.92,8.1-8.88.13-1.1.48-2.47,2-2.5,1.09,0,1.74,1,2.14,1.88,1.91,4.38,4.86,6.62,10,6.35,4-.21,3.35,2.52,1.49,4.49-2.32,2.46-2.64,4.68-.77,7.48.77,1.14,2.16,2.62,1,4s-2.78.18-4.17-.18C88.43,562,87.33,561.64,86.13,561.26Z"/><path class="cls-1" d="M330.56,278.57c-.09-3.45-1.82-6.74-.71-10.32,2.33-7.54,12.69-12.49,19.95-9.3,2.69,1.17,5.22,3.18,4.4,6.41-.9,3.53-4.27,2.61-6.75,2.2-3.12-.52-6.19-1.23-9.37-.67-1.28.22-3,.52-2.67,2.24s1.87.82,2.93.64a12.14,12.14,0,0,1,7.69,1.44c2.14,1.1,3.32,3,2.35,5.36s-3.2,2.19-5.12,1.37c-3.62-1.55-7-3.34-9.74,1.52-.64,1.12-2-.5-3-.94Z"/><path class="cls-1" d="M344.66,391.37c5.48,1.68,6.84-3.53,9.45-7,.86-1.14,1.34-3.17,3.05-2.9s1.66,2.32,1.81,3.74c.61,5.73,1.92,10.71,8.8,12,2.52.47,2.7,2.33.43,3.79-5,3.23-8.6,7-7.55,13.72.38,2.4-1.47,2.08-2.91.91a45.67,45.67,0,0,1-4.52-3.9c-2-2.13-3.86-2.49-6.59-1.18-3.95,1.88-5.13.91-4-3.57,1.1-4.31.51-7.78-2.61-10.95-1-1-2.66-2.08-1.67-3.75.87-1.49,2.7-.81,4.14-.92C343,391.34,343.51,391.37,344.66,391.37Zm-3.24,2.2c1.64,3.24,4.39,4.63,4.4,7.57,0,3.31-2.24,8.65,5.08,5.91.61-.23,1.83,1.21,2.78,1.85,1.44,1,2.15,3,5,3.2-2.58-6.88,3.4-8.87,8-13.35-8.93,0-8.76-6.5-10.41-13.67C353.21,392.77,348.62,395.33,341.42,393.57Z"/><path class="cls-1" d="M217.07,236.38c4.5,2.42,7.13-.51,9.57-4.36,1.47-2.31,3-2.07,3.43.78.56,4,.92,7.91,5.9,9.24,1.73.47,1.41,2.35,0,3.09-4,2.18-4.64,5.69-4.4,9.73.06,1,0,2.1-1,2.65-1.38.74-2.27-.35-2.93-1.21-2.46-3.25-5.42-4.08-9.2-2.48-1,.42-2.38,1-3.27-.13s-.09-2.33.61-3.16c3.1-3.66,2.45-6.87-.79-10-.79-.77-1.63-1.83-1.12-3.11S215.56,236.55,217.07,236.38Zm1.11,3.53c3.17,3.5,2.91,7.05.6,11.55,4.56-2.37,7.28-.56,10.09,2.18.65-3.41-.18-6.74,3-8.57a1.26,1.26,0,0,0-.15-2.37c-3.27-1.12-3.49-4-4-7.61C225.22,238.87,222.38,240.5,218.18,239.91Z"/><path class="cls-1" d="M353.54,200.54c-.66,1.33-1.31,2.67-2,4l-3.93,0c-1.73-2.62-.7-4.87.93-7l-.08,0h1.09l-.08,0,3.05,1.08Z"/><path class="cls-1" d="M226.51,121.58c0-.65-.09-1.3-.14-2l6-.1.12,1,0,0c-.36.35-.71.7-1.06,1.06l0,0Z"/><path class="cls-1" d="M219.32,124.47c2.29-1.27,4.81-.77,7.24-.94,0,.35-.07.7-.11,1Z"/><path class="cls-1" d="M359.54,203.54c-.42-.62-.83-1.25-1.25-1.88l4-.15-2.83,2.08Z"/><path class="cls-1" d="M352.48,195.54h0Z"/><path class="cls-1" d="M354.7,200.62l-1.15-.07Z"/><path class="cls-1" d="M346.44,197.53l-1,.05Z"/><path class="cls-1" d="M234.58,457c-.06-5.7,3.95-10.16,9.3-10.35,5.75-.2,10.74,4.74,10.83,10.73A11.17,11.17,0,0,1,244,468.77C238.31,468.82,234.65,464.21,234.58,457Zm2.33.14c0,5.27,3,9.14,7.07,9.16a8.59,8.59,0,0,0,8.22-8.32c.06-4.63-3.49-8.72-7.67-8.83S236.92,452.48,236.91,457.1Z"/><path class="cls-1" d="M243.23,479.94c0-5.73,4-9.64,9.72-9.57s10.33,4.93,10.39,11.14c.06,5.93-4.94,11.2-10.5,11.07C247.85,492.45,243.22,486.37,243.23,479.94Zm16.29,5.63c2.33-4.44,1-9.6-3.15-11.82-3.61-1.95-8.22-.78-10,2.54-2,3.9.08,10.77,4.42,13,4.07,2.06,6.9.08,8.72-3.72Z"/><path class="cls-1" d="M257.94,537.5c1,7.55-7,10.55-12.24,7.73-13-6.9-17.67-19.23-20.07-32.64-.69-3.83,2.07-6.5,6-7.35,3.41-.73,6.83-.39,9.51,1.79C250.85,514.89,256.73,525,257.94,537.5Zm-13.15,4c3.4,1.21,5.86,2.84,8.55.8,2.5-1.9,2.16-4.82,1.71-7.39a43,43,0,0,0-13.53-24.43,10.12,10.12,0,0,0-8.76-2.65c-3.11.47-5,2.55-4.49,5.54a31.07,31.07,0,0,0,5.58,14.3,18.61,18.61,0,0,0-.85-3.26c-2.39-4.07-1.78-7.08,2.66-9.34,4.59-2.33,7-2,10.24,2.4a47,47,0,0,1,6.59,12.26C255.44,537.85,254.1,540.09,244.79,541.46ZM240,521.74l-.52-.16.11.33Z"/><path class="cls-1" d="M91,370.74c-3.71-3.38-6.42-6.16-9.43-8.55a52.78,52.78,0,0,0-30.89-11.34c-6.81-.34-13.65,0-20.28-2.14s-10.95-6.19-12.72-12.89a11.18,11.18,0,0,1,1.2-9.15c.93-1.47,2.24-2.59,4.14-2.12,2.09.52,2.27,2.2,2,4-2.26,17.26,6.32,19.56,19.37,19.65,15.55.12,29.65,3.8,41.4,14.45C87.9,364.52,90.25,366.37,91,370.74Z"/><path class="cls-1" d="M296.17,355.74c2.64-4.92,6.55-8.87,9.65-13.47A52.74,52.74,0,0,0,314,321c.74-4.49-1.87-7.5-5.38-9.91-1.43-1-3.76-2-2.41-4.16s3.63-1.73,5.68-.35c5.23,3.53,8.32,8.42,7.82,14.71C318.39,337.15,307.6,346.75,296.17,355.74Z"/><path class="cls-1" d="M282.15,294.4a14.29,14.29,0,0,1,.37-3.44c.86-2.42,1-6.46,3.69-6.37s1.14,3.86,1.45,6c.47,3.11,2.29,5.46,3.65,8.08,1,1.88,1.65,3.77-.58,5.24-2,1.32-3.82.69-5.37-.86A11.17,11.17,0,0,1,282.15,294.4Z"/><path class="cls-1" d="M309.32,281.14c1.94-.1,4,.36,4.76,2.06,1.23,2.8,2.2,5.5,4.87,7.46,1.31.95.69,2.8-.66,3.86-2,1.55-4.47,1.66-5.75-.3-1.59-2.41-3.61-3.51-6.09-4.52-2.12-.87-3.44-2.73-2.63-5.22S306.81,281.14,309.32,281.14Z"/><path class="cls-1" d="M52.87,366.7c-2.82-.45-6.41.76-10,2.17-1.93.77-4.15,1.22-5.12-1.2-1.07-2.68,1-4.06,3.11-4.7a23.93,23.93,0,0,1,15.55.9c1.16.44,2.89.94,2.5,2.55S57,367,56,367C55.29,367,54.63,366.87,52.87,366.7Z"/><path class="cls-1" d="M289.52,433.9c2.52-4.15,8.8-6,15.39-4.39,4.6,1.12,7.68,3.88,8.65,8.64a3.42,3.42,0,0,1-1.91,4.18,2.81,2.81,0,0,1-3.78-1.52c-3.91-7.49-9.8-9.39-17.52-6.49C290.15,434.39,289.8,434.05,289.52,433.9Z"/><path class="cls-1" d="M342.51,203.54c4-1.23,1.15,2.15,2,3A4.75,4.75,0,0,1,342.51,203.54Z"/><path class="cls-1" d="M359.5,203.59l2.65.18c-1.39.86-2,.17-2.61-.23Z"/><path class="cls-1" d="M226.56,122.58l-2.25-.22v-.61l2.25-.22Z"/><path class="cls-1" d="M235.52,121.53l-.57,1.14c-.63-.83.38-.75.61-1.1Z"/><path class="cls-1" d="M226.51,123.58v-1c.44.18,1.26-.19,1.16.7C227.66,123.39,226.92,123.47,226.51,123.58Z"/><path class="cls-1" d="M232.52,120.56v1l0,0v-1.06Z"/><path class="cls-1" d="M232.53,121.54h-1l0,0h1.06Z"/><path class="cls-1" d="M235.56,120.54l0,0Z"/><path class="cls-1" d="M344.51,199.57l0,0Z"/><path class="cls-1" d="M143.57,81.52l-.9.15.05-.5.82.4Z"/><path class="cls-1" d="M259.55,485.53c-3.69,2.18-7.43,4.49-10.78-.46-1.5-2.23-3-4.62-1.16-7.33a4.44,4.44,0,0,1,5.27-1.82c2.85.87,5.94,1.7,6.67,5.2a20.09,20.09,0,0,1,0,4.45Z"/></g></g></svg>