<svg xmlns="http://www.w3.org/2000/svg" viewBox="0 0 160.34 279.14"><defs><style>.cls-1{fill:#fefefe;}</style></defs><g id="Layer_2" data-name="Layer 2"><g id="Layer_1-2" data-name="Layer 1"><path class="cls-1" d="M134.35,253.91c-6.74-4.93-12.51-10.67-15.94-18.5-.49-1.12-2-1.78-3.7-2l1.85,3.51c-6.82-5.82-11.18-12.87-18-17.31,1-1.82,2.09.64,3.28-.65-1.85-3-5-4.5-7.77-6.37a1.48,1.48,0,0,0-1.34-.08c-2.73,1.88-2.62,1.65-5.37.61-6.52-2.45-13-5.08-20.29-4.15-7,.89-10.29-2.69-7.35-8.94a146.82,146.82,0,0,1,11.78-21.3c4.47-6.47,11.73-8.9,17.25-13.73,4-3.45,7.94-6.54,13.06-8.3,3.37-1.16,5.28-4.45,6.64-7.78,6.38-15.73,3.74-30.57-5.54-44.09a44.74,44.74,0,0,0-23-17.59C71.37,84.38,67.49,86,65.09,94.78c-1.85,6.81-5.9,11-12.45,13-3.19,1-6.23,1.75-8.94-1.21-.9-1-11.61,2.92-12,4.24-.31,1.1-.72,2.21.12,3.32,5.77,7.61,1.17,14.67-1.41,21.72-.52,1.42-2,3.47-4.06.23-1-1.55-4.19-.14-6.35.17-1.21.17-2.34.57-3.17-.53s1.85-1.25,1-2.64c-2.54,0-3.65,1.84-4.71,3.69-3.49-2.06-3-3.92.18-5.58,1.68-.88,3.23-1.69,2.93-4.06s-1.3-3.15-3.63-3c-2.05.09-.34-.94-.22-1.42.17-.73.25-1.41-.76-1a7.8,7.8,0,0,0-2,1.51c-4.1,3.79-4.1,4.51-.05,8.25-1,1-2.09.59-3.24.37-2.86-.56-1.89-4.55-3.8-5-4.51-1-1.82-2.92-1.16-4.83.46-1.31-.34-2.56-.63-3.85-.68-3,0-4.21,3.17-6.48,4.27-3,9.38-4.66,13.81-8-2.8-1.48-4.14.78-6,1.11-.9.16-1.76.81-2.56-.48s.24-1.76.91-2.33C16,97,21,91.69,21.73,83.46c.15-1.63,2.21-3.09,3.4-4.64,3.6,5.31,3.84,5.36,10.15,2.12-.05-1.15-1-1.12-1.77-1.33-1.65-.48-3.44-1-3.36-3.09.09-2.58,2.2-1.89,3.77-1.9,1.25,0,2.1-.13,2.45-1.74.39-1.79-.46-1.57-1.62-2.24-2.91-1.68-3.32-8.36-1-10.89a40.77,40.77,0,0,0,5.09-6c2.06-3.34,4.75-3.6,8.94-1.7.76-.86-.06-1.54-.32-2.22-1-2.63-.89-2.3-3.2-.93-1.14.68-3.53,3.88-4.73-.4-.24-.85-1.24-.61-2-.78-3.4-.74-5.67-1.62-7-6.21-1.3-4.35-4.59-8.56-6-13.32-.32-1-1.58-2.08-.07-3s2,.74,2.73,1.42c1.73,1.52,3.09,3.92,5.07,4.6,3.29,1.13,6.34,6.8,9.44,3.27,2.22-2.52,6.63-2.17,7.34-6.93.65-4.43,9.74-7.9,14-6,3.14,1.4,6.69-1.15,9.73,1.58.72.65,3.07-1.33,3.53-2.82S76.53,17,79,17.69c.21.07.6-.5.91-.77C76.67,14,82,9.64,78.09,6.68c-1.38-1-.11-2.62,1-3.31,1.49-1,1.34.88,1.8,1.5,1.75,2.37,5.07,2.41,6.8,5.22C89,7.28,85.76,6.16,86.2,4c2.06-1.78,2.53,2.85,5.09.46.4-1.13-2.62-2.11-1.48-4.41,1.86,2.32,2.27,5.68,3.65,7.08,4.68,4.73,3.41,11.15,6,16.32a53.78,53.78,0,0,1,3,7.9c1.44,4.66.29,6.06-4.44,5-5.36-1.17-10.61-2.82-15.93-4.17-3.39-.86-6.82-1.8-10.35-1.34-1.71.22-4.37.65-2.71,3.26,2.39,3.74-.43,4.76-2.68,5.89-4.18,2.1-8.22,4.54-14,5.05,2.72,2.33,4.33,3.7,6.81,4.1,3,.49,7.26-1.23,8.39,3.85,0,.14,3.47,2.9,5.54.42s2.58.11,2.88,1.13c.78,2.69-3.16,6.19-6,5.62-3.69-.72-6.81-.94-8.13,4-.83,3.12-.74,3.34,2.31,2.62,1-.24,2.59,1.2,3.72,2.1,5.52,4.34,8.41,3.76,12.16-1.66,2.38-3.44,6.09-2.64,8.88-.5a24.06,24.06,0,0,0,7.92,3.74c7.48,2.29,14.52,5.35,20,11.15,1.15-1-.23-1.58.11-2.92,3.59,3.21,7.08,6.2,10.39,9.37,1.53,1.46,3,3,4.49,4.53,9,8.69,14.37,18.72,10.19,31.76a6.24,6.24,0,0,0,0,4.8c5.93-6.28,2-15.4,7.19-22,2.11,4.39.72,8.92,1.11,13.24.09,1-1.24,2.25.09,3.16,1.15.78,1.5-1.59,2.92-.9-.59,3.34-3.13,5.54-5.23,7.57a30,30,0,0,0-1.48,42.16c.86.92,3.6,1.34,2.07,3.56-1.3,1.89-3.12,2.23-5.21.88-.91-.6-2.14-1.49-3.2-.55-1.24,1.11,0,2.11.64,3,1,1.41.25,2.23-.93,2.75-2.24,1-4,4.37-6.73,2.71-4.45-2.71-8.82-.53-12.57.47-4.42,1.18-7.81,1.09-11.51-1.19-2.54-1.57-5-3.24-7.51-4.84-3.53-2.24-7,1.31-10.48-.68-.65-.37-3.12,2-2.64,3.62,1.1,3.85.44,8.58,4.18,11.27a71.87,71.87,0,0,1,11.77,11.23c8.42,9.54,18.71,17.31,26.34,27.71,2.91,4,3.77,8.88,7.24,12.44-5.1-1.73-4.82-7.88-8.87-10.46.23,10.14,10.16,14.59,13.76,24.12-5.17-3.64-7.3-9.24-12.83-10.89-.05,3.34,5.35,2.5,4.45,6.2ZM42.59,69c2.3-.83,5.94-.47,5.17-3.88-.52-2.3-2.87-5.69-5.09-5.38-3.06.44-1.6,4.21-2,6.58C40.35,68,40.46,69.36,42.59,69Zm66.33,152.57c.77-.07.86-.28.59-.7-2.84-4.5-5.34-9.43-12-9.51C100.48,216.05,105.4,218.19,108.92,221.58ZM37,89.37a44.14,44.14,0,0,0,5.24-8.82c.56-1.32,1.29-2.68-.29-3.32s-2.54.69-2.86,2.07c-.62,2.74-1,5.47-3.25,7.6C35,87.71,36.09,88.67,37,89.37ZM92.49,24.09c2.91-3.21.58-5.54-.8-8-.55-1-1.37-1.5-2.42-1a2.14,2.14,0,0,0-1.18,2.8C88.75,20.65,91.41,21.66,92.49,24.09ZM62.87,72.59a3.2,3.2,0,0,0-3.18-2.78c-2.2.18-1.86,2.37-2,3.94-.12,1.2.58,2.16,1.74,1.6S63,75,62.87,72.59Z"/><path class="cls-1" d="M157.42,108c-4.25-6.28-2.18-13.66-2.44-20.85,1,2.75,4.8,4.68,2.26,8.41-.42.6.08,1.15.44,1.74C161.27,103.09,161.25,103.1,157.42,108Z"/><path class="cls-1" d="M56.78,8.08c-.47-1.57-.09-2.49,1-2.86,2-.7,1.89,2,3.7,2.4,1.58.36-.36.88-.84,1.43-1.38,1.56.58,1.52,1.24,1.92,1.19.7,3.62-.44,3.7,1.48.06,1.62,2,3.54.6,4.5a4.42,4.42,0,0,1-5.74-1.22C58.71,13.35,56.53,11,56.78,8.08Z"/><path class="cls-1" d="M134.57,253.72c5.65,3,7.37,9,10.53,13.9a37.38,37.38,0,0,1,4.74,11.52c-4.1-4.18-4.92-9-7.57-12.66-2.37-3.3-3.83-7.24-7.56-9.45-1.42-.84-.38-2.06-.36-3.12Z"/></g></g></svg>