<svg xmlns="http://www.w3.org/2000/svg" viewBox="0 0 131.94 229.5"><defs><style>.cls-1{fill:#fff;}</style></defs><g id="Layer_2" data-name="Layer 2"><g id="Layer_1-2" data-name="Layer 1"><path class="cls-1" d="M67.81,161.47c.62.41,1.18.58,1.4,1,.79,1.38,2,2.81,2.09,4.26.22,6.55.33,13.13,0,19.68a6.6,6.6,0,0,1-4.2,5.54c-1,.42-2,.81-3,1.27-.29.14-.72.53-.68.68a1.52,1.52,0,0,0,.73.93,7.08,7.08,0,0,0,2.15.31c2.79,0,5.57-.16,8.36-.23a2.59,2.59,0,0,1,1.07.17c3.21,1.39,6.44,2.76,9.62,4.22,4.45,2.06,8.86,4.22,13.31,6.28,5.45,2.52,10.88,5.1,16.41,7.44,4.28,1.81,8.71,3.32,13.09,4.91.53.2,1.23,0,1.77.15.75.27,1.77.62,2,1.21a2.27,2.27,0,0,1-1,1.95c-4.94,2.16-9.93,4.2-14.94,6.19a26.25,26.25,0,0,1-6.37,2,11.32,11.32,0,0,1-5.81-.9c-3.44-1.62-6.64-3.74-9.94-5.67-4-2.35-8-4.77-12.06-7.06-7.78-4.38-15.68-8.52-23.65-12.52A50.39,50.39,0,0,0,38.92,198c-3.81-.28-7.06-2.12-10.42-3.62-.63-.29-1.46-1.49-1.29-1.88a3.18,3.18,0,0,1,2-1.51c4.81-1.22,9.67-2.21,14.47-3.47a37.16,37.16,0,0,0,6.22-2.44,2.83,2.83,0,0,0,1.33-1.88c.23-1.93.16-3.88.24-5.82s.09-4.14.3-6.19c.18-1.9-.33-3.18-2.31-3.71-2.74-.74-5.63-1.22-8.14-2.44-3.75-1.83-7.73-2.59-11.69-3.52a2.2,2.2,0,0,1-.88-.24A16,16,0,0,1,27.43,160a5.43,5.43,0,0,1,1.42-.87c3.23-.81,6.5-1.47,9.73-2.31,3.88-1,7.72-2.13,11.58-3.22a3.28,3.28,0,0,0,2.74-3.37c0-2.19.19-4.37.25-6.56a2.87,2.87,0,0,0-2.36-3.18c-5.82-1.67-11.62-3.43-17.42-5.18a7.88,7.88,0,0,1-2.52-1A5.46,5.46,0,0,1,29,132c-.12-.3.85-1.32,1.5-1.57,2.43-.93,4.91-1.73,7.4-2.47,4.48-1.33,9-2.58,13.48-3.85a2.64,2.64,0,0,0,2.24-3,10.77,10.77,0,0,1,0-1.27c.09-4.48.06-4.38-4.29-5.59-4.61-1.28-9.19-2.72-13.74-4.23a9.85,9.85,0,0,1-3.18-2c-1.09-1-.84-2.1.58-2.45,4.28-1,8.63-1.82,12.9-2.92,2.9-.75,6.09-.91,8.41-3.08a4.49,4.49,0,0,0,1.1-3,67.51,67.51,0,0,0-.56-7.08c-.26-2.51-1-3.2-3.39-3.78-4.18-1-8.39-1.93-12.51-3.16a70.81,70.81,0,0,1-7.28-3.08v-.78A14.34,14.34,0,0,1,34,77.34c5.75-1.76,11.52-3.42,17.26-5.19a15.17,15.17,0,0,0,3.82-1.67,3.09,3.09,0,0,0,1.05-2.11,46.49,46.49,0,0,0,0-5.28c-.09-2.79-1.61-4.26-5.32-5.36q-7-2.07-13.95-4.19c-2.73-.84-3.63-2-3.66-4.09a1.49,1.49,0,0,1,1.4-1.74c3.59-.63,7.16-1.48,10.77-1.85,9.56-1,18.92-3,28.31-4.88,2-.39,4-.63,5.9-1.06a8.73,8.73,0,0,0,6.1-4.67c3.13-5.68,2.18-13.78-3.55-16.58-4.57-2.23-9.47-3.05-14.1.35a32.86,32.86,0,0,1-3.71,2.31,27.25,27.25,0,0,1-20.74,2.43c-4.93-1.28-7.53-4.8-8.52-9.64-.1-.48-.15-1-.24-1.44-.49-2.67.61-4.07,3.32-4a2.7,2.7,0,0,1,1.46.83c1.58,1.39,2.94,3.15,4.71,4.21,6.16,3.68,15.22-1.6,15.21-8.71,0-4.75,0-5,4.72-5,3.54,0,7.08.78,10.61,1.2a2.11,2.11,0,0,1,2,2.37c-.26,2.95,1.81,3.55,3.89,4.33,4,1.5,8.23,2.71,12,4.7,4.24,2.24,8.27,5.23,10.46,9.62,2.78,5.56,3.12,11.14-.68,16.82a29.58,29.58,0,0,1-14.9,11.39c-3.83,1.41-8,2-12,2.81-.95.2-1.4.45-1.34,1.48.1,1.83.21,3.66.13,5.48-.18,4-.37,8.12-.78,12.15-.13,1.26-1.11,2.42-1.5,3.68-.34,1.09-.86,2.45-.5,3.38,2.28,5.94,2.11,12,1.47,18.16a7.6,7.6,0,0,0,.08,2.18c.42,2.11-.32,3.85-1.39,5.64a4.68,4.68,0,0,0-.75,3.31A28,28,0,0,1,72.3,120c-.31,3.57-.16,7.18-.33,10.76,0,.75-.71,1.45-1,2.21s-.76,1.94-.43,2.35c1.81,2.25,1.72,5,1.81,7.5a94,94,0,0,1-.73,11.08A10,10,0,0,1,67.81,161.47Z"/><path class="cls-1" d="M0,129.94a31.81,31.81,0,0,1,3.76-2.88c2.52-1.4,5.16-2.61,7.75-3.88,2.3-1.13,4.29-.76,6.34.83a39.34,39.34,0,0,0,6.07,3.61c1.34.7,1.6,1.33.5,2.42a10.61,10.61,0,0,1-2.28,1.78c-1.91,1.05-3.88,2-5.85,2.94a6.62,6.62,0,0,1-6.86-.23C6.59,132.82,3.46,131.6,0,129.94Z"/><path class="cls-1" d="M4.21,107.15c1.11-.55,2.23-1.08,3.34-1.64,2.49-1.24,5-2.58,7.49-3.7a4.59,4.59,0,0,1,3.12-.36,86.32,86.32,0,0,1,8.07,3.7c1.09.56,1,2.26-.22,3.21-1.92,1.45-4.08,2.61-6,4.09-2.68,2.07-5.3,1.72-8,.19s-5.21-3-7.81-4.46Z"/></g></g></svg>