<svg xmlns="http://www.w3.org/2000/svg" viewBox="0 0 747.4 225.86"><defs><style>.cls-1{font-size:195.04px;font-family:ProximaNova-Regular, Proxima Nova;letter-spacing:0.05em;}.cls-1,.cls-2{fill:#fff;}</style></defs><g id="Layer_2" data-name="Layer 2"><g id="Layer_1-2" data-name="Layer 1"><text class="cls-1" transform="translate(0 162.47)"><tspan xml:space="preserve">S   UND</tspan></text><path class="cls-2" d="M294.72,91.5c-1.19,2.73-3.21,5.1-3.54,8.21a2.33,2.33,0,0,1-.66,1.45c-1.41,1.16-1.59,2.67-1.61,4.35,0,4-1.65,7.56-3.1,11.17-.12.28-.43.74-.56.71-2-.42-1.71,1.27-2.24,2.25-.95,1.75-1.9,3.51-3,5.17a11.8,11.8,0,0,1-2.19,1.88v-4.13c-1.05,2-1.89,3.57-2.77,5.16a30.66,30.66,0,0,1-7.94,9.54,8.58,8.58,0,0,0-1.94,2.92,7.45,7.45,0,0,1-4.38,4,8,8,0,0,0-2.63,2.06c-1.23,1.18-2.44,2.3-4.15,2,2.77-2.51,5.75-4.91,8.37-7.67,1.55-1.64,2.46-3.87,3.74-5.78.87-1.29,1.83-2.52,2.82-3.72a8.73,8.73,0,0,0,2.38-5.2,3.71,3.71,0,0,1,1-1.79,17.54,17.54,0,0,0,4-9.07,17.93,17.93,0,0,1,2-5.59A25.47,25.47,0,0,0,280.76,93c-.54-3.22-2.56-5.55-4.54-7.91-.18-.22-.73-.45-.82-.37a21,21,0,0,0-2.49,2.59,1.52,1.52,0,0,0,.31,2.3c.81.61.75,1.31.31,2.14a2.09,2.09,0,0,0-.27,1.38c.48,1.51,1,3-.31,4.36-.1.11.36.92.69,1.26,1.47,1.5,1.51,2-.12,3.2a5.83,5.83,0,0,0-2.54,5.46,4.28,4.28,0,0,1-.57,1.7c-.1.24-.37.41-.47.65-1.07,2.66-2.07,5.35-3.22,8a30.68,30.68,0,0,1-2,3.24,6.56,6.56,0,0,0-1.17,2.31,4.47,4.47,0,0,1-1.9,3.47c-1.32,1-1.71,2.92-3.5,3.85-.77.4-.94,2.15-2.35,2.54-.27.07-.47.68-.58,1.08-.95,3.55-3.29,6.19-5.82,8.64a8,8,0,0,1-3.07,1.36,4.37,4.37,0,0,0-3.31,3.2,3.12,3.12,0,0,1-2.84,2.31c-1,.14-1.57.47-1.71,1.71a3,3,0,0,1-1.71,2c-2.58,1-5.25,1.65-7.89,2.41a7.61,7.61,0,0,1-2.69.53c-2.26-.23-3.91.75-5.57,2.1a9.26,9.26,0,0,1-6.62,2.23c-5.25-.44-10.35.59-15.48,1.38-2.93.46-5.89.82-8.85,1.09a2.94,2.94,0,0,1-2-.72c-1.82-1.65-3.54-3.35-6.23-3.46-.42,0-.88-.56-1.2-1a4.17,4.17,0,0,0-3.5-1.66,4.56,4.56,0,0,1-2.62-.93,7.76,7.76,0,0,0-5.79-2,3.78,3.78,0,0,1-2.76-1.26,8.76,8.76,0,0,0-5.42-3.26,28.86,28.86,0,0,1-3.28-.88,7.27,7.27,0,0,1-4.44-4,24,24,0,0,0-2.09-2.8,6,6,0,0,1-1.38-2.53,12.46,12.46,0,0,0-3.88-8.64c-.75-.72-1-2-1.51-3a13.18,13.18,0,0,0-1.55-2.69c-2.17-2.43-3.3-5.06-2.6-8.4a6.47,6.47,0,0,0-.48-3.09c-.42-1.28-1.16-2.45-1.58-3.72a6.9,6.9,0,0,1,.88-6.5,6.15,6.15,0,0,0,.88-5.69c-.83-2.9-2.18-5.81-2.24-8.74-.06-3.37,1-6.76,1.66-10.14,0-.22.3-.4.57-.73L140,79l.41.07a16.1,16.1,0,0,0,.62-3.3C141,71,142.88,67,145.83,63.49A4.59,4.59,0,0,1,148,61.86a8.88,8.88,0,0,0,4.89-2.93,1.54,1.54,0,0,1,1.3-.34l-1.1,2.15a5.2,5.2,0,0,0,3-3.81,5,5,0,0,1,2.81-3.71c4.85-2.93,9.67-5.89,14.4-9a7.77,7.77,0,0,0-5.13,2.17A17.14,17.14,0,0,1,162,50.05c-1.24.39-2.24,1.49-3.41,2.15-1.41.79-2.87,1.5-4.35,2.15-.35.15-.86-.08-1.3-.13.22-.38.34-.9.67-1.13,3.16-2.27,6.36-4.5,9.55-6.74a3.27,3.27,0,0,0,1.14-1.19,4.13,4.13,0,0,1-1,.17,7,7,0,0,1-1.19-.25c.2-.32.32-.77.61-.94,2.91-1.66,5.84-3.28,8.77-4.91a16.5,16.5,0,0,1,8.26-2.56,4.33,4.33,0,0,1,1.27.39c-.3.38-.52.95-.92,1.11-2.48,1-4.08,2.95-5.56,5.11l1,.34a1.86,1.86,0,0,1-.29.43c-.91.59-1.84,1.14-2.72,1.77A3.32,3.32,0,0,0,171.4,47a18.57,18.57,0,0,1-7.74,7.81,5.61,5.61,0,0,0-3.11,4.12l4-2.86a4.84,4.84,0,0,1-2,4.52c-1.44,1.06-2.94,2-4.36,3.12-.78.6-1.45,1.28-1.05,2.48.11.33-.21.87-.44,1.24-.58.91-1.28,1.75-1.84,2.68-.86,1.43-1.51,3-2.48,4.33-2.39,3.27-2.54,7.14-3.26,10.86l9.6-18.39c1.31,1.19.94,2,.42,2.87-.95,1.51-1.84,3.08-2.93,4.49s-.48,3.27-.94,4.76-2,2.48-2,4.39c0,1.31-.75,2.61-1.18,3.91-.14.41-.51.81-.47,1.18.23,2.11-.65,3.89-1.56,5.69a23,23,0,0,0-.69,2.31,4.65,4.65,0,0,1-.82,1.65,2.5,2.5,0,0,0,.14,3.82,3.39,3.39,0,0,1,1.43,3.37,3.94,3.94,0,0,0,1.5,3.74c1.76,1.35,2.15,3.27,2.35,5.31.15,1.52.44,3,.66,4.53l.68.23.58-1c.77.91,1.59,1.74,2.25,2.69a9.56,9.56,0,0,1,1.27,2.56,5.16,5.16,0,0,0,2.22,3,5.5,5.5,0,0,1,1.93,2.63,10.41,10.41,0,0,0,3.34,4.87c4.93,4,10.27,7.24,16.71,8.06,1.39.18,2.84-.32,4.27-.39a3.08,3.08,0,0,1,1.93.37c.86.68,1.62.87,2.46.16,1.24-1,2.48-.86,3.94-.43,3.05.91,6.15,1.61,9.25,2.34a4.55,4.55,0,0,0,3.95-.94,14,14,0,0,1,8.64-2.82,3.47,3.47,0,0,0,2.4-.95,11.11,11.11,0,0,1,5.87-3.54c.91-.26,1.7-.46,2-1.58.12-.5.75-.88,1.17-1.28,1.9-1.82,3.87-3.57,5.65-5.49a3.34,3.34,0,0,0,.45-2.31c-.11-1.16-.06-2.14,1-2.86a6.26,6.26,0,0,0,2.53-4.7c.39-3,.55-6.13,2.08-8.94.32-.59,0-1.54,0-2.32a7.45,7.45,0,0,1,.17-2.69c.77-1.83,2.11-3.53.39-5.51a.49.49,0,0,1-.07-.46c2-2.28-.27-4.27-.67-6.25s-2.09-3.92-3.27-5.83c-.19-.32-.65-.48-1-.69-1.35-.83-2.77-1.55-4-2.5-1.07-.8-1.86-2-3-2.73a8.54,8.54,0,0,0-2.7-.75l-.18.52,4.65,4c-1.8.44-3.35.78-4.83-.12a3.68,3.68,0,0,0-3.37-.55,2,2,0,0,1-2.39-.84c-2.05-2.39-5-2.58-7.63-.92-2.38,1.49-4.93,2.71-7.39,4.06s-4.28,2.82-5.14,5.55c-.58,1.82-5.32,2.71-6.87,1.48a32.56,32.56,0,0,0-3.38-2.48,2.45,2.45,0,0,0-1.79-.14,7.27,7.27,0,0,0-4.48,4.18c-.73,1.57-1.49,3.12-2.3,4.65a11.08,11.08,0,0,1-1.26,1.57c-.39-2.18.61-4.73,3.65-10.3L178.93,93l-.5-.54c1.28-1.36,2.34-3.09,3.88-4a72.31,72.31,0,0,1,8.47-3.91c1.08-.47,2.41-.54,3.31-1.21.72-.53,1-1.69,1.51-2.71l1,.31-.39-2,1.9.74c1.74-.94-.38-2.09.18-3.19l1.28.64.35-.36c-.34-.38-.71-1.11-1-1.09a34.73,34.73,0,0,0-5.58.8c-1.25.32-1.19,1.08.28,2.46l-3.11.82v.92h-3.58l1.47,3.66a6.53,6.53,0,0,1-1-.56c-2-1.67-2-1.68-2.81.58-4.2-2-5-5.92-2.26-11.18l1.1,1.77c2.46-2.76,5.67-4.33,6-8.17a2.69,2.69,0,0,1,.82-1.85,6.23,6.23,0,0,0,3-6.68c.7.37,1.28.92,1.74.84s.77-.82,1.12-1.3c.59-.84,1.14-1.71,1.75-2.53.29-.39.6-.93,1-1,3.79-1,4.84-4.49,6.63-7.3l.38-.66.44.14-2.08,5.19.38.28a11.35,11.35,0,0,0,1.06-.76c1.32-1.2,2.64-2.4,3.92-3.65,1-1,2-1.78,3.71-1.44.55.11,1.46-.69,2-1.28,2-2.3,3.77-4.72,5.75-7a6.1,6.1,0,0,1,2.65-1.47C221.19,39,220.12,42.23,219,46c5.45-5.5,12.41-8.47,17-14.35a24.46,24.46,0,0,0,4.5-8h.65c.05,2.39-1.09,4.34-2.19,6.34a5.82,5.82,0,0,0-.93,3.3,2.13,2.13,0,0,1-1.41,2.65c-2.92,1.39-3.69,4.11-4.44,7.45,11-3.1,19.22.82,25.58,9.37a2.59,2.59,0,0,1-1.62-.62,23,23,0,0,0-12.37-5.6,14.19,14.19,0,0,0-3.22.26c2.46.87,4.9,1.24,7.25,1.94a8.57,8.57,0,0,1,5.54,5.17l-5.28-.7-.24.39c.56.51,1,1.29,1.69,1.46,2.88.76,4.71,3,6.92,4.71a33.85,33.85,0,0,1,4.38,4.64c1.1,1.24,2.18,2.49,3.16,3.82.71.94,1.13,2.1,1.86,3a2.72,2.72,0,0,0,4,.58c1.68-1.22,1.81-2,.82-3.55.58-.55,1.62-1.13,1.55-1.55A6.86,6.86,0,0,0,270.85,63a18.66,18.66,0,0,1-4.09-7.81c-1.05-3.34-1.86-6.8-4.48-9.41-.21-.2-.17-.65-.24-1,.34,0,.78-.17,1,0A31.59,31.59,0,0,1,266.2,47c1.13,1,2.34,1.65,3.84,1.25s2.25.24,3.15,1.3a8.1,8.1,0,0,0,3.21,2.52,7.11,7.11,0,0,1,3.76,2.86,25,25,0,0,0,2.49,2.53c0-.77,0-1,0-1.18.08-.53.18-1.06.26-1.59a11.69,11.69,0,0,1,1.58.52,2,2,0,0,1,.79.8c.9,1.82,1.78,3.65,2.6,5.51,1,2.2,1.87,4.44,2.8,6.66a9,9,0,0,1,.75,1.8c.8,4.07,1.58,8.15,2.31,12.24.38,2.11.65,4.23,1,6.35ZM197.94,66c3.18,0,5.33-2,7.8-3.9C201.61,60.69,200.21,64.16,197.94,66Zm57.28,59,.42.19a24.32,24.32,0,0,0,2.27-2.71,2.68,2.68,0,0,0,.12-1.88,22.2,22.2,0,0,0-1.07-2.85c-1,.55-1,1.7-.53,2.93s.64,2.14-.57,3C255.51,124,255.42,124.59,255.22,125ZM142.85,109.93h.57l-.36-4.64-.49,0Z"/></g></g></svg>