<svg xmlns="http://www.w3.org/2000/svg" viewBox="0 0 100 60.29"><defs><style>.cls-1{fill:#07b5d3;}</style></defs><g id="Layer_2" data-name="Layer 2"><g id="Layer_1-2" data-name="Layer 1"><path class="cls-1" d="M99.86,10.31a.78.78,0,0,1,.06.79c-2,6.78-5.53,12.52-11.83,16.18a24,24,0,0,1-9.71,2.82,29.36,29.36,0,0,1-20.56-5.43,34.42,34.42,0,0,1-4.22-3.88,52.72,52.72,0,0,0-6.1-5.46,15.83,15.83,0,0,0-7.69-3.27c-4.38-.43-8.08,1.15-11.38,3.89A23,23,0,0,0,25,19.64,23.92,23.92,0,0,1,29,9.81,21.83,21.83,0,0,1,42.42.92,31.19,31.19,0,0,1,61.28,2.09,30.45,30.45,0,0,1,71.92,9.73c1.14,1.18,2.29,2.35,3.42,3.53a15.16,15.16,0,0,0,22.07,0,13.85,13.85,0,0,0,2.45-2.89Z"/><path class="cls-1" d="M0,49.59a17.65,17.65,0,0,1,1.29-4.72c3.4-8.24,9.58-13,18.34-14.38a30.37,30.37,0,0,1,18,2.18A32.43,32.43,0,0,1,47,39.78l3.55,3.66a15.12,15.12,0,0,0,21.86-.19c.87-.88,1.69-1.81,2.61-2.81a9.15,9.15,0,0,1-.7,2.69,27.32,27.32,0,0,1-8.71,12.54c-3.72,2.93-8.1,4.07-12.68,4.49a29.17,29.17,0,0,1-20.24-5.61A45.15,45.15,0,0,1,27.83,50a49.21,49.21,0,0,0-5.26-4.63c-6.67-4.91-13.86-4.46-19.9,1.26A34.15,34.15,0,0,0,0,49.59Z"/></g></g></svg>