<svg xmlns="http://www.w3.org/2000/svg" viewBox="0 0 99.58 85.67"><defs><style>.cls-1{fill:#41b783;}.cls-2{fill:#35495e;}</style></defs><g id="Layer_2" data-name="Layer 2"><g id="Layer_1-2" data-name="Layer 1"><path class="cls-1" d="M99.58.52a35.68,35.68,0,0,0-3.22,5.25Q73.55,45.08,50.76,84.42a2.39,2.39,0,0,1-.13.21c-.81,1.39-.8,1.39-1.59,0L.71,1.27A11.35,11.35,0,0,0,0,.27V0l19.88,0a13.4,13.4,0,0,0,1.84,3.49q10.49,18.12,21,36.19C44.87,43.34,47,47,49.07,50.58c.72,1.23.75,1.23,1.49,0q2.63-4.5,5.24-9L69.44,17.84Q74.55,9,79.64.06L99.58,0Z"/><path class="cls-2" d="M19.88.05c5.84,0,11.69,0,17.53,0,.77,0,1,.46,1.26,1q5.19,8.83,10.39,17.67a2.55,2.55,0,0,0,.86,1.15l4.14-7.18L60.8.85C61.07.37,61.3,0,62,0c5.89.05,11.77.05,17.65.06Q74.56,9,69.44,17.84L55.8,41.52q-2.61,4.51-5.24,9c-.74,1.27-.77,1.27-1.49,0C47,47,44.87,43.34,42.76,39.73q-10.53-18.09-21-36.19A13.4,13.4,0,0,1,19.88.05Z"/></g></g></svg>